<svg width="775" height="214" viewBox="0 0 775 214" fill="none" xmlns="http://www.w3.org/2000/svg">
<mask id="mask0_660_3020" style="mask-type:alpha" maskUnits="userSpaceOnUse" x="0" y="0" width="775" height="214">
<rect width="775" height="214" fill="#D9D9D9"/>
</mask>
<g mask="url(#mask0_660_3020)">
<path d="M401.467 -418.455C555.662 -501.977 803.312 -535.315 863.13 -463.163C1034.51 -256.45 959.588 40.6752 739.748 83.7215C586.485 113.731 72.3998 263.92 43.636 117.021C14.8722 -29.8787 184.942 -301.172 401.467 -418.455Z" fill="#F7C644" fill-opacity="0.4"/>
<path d="M499.276 -479.014C653.471 -562.536 901.121 -595.873 960.939 -523.722C1132.32 -317.009 1057.4 -19.8834 837.557 23.1629C684.294 53.1726 170.209 203.362 141.445 56.4622C112.682 -90.4373 282.751 -361.731 499.276 -479.014Z" fill="#F7C644" fill-opacity="0.4"/>
<path d="M597.085 -539.573C751.281 -623.095 998.931 -656.432 1058.75 -584.281C1230.13 -377.568 1155.21 -80.4424 935.366 -37.3962C782.103 -7.38644 268.018 142.803 239.254 -4.09684C210.491 -150.996 380.56 -422.29 597.085 -539.573Z" fill="#F7C644" fill-opacity="0.4"/>
</g>
</svg>
