<svg width="301" height="668" viewBox="0 0 301 668" fill="none" xmlns="http://www.w3.org/2000/svg">
<mask id="mask0_660_3023" style="mask-type:alpha" maskUnits="userSpaceOnUse" x="0" y="0" width="301" height="668">
<rect width="301" height="668" fill="#D9D9D9"/>
</mask>
<g mask="url(#mask0_660_3023)">
<path d="M-136.112 -2.29594C38.6317 12.4256 264.001 120.363 274.452 213.502C304.395 480.342 78.7993 687.714 -128.64 603.146C-273.257 544.189 -785.505 387.847 -728.995 249.234C-672.486 110.621 -381.491 -22.9682 -136.112 -2.29594Z" fill="#F7C644" fill-opacity="0.4"/>
<path d="M-243.112 2.70406C-68.3683 17.4256 157.001 125.363 167.452 218.502C197.395 485.342 -28.2007 692.714 -235.64 608.146C-380.257 549.189 -892.505 392.847 -835.995 254.234C-779.486 115.621 -488.491 -17.9682 -243.112 2.70406Z" fill="#F7C644" fill-opacity="0.4"/>
<path d="M-350.112 7.70406C-175.368 22.4256 50.0011 130.363 60.4523 223.502C90.3948 490.342 -135.201 697.714 -342.64 613.146C-487.257 554.189 -999.505 397.847 -942.995 259.234C-886.486 120.621 -595.491 -12.9682 -350.112 7.70406Z" fill="#F7C644" fill-opacity="0.4"/>
</g>
</svg>
