<svg width="498" height="501" viewBox="0 0 498 501" fill="none" xmlns="http://www.w3.org/2000/svg">
<mask id="mask0_662_8271" style="mask-type:alpha" maskUnits="userSpaceOnUse" x="0" y="0" width="498" height="501">
<rect width="498" height="501" fill="#D9D9D9"/>
</mask>
<g mask="url(#mask0_662_8271)">
<path d="M276.955 270.388C209.532 432.272 -135.721 519 -229.221 536C-493.405 584.033 -645.292 179.488 -501.372 7.82025C-401.038 -111.859 79.6037 -492.459 194.314 -396.291C309.024 -300.122 371.631 43.0674 276.955 270.388Z" fill="#F7C644" fill-opacity="0.4"/>
<path d="M359.734 228.388C292.311 390.272 -52.9415 477 -146.442 494C-410.626 542.033 -562.513 137.488 -418.593 -34.1797C-318.258 -153.859 162.383 -534.459 277.093 -438.291C391.803 -342.122 454.41 1.06742 359.734 228.388Z" fill="#F7C644" fill-opacity="0.4"/>
<path d="M442.513 186.388C375.091 348.272 29.8378 435 -63.6622 452C-327.847 500.033 -479.733 95.4884 -335.813 -76.1797C-235.479 -195.859 245.162 -576.459 359.873 -480.291C474.583 -384.122 537.19 -40.9326 442.513 186.388Z" fill="#F7C644" fill-opacity="0.4"/>
</g>
</svg>
