<svg width="138" height="40" viewBox="0 0 138 40" fill="none" xmlns="http://www.w3.org/2000/svg">
<rect x="0.197266" width="137.803" height="40" rx="8" fill="#143810"/>
<path fill-rule="evenodd" clip-rule="evenodd" d="M29.3092 16.3092C29.3092 15.9167 28.991 15.5986 28.5986 15.5986C28.2062 15.5986 27.8881 15.9167 27.8881 16.3092V19.2895H24.9078C24.5154 19.2895 24.1973 19.6076 24.1973 20C24.1973 20.3924 24.5154 20.7105 24.9078 20.7105H27.8881V23.6907C27.8881 24.0832 28.2062 24.4013 28.5986 24.4013C28.991 24.4013 29.3092 24.0832 29.3092 23.6907V20.7105H32.2894C32.6818 20.7105 32.9999 20.3924 32.9999 20C32.9999 19.6076 32.6818 19.2895 32.2894 19.2895H29.3092V16.3092Z" fill="#FCFDF6"/>
<path d="M39.2223 26V14.8H40.1983L47.9263 24.528H47.4143V14.8H48.5823V26H47.6063L39.8943 16.272H40.4063V26H39.2223ZM55.5659 26.08C54.6913 26.08 53.9233 25.8987 53.2619 25.536C52.6006 25.1627 52.0833 24.656 51.7099 24.016C51.3366 23.3653 51.1499 22.624 51.1499 21.792C51.1499 20.96 51.3259 20.224 51.6779 19.584C52.0406 18.944 52.5313 18.4427 53.1499 18.08C53.7793 17.7067 54.4833 17.52 55.2619 17.52C56.0513 17.52 56.7499 17.7013 57.3579 18.064C57.9766 18.416 58.4619 18.9173 58.8139 19.568C59.1659 20.208 59.3419 20.9493 59.3419 21.792C59.3419 21.8453 59.3366 21.904 59.3259 21.968C59.3259 22.0213 59.3259 22.08 59.3259 22.144H52.0139V21.296H58.7179L58.2699 21.632C58.2699 21.024 58.1366 20.4853 57.8699 20.016C57.6139 19.536 57.2619 19.1627 56.8139 18.896C56.3659 18.6293 55.8486 18.496 55.2619 18.496C54.6859 18.496 54.1686 18.6293 53.7099 18.896C53.2513 19.1627 52.8939 19.536 52.6379 20.016C52.3819 20.496 52.2539 21.0453 52.2539 21.664V21.84C52.2539 22.48 52.3926 23.0453 52.6699 23.536C52.9579 24.016 53.3526 24.3947 53.8539 24.672C54.3659 24.9387 54.9473 25.072 55.5979 25.072C56.1099 25.072 56.5846 24.9813 57.0219 24.8C57.4699 24.6187 57.8539 24.3413 58.1739 23.968L58.8139 24.704C58.4406 25.152 57.9713 25.4933 57.4059 25.728C56.8513 25.9627 56.2379 26.08 55.5659 26.08ZM63.2099 26L60.0419 17.6H61.1299L64.0099 25.392H63.5139L66.4739 17.6H67.4499L70.3779 25.392H69.8819L72.8099 17.6H73.8499L70.6659 26H69.5939L66.7779 18.672H67.1139L64.2819 26H63.2099ZM79.9879 26V14.8H84.1799C85.1293 14.8 85.9453 14.9547 86.6279 15.264C87.3106 15.5627 87.8333 16 88.1959 16.576C88.5693 17.1413 88.7559 17.8293 88.7559 18.64C88.7559 19.4293 88.5693 20.112 88.1959 20.688C87.8333 21.2533 87.3106 21.6907 86.6279 22C85.9453 22.3093 85.1293 22.464 84.1799 22.464H80.6439L81.1719 21.904V26H79.9879ZM81.1719 22L80.6439 21.424H84.1479C85.2679 21.424 86.1159 21.184 86.6919 20.704C87.2786 20.2133 87.5719 19.5253 87.5719 18.64C87.5719 17.744 87.2786 17.0507 86.6919 16.56C86.1159 16.0693 85.2679 15.824 84.1479 15.824H80.6439L81.1719 15.264V22ZM94.4532 26.08C93.6425 26.08 92.9119 25.8987 92.2612 25.536C91.6212 25.1627 91.1145 24.656 90.7412 24.016C90.3679 23.3653 90.1812 22.624 90.1812 21.792C90.1812 20.9493 90.3679 20.208 90.7412 19.568C91.1145 18.928 91.6212 18.4267 92.2612 18.064C92.9012 17.7013 93.6319 17.52 94.4532 17.52C95.2852 17.52 96.0212 17.7013 96.6612 18.064C97.3119 18.4267 97.8185 18.928 98.1812 19.568C98.5545 20.208 98.7412 20.9493 98.7412 21.792C98.7412 22.624 98.5545 23.3653 98.1812 24.016C97.8185 24.656 97.3119 25.1627 96.6612 25.536C96.0105 25.8987 95.2745 26.08 94.4532 26.08ZM94.4532 25.072C95.0612 25.072 95.5999 24.9387 96.0692 24.672C96.5385 24.3947 96.9065 24.0107 97.1732 23.52C97.4505 23.0187 97.5892 22.4427 97.5892 21.792C97.5892 21.1307 97.4505 20.5547 97.1732 20.064C96.9065 19.5733 96.5385 19.1947 96.0692 18.928C95.5999 18.6507 95.0665 18.512 94.4692 18.512C93.8719 18.512 93.3385 18.6507 92.8692 18.928C92.3999 19.1947 92.0265 19.5733 91.7492 20.064C91.4719 20.5547 91.3332 21.1307 91.3332 21.792C91.3332 22.4427 91.4719 23.0187 91.7492 23.52C92.0265 24.0107 92.3999 24.3947 92.8692 24.672C93.3385 24.9387 93.8665 25.072 94.4532 25.072ZM103.316 26.08C102.623 26.08 101.967 25.984 101.348 25.792C100.73 25.5893 100.244 25.3387 99.8924 25.04L100.404 24.144C100.746 24.4 101.183 24.624 101.716 24.816C102.25 24.9973 102.81 25.088 103.396 25.088C104.196 25.088 104.772 24.9653 105.124 24.72C105.476 24.464 105.652 24.128 105.652 23.712C105.652 23.4027 105.551 23.1627 105.348 22.992C105.156 22.8107 104.9 22.6773 104.58 22.592C104.26 22.496 103.903 22.416 103.508 22.352C103.114 22.288 102.719 22.2133 102.324 22.128C101.94 22.0427 101.588 21.92 101.268 21.76C100.948 21.5893 100.687 21.36 100.484 21.072C100.292 20.784 100.196 20.4 100.196 19.92C100.196 19.4613 100.324 19.0507 100.58 18.688C100.836 18.3253 101.21 18.0427 101.7 17.84C102.202 17.6267 102.81 17.52 103.524 17.52C104.068 17.52 104.612 17.5947 105.156 17.744C105.7 17.8827 106.148 18.0693 106.5 18.304L106.004 19.216C105.631 18.96 105.231 18.7787 104.804 18.672C104.378 18.5547 103.951 18.496 103.524 18.496C102.767 18.496 102.207 18.6293 101.844 18.896C101.492 19.152 101.316 19.4827 101.316 19.888C101.316 20.208 101.412 20.4587 101.604 20.64C101.807 20.8213 102.068 20.9653 102.388 21.072C102.719 21.168 103.076 21.248 103.46 21.312C103.855 21.376 104.244 21.456 104.628 21.552C105.023 21.6373 105.38 21.76 105.7 21.92C106.031 22.0693 106.292 22.288 106.484 22.576C106.687 22.8533 106.788 23.2213 106.788 23.68C106.788 24.1707 106.65 24.5973 106.372 24.96C106.106 25.312 105.711 25.5893 105.188 25.792C104.676 25.984 104.052 26.08 103.316 26.08ZM111.529 26.08C110.74 26.08 110.132 25.8667 109.705 25.44C109.278 25.0133 109.065 24.4107 109.065 23.632V15.744H110.201V23.568C110.201 24.0587 110.324 24.4373 110.569 24.704C110.825 24.9707 111.188 25.104 111.657 25.104C112.158 25.104 112.574 24.96 112.905 24.672L113.305 25.488C113.081 25.6907 112.809 25.84 112.489 25.936C112.18 26.032 111.86 26.08 111.529 26.08ZM107.561 18.544V17.6H112.761V18.544H107.561Z" fill="#FCFDF6"/>
</svg>
