<svg width="140" height="40" viewBox="0 0 140 40" fill="none" xmlns="http://www.w3.org/2000/svg">
<rect x="0.697266" y="0.5" width="138" height="39" rx="7.5" fill="#FCFDF6" fill-opacity="0.8"/>
<rect x="0.697266" y="0.5" width="138" height="39" rx="7.5" stroke="#717171"/>
<path d="M27.6838 19.456H33.2518V21.168H27.6838V19.456ZM27.8438 24.256H34.1638V26H25.7638V14.8H33.9398V16.544H27.8438V24.256ZM39.8284 26.112C39.0071 26.112 38.2657 25.9307 37.6044 25.568C36.9537 25.1947 36.4417 24.6827 36.0684 24.032C35.6951 23.3813 35.5084 22.6133 35.5084 21.728C35.5084 20.8427 35.6951 20.0747 36.0684 19.424C36.4417 18.7733 36.9537 18.2667 37.6044 17.904C38.2657 17.5413 39.0071 17.36 39.8284 17.36C40.5431 17.36 41.1831 17.52 41.7484 17.84C42.3137 18.1493 42.7617 18.624 43.0924 19.264C43.4231 19.904 43.5884 20.7253 43.5884 21.728C43.5884 22.72 43.4284 23.5413 43.1084 24.192C42.7884 24.832 42.3457 25.312 41.7804 25.632C41.2151 25.952 40.5644 26.112 39.8284 26.112ZM40.0684 24.4C40.5484 24.4 40.9751 24.2933 41.3484 24.08C41.7324 23.8667 42.0364 23.5573 42.2604 23.152C42.4951 22.7467 42.6124 22.272 42.6124 21.728C42.6124 21.1733 42.4951 20.6987 42.2604 20.304C42.0364 19.8987 41.7324 19.5893 41.3484 19.376C40.9751 19.1627 40.5484 19.056 40.0684 19.056C39.5884 19.056 39.1564 19.1627 38.7724 19.376C38.3991 19.5893 38.0951 19.8987 37.8604 20.304C37.6364 20.6987 37.5244 21.1733 37.5244 21.728C37.5244 22.272 37.6364 22.7467 37.8604 23.152C38.0951 23.5573 38.3991 23.8667 38.7724 24.08C39.1564 24.2933 39.5884 24.4 40.0684 24.4ZM42.6604 26V23.984L42.7404 21.712L42.5804 19.44V14.128H44.5644V26H42.6604ZM47.1968 26V17.456H49.1968V26H47.1968ZM48.2048 16.048C47.8314 16.048 47.5221 15.9307 47.2768 15.696C47.0421 15.4613 46.9248 15.1787 46.9248 14.848C46.9248 14.5067 47.0421 14.224 47.2768 14C47.5221 13.7653 47.8314 13.648 48.2048 13.648C48.5781 13.648 48.8821 13.76 49.1168 13.984C49.3621 14.1973 49.4848 14.4693 49.4848 14.8C49.4848 15.152 49.3674 15.4507 49.1328 15.696C48.8981 15.9307 48.5888 16.048 48.2048 16.048ZM55.0378 26.112C54.0991 26.112 53.3738 25.872 52.8618 25.392C52.3498 24.9013 52.0938 24.1813 52.0938 23.232V15.568H54.0938V23.184C54.0938 23.5893 54.1951 23.904 54.3978 24.128C54.6111 24.352 54.9044 24.464 55.2778 24.464C55.7258 24.464 56.0991 24.3467 56.3978 24.112L56.9578 25.536C56.7231 25.728 56.4351 25.872 56.0938 25.968C55.7524 26.064 55.4004 26.112 55.0378 26.112ZM50.6858 19.12V17.52H56.3818V19.12H50.6858ZM63.2169 26V14.8H67.8249C68.8169 14.8 69.6649 14.96 70.3689 15.28C71.0836 15.6 71.6329 16.0587 72.0169 16.656C72.4009 17.2533 72.5929 17.9627 72.5929 18.784C72.5929 19.6053 72.4009 20.3147 72.0169 20.912C71.6329 21.5093 71.0836 21.968 70.3689 22.288C69.6649 22.608 68.8169 22.768 67.8249 22.768H64.3689L65.2969 21.792V26H63.2169ZM65.2969 22.016L64.3689 21.008H67.7289C68.6462 21.008 69.3342 20.816 69.7929 20.432C70.2622 20.0373 70.4969 19.488 70.4969 18.784C70.4969 18.0693 70.2622 17.52 69.7929 17.136C69.3342 16.752 68.6462 16.56 67.7289 16.56H64.3689L65.2969 15.536V22.016ZM74.3999 26V17.456H76.3039V19.808L76.0799 19.12C76.3359 18.544 76.7359 18.1067 77.2799 17.808C77.8346 17.5093 78.5226 17.36 79.3439 17.36V19.264C79.2586 19.2427 79.1786 19.232 79.1039 19.232C79.0292 19.2213 78.9546 19.216 78.8799 19.216C78.1226 19.216 77.5199 19.44 77.0719 19.888C76.6239 20.3253 76.3999 20.9813 76.3999 21.856V26H74.3999ZM84.8024 26.112C83.9277 26.112 83.1491 25.9253 82.4664 25.552C81.7837 25.168 81.2451 24.6453 80.8504 23.984C80.4557 23.3227 80.2584 22.5707 80.2584 21.728C80.2584 20.8747 80.4557 20.1227 80.8504 19.472C81.2451 18.8107 81.7837 18.2933 82.4664 17.92C83.1491 17.5467 83.9277 17.36 84.8024 17.36C85.6877 17.36 86.4717 17.5467 87.1544 17.92C87.8477 18.2933 88.3864 18.8053 88.7704 19.456C89.1651 20.1067 89.3624 20.864 89.3624 21.728C89.3624 22.5707 89.1651 23.3227 88.7704 23.984C88.3864 24.6453 87.8477 25.168 87.1544 25.552C86.4717 25.9253 85.6877 26.112 84.8024 26.112ZM84.8024 24.4C85.2931 24.4 85.7304 24.2933 86.1144 24.08C86.4984 23.8667 86.7971 23.5573 87.0104 23.152C87.2344 22.7467 87.3464 22.272 87.3464 21.728C87.3464 21.1733 87.2344 20.6987 87.0104 20.304C86.7971 19.8987 86.4984 19.5893 86.1144 19.376C85.7304 19.1627 85.2984 19.056 84.8184 19.056C84.3277 19.056 83.8904 19.1627 83.5064 19.376C83.1331 19.5893 82.8344 19.8987 82.6104 20.304C82.3864 20.6987 82.2744 21.1733 82.2744 21.728C82.2744 22.272 82.3864 22.7467 82.6104 23.152C82.8344 23.5573 83.1331 23.8667 83.5064 24.08C83.8904 24.2933 84.3224 24.4 84.8024 24.4ZM91.5469 26V16.976C91.5469 16.08 91.8082 15.3653 92.3309 14.832C92.8642 14.288 93.6216 14.016 94.6029 14.016C94.9549 14.016 95.2856 14.0533 95.5949 14.128C95.9149 14.2027 96.1816 14.32 96.3949 14.48L95.8509 15.984C95.7016 15.8667 95.5309 15.7813 95.3389 15.728C95.1469 15.664 94.9496 15.632 94.7469 15.632C94.3309 15.632 94.0162 15.7493 93.8029 15.984C93.5896 16.208 93.4829 16.5493 93.4829 17.008V17.968L93.5469 18.864V26H91.5469ZM90.1389 19.12V17.52H95.8349V19.12H90.1389ZM97.2429 26V17.456H99.2429V26H97.2429ZM98.2509 16.048C97.8776 16.048 97.5682 15.9307 97.3229 15.696C97.0882 15.4613 96.9709 15.1787 96.9709 14.848C96.9709 14.5067 97.0882 14.224 97.3229 14C97.5682 13.7653 97.8776 13.648 98.2509 13.648C98.6242 13.648 98.9282 13.76 99.1629 13.984C99.4082 14.1973 99.5309 14.4693 99.5309 14.8C99.5309 15.152 99.4136 15.4507 99.1789 15.696C98.9442 15.9307 98.6349 16.048 98.2509 16.048ZM101.869 26V14.128H103.869V26H101.869ZM110.51 26.112C109.56 26.112 108.728 25.9253 108.014 25.552C107.31 25.168 106.76 24.6453 106.366 23.984C105.982 23.3227 105.79 22.5707 105.79 21.728C105.79 20.8747 105.976 20.1227 106.35 19.472C106.734 18.8107 107.256 18.2933 107.918 17.92C108.59 17.5467 109.352 17.36 110.206 17.36C111.038 17.36 111.779 17.5413 112.43 17.904C113.08 18.2667 113.592 18.7787 113.966 19.44C114.339 20.1013 114.526 20.88 114.526 21.776C114.526 21.8613 114.52 21.9573 114.51 22.064C114.51 22.1707 114.504 22.272 114.494 22.368H107.374V21.04H113.438L112.654 21.456C112.664 20.9653 112.563 20.5333 112.35 20.16C112.136 19.7867 111.843 19.4933 111.47 19.28C111.107 19.0667 110.686 18.96 110.206 18.96C109.715 18.96 109.283 19.0667 108.91 19.28C108.547 19.4933 108.259 19.792 108.046 20.176C107.843 20.5493 107.742 20.992 107.742 21.504V21.824C107.742 22.336 107.859 22.7893 108.094 23.184C108.328 23.5787 108.659 23.8827 109.086 24.096C109.512 24.3093 110.003 24.416 110.558 24.416C111.038 24.416 111.47 24.3413 111.854 24.192C112.238 24.0427 112.579 23.808 112.878 23.488L113.95 24.72C113.566 25.168 113.08 25.5147 112.494 25.76C111.918 25.9947 111.256 26.112 110.51 26.112Z" fill="#1C1C1C"/>
</svg>
