<svg width="266" height="741" viewBox="0 0 266 741" fill="none" xmlns="http://www.w3.org/2000/svg">
<g filter="url(#filter0_d_662_3122)">
<rect width="250" height="725" transform="translate(8 9)" fill="#FCFDF6"/>
<path d="M69 60.5H64C63.4477 60.5 63 60.0523 63 59.5V47.9891C63 47.6805 63.1425 47.3892 63.3861 47.1997L71.3861 40.9775C71.7472 40.6966 72.2528 40.6966 72.6139 40.9775L80.6139 47.1997C80.8575 47.3892 81 47.6805 81 47.9891V59.5C81 60.0523 80.5523 60.5 80 60.5H75M69 60.5V51C69 50.4477 69.4477 50 70 50H74C74.5523 50 75 50.4477 75 51V60.5M69 60.5H75" stroke="#1C1C1C" stroke-width="2" stroke-linecap="round"/>
<path d="M113.376 47.8H115.456V59H113.376V47.8ZM107.584 59H105.504V47.8H107.584V59ZM113.536 54.2H107.408V52.424H113.536V54.2ZM122.105 59.112C121.23 59.112 120.452 58.9253 119.769 58.552C119.086 58.168 118.548 57.6453 118.153 56.984C117.758 56.3227 117.561 55.5707 117.561 54.728C117.561 53.8747 117.758 53.1227 118.153 52.472C118.548 51.8107 119.086 51.2933 119.769 50.92C120.452 50.5467 121.23 50.36 122.105 50.36C122.99 50.36 123.774 50.5467 124.457 50.92C125.15 51.2933 125.689 51.8053 126.073 52.456C126.468 53.1067 126.665 53.864 126.665 54.728C126.665 55.5707 126.468 56.3227 126.073 56.984C125.689 57.6453 125.15 58.168 124.457 58.552C123.774 58.9253 122.99 59.112 122.105 59.112ZM122.105 57.4C122.596 57.4 123.033 57.2933 123.417 57.08C123.801 56.8667 124.1 56.5573 124.313 56.152C124.537 55.7467 124.649 55.272 124.649 54.728C124.649 54.1733 124.537 53.6987 124.313 53.304C124.1 52.8987 123.801 52.5893 123.417 52.376C123.033 52.1627 122.601 52.056 122.121 52.056C121.63 52.056 121.193 52.1627 120.809 52.376C120.436 52.5893 120.137 52.8987 119.913 53.304C119.689 53.6987 119.577 54.1733 119.577 54.728C119.577 55.272 119.689 55.7467 119.913 56.152C120.137 56.5573 120.436 56.8667 120.809 57.08C121.193 57.2933 121.625 57.4 122.105 57.4ZM139.362 50.36C140.044 50.36 140.647 50.4933 141.17 50.76C141.703 51.0267 142.119 51.4373 142.418 51.992C142.716 52.536 142.866 53.24 142.866 54.104V59H140.866V54.36C140.866 53.6027 140.7 53.0373 140.37 52.664C140.039 52.2907 139.564 52.104 138.946 52.104C138.508 52.104 138.119 52.2 137.778 52.392C137.447 52.584 137.186 52.8667 136.994 53.24C136.812 53.6133 136.722 54.088 136.722 54.664V59H134.722V54.36C134.722 53.6027 134.556 53.0373 134.226 52.664C133.895 52.2907 133.42 52.104 132.802 52.104C132.364 52.104 131.975 52.2 131.634 52.392C131.303 52.584 131.042 52.8667 130.85 53.24C130.668 53.6133 130.578 54.088 130.578 54.664V59H128.578V50.456H130.482V52.728L130.146 52.056C130.434 51.5013 130.85 51.08 131.394 50.792C131.948 50.504 132.578 50.36 133.282 50.36C134.082 50.36 134.775 50.5573 135.362 50.952C135.959 51.3467 136.354 51.944 136.546 52.744L135.762 52.472C136.039 51.832 136.498 51.32 137.138 50.936C137.778 50.552 138.519 50.36 139.362 50.36ZM149.453 59.112C148.504 59.112 147.672 58.9253 146.957 58.552C146.253 58.168 145.704 57.6453 145.309 56.984C144.925 56.3227 144.733 55.5707 144.733 54.728C144.733 53.8747 144.92 53.1227 145.293 52.472C145.677 51.8107 146.2 51.2933 146.861 50.92C147.533 50.5467 148.296 50.36 149.149 50.36C149.981 50.36 150.722 50.5413 151.373 50.904C152.024 51.2667 152.536 51.7787 152.909 52.44C153.282 53.1013 153.469 53.88 153.469 54.776C153.469 54.8613 153.464 54.9573 153.453 55.064C153.453 55.1707 153.448 55.272 153.437 55.368H146.317V54.04H152.381L151.597 54.456C151.608 53.9653 151.506 53.5333 151.293 53.16C151.08 52.7867 150.786 52.4933 150.413 52.28C150.05 52.0667 149.629 51.96 149.149 51.96C148.658 51.96 148.226 52.0667 147.853 52.28C147.49 52.4933 147.202 52.792 146.989 53.176C146.786 53.5493 146.685 53.992 146.685 54.504V54.824C146.685 55.336 146.802 55.7893 147.037 56.184C147.272 56.5787 147.602 56.8827 148.029 57.096C148.456 57.3093 148.946 57.416 149.501 57.416C149.981 57.416 150.413 57.3413 150.797 57.192C151.181 57.0427 151.522 56.808 151.821 56.488L152.893 57.72C152.509 58.168 152.024 58.5147 151.437 58.76C150.861 58.9947 150.2 59.112 149.453 59.112Z" fill="black"/>
<path fill-rule="evenodd" clip-rule="evenodd" d="M74.25 112.25C74.25 114.735 72.2353 116.75 69.75 116.75C67.2647 116.75 65.25 114.735 65.25 112.25C65.25 109.765 67.2647 107.75 69.75 107.75C72.2353 107.75 74.25 109.765 74.25 112.25ZM73.5847 117.499C72.5097 118.286 71.1841 118.75 69.75 118.75C66.1601 118.75 63.25 115.84 63.25 112.25C63.25 108.66 66.1601 105.75 69.75 105.75C73.3399 105.75 76.25 108.66 76.25 112.25C76.25 113.684 75.7856 115.01 74.9989 116.085L80.4571 121.543C80.8476 121.933 80.8476 122.567 80.4571 122.957C80.0666 123.348 79.4334 123.348 79.0429 122.957L73.5847 117.499Z" fill="#1C1C1C"/>
<path d="M108.976 123.16C108.101 123.16 107.264 123.037 106.464 122.792C105.664 122.536 105.029 122.211 104.56 121.816L105.28 120.2C105.728 120.552 106.283 120.845 106.944 121.08C107.605 121.315 108.283 121.432 108.976 121.432C109.563 121.432 110.037 121.368 110.4 121.24C110.763 121.112 111.029 120.941 111.2 120.728C111.371 120.504 111.456 120.253 111.456 119.976C111.456 119.635 111.333 119.363 111.088 119.16C110.843 118.947 110.523 118.781 110.128 118.664C109.744 118.536 109.312 118.419 108.832 118.312C108.363 118.205 107.888 118.083 107.408 117.944C106.939 117.795 106.507 117.608 106.112 117.384C105.728 117.149 105.413 116.84 105.168 116.456C104.923 116.072 104.8 115.581 104.8 114.984C104.8 114.376 104.96 113.821 105.28 113.32C105.611 112.808 106.107 112.403 106.768 112.104C107.44 111.795 108.288 111.64 109.312 111.64C109.984 111.64 110.651 111.725 111.312 111.896C111.973 112.067 112.549 112.312 113.04 112.632L112.384 114.248C111.883 113.949 111.365 113.731 110.832 113.592C110.299 113.443 109.787 113.368 109.296 113.368C108.72 113.368 108.251 113.437 107.888 113.576C107.536 113.715 107.275 113.896 107.104 114.12C106.944 114.344 106.864 114.6 106.864 114.888C106.864 115.229 106.981 115.507 107.216 115.72C107.461 115.923 107.776 116.083 108.16 116.2C108.555 116.317 108.992 116.435 109.472 116.552C109.952 116.659 110.427 116.781 110.896 116.92C111.376 117.059 111.808 117.24 112.192 117.464C112.587 117.688 112.901 117.992 113.136 118.376C113.381 118.76 113.504 119.245 113.504 119.832C113.504 120.429 113.339 120.984 113.008 121.496C112.688 121.997 112.192 122.403 111.52 122.712C110.848 123.011 110 123.16 108.976 123.16ZM119.391 123.112C118.441 123.112 117.609 122.925 116.895 122.552C116.191 122.168 115.641 121.645 115.247 120.984C114.863 120.323 114.671 119.571 114.671 118.728C114.671 117.875 114.857 117.123 115.231 116.472C115.615 115.811 116.137 115.293 116.799 114.92C117.471 114.547 118.233 114.36 119.087 114.36C119.919 114.36 120.66 114.541 121.311 114.904C121.961 115.267 122.473 115.779 122.847 116.44C123.22 117.101 123.407 117.88 123.407 118.776C123.407 118.861 123.401 118.957 123.391 119.064C123.391 119.171 123.385 119.272 123.375 119.368H116.255V118.04H122.319L121.535 118.456C121.545 117.965 121.444 117.533 121.231 117.16C121.017 116.787 120.724 116.493 120.351 116.28C119.988 116.067 119.567 115.96 119.087 115.96C118.596 115.96 118.164 116.067 117.791 116.28C117.428 116.493 117.14 116.792 116.927 117.176C116.724 117.549 116.623 117.992 116.623 118.504V118.824C116.623 119.336 116.74 119.789 116.975 120.184C117.209 120.579 117.54 120.883 117.967 121.096C118.393 121.309 118.884 121.416 119.439 121.416C119.919 121.416 120.351 121.341 120.735 121.192C121.119 121.043 121.46 120.808 121.759 120.488L122.831 121.72C122.447 122.168 121.961 122.515 121.375 122.76C120.799 122.995 120.137 123.112 119.391 123.112ZM130.357 123V121.272L130.245 120.904V117.88C130.245 117.293 130.069 116.84 129.717 116.52C129.365 116.189 128.832 116.024 128.117 116.024C127.637 116.024 127.163 116.099 126.693 116.248C126.235 116.397 125.845 116.605 125.525 116.872L124.741 115.416C125.2 115.064 125.744 114.803 126.373 114.632C127.013 114.451 127.675 114.36 128.357 114.36C129.595 114.36 130.549 114.659 131.221 115.256C131.904 115.843 132.245 116.755 132.245 117.992V123H130.357ZM127.669 123.112C127.029 123.112 126.469 123.005 125.989 122.792C125.509 122.568 125.136 122.264 124.869 121.88C124.613 121.485 124.485 121.043 124.485 120.552C124.485 120.072 124.597 119.64 124.821 119.256C125.056 118.872 125.435 118.568 125.957 118.344C126.48 118.12 127.173 118.008 128.037 118.008H130.517V119.336H128.181C127.499 119.336 127.04 119.448 126.805 119.672C126.571 119.885 126.453 120.152 126.453 120.472C126.453 120.835 126.597 121.123 126.885 121.336C127.173 121.549 127.573 121.656 128.085 121.656C128.576 121.656 129.013 121.544 129.397 121.32C129.792 121.096 130.075 120.765 130.245 120.328L130.581 121.528C130.389 122.029 130.043 122.419 129.541 122.696C129.051 122.973 128.427 123.112 127.669 123.112ZM134.812 123V114.456H136.716V116.808L136.492 116.12C136.748 115.544 137.148 115.107 137.692 114.808C138.247 114.509 138.935 114.36 139.756 114.36V116.264C139.671 116.243 139.591 116.232 139.516 116.232C139.441 116.221 139.367 116.216 139.292 116.216C138.535 116.216 137.932 116.44 137.484 116.888C137.036 117.325 136.812 117.981 136.812 118.856V123H134.812ZM145.295 123.112C144.399 123.112 143.599 122.925 142.895 122.552C142.201 122.168 141.657 121.645 141.263 120.984C140.868 120.323 140.671 119.571 140.671 118.728C140.671 117.875 140.868 117.123 141.263 116.472C141.657 115.811 142.201 115.293 142.895 114.92C143.599 114.547 144.399 114.36 145.295 114.36C146.127 114.36 146.857 114.531 147.487 114.872C148.127 115.203 148.612 115.693 148.943 116.344L147.407 117.24C147.151 116.835 146.836 116.536 146.463 116.344C146.1 116.152 145.705 116.056 145.279 116.056C144.788 116.056 144.345 116.163 143.951 116.376C143.556 116.589 143.247 116.899 143.023 117.304C142.799 117.699 142.687 118.173 142.687 118.728C142.687 119.283 142.799 119.763 143.023 120.168C143.247 120.563 143.556 120.867 143.951 121.08C144.345 121.293 144.788 121.4 145.279 121.4C145.705 121.4 146.1 121.304 146.463 121.112C146.836 120.92 147.151 120.621 147.407 120.216L148.943 121.112C148.612 121.752 148.127 122.248 147.487 122.6C146.857 122.941 146.127 123.112 145.295 123.112ZM155.441 114.36C156.124 114.36 156.732 114.493 157.265 114.76C157.809 115.027 158.236 115.437 158.545 115.992C158.855 116.536 159.009 117.24 159.009 118.104V123H157.009V118.36C157.009 117.603 156.828 117.037 156.465 116.664C156.113 116.291 155.617 116.104 154.977 116.104C154.508 116.104 154.092 116.2 153.729 116.392C153.367 116.584 153.084 116.872 152.881 117.256C152.689 117.629 152.593 118.104 152.593 118.68V123H150.593V111.128H152.593V116.76L152.161 116.056C152.46 115.512 152.892 115.096 153.457 114.808C154.033 114.509 154.695 114.36 155.441 114.36Z" fill="black"/>
<path fill-rule="evenodd" clip-rule="evenodd" d="M76.8444 176.549C77.0406 179.642 77.6722 182.381 78.9193 185.5H65.1037C66.3712 182.452 67.0275 179.746 67.217 176.684C67.4012 173.708 69.5536 171.5 72.0564 171.5C74.534 171.5 76.6606 173.652 76.8444 176.549ZM65.2208 176.561C65.455 172.777 68.2658 169.5 72.0564 169.5C75.7953 169.5 78.6036 172.691 78.8404 176.423C79.0477 179.69 79.7726 182.535 81.3232 186.058C81.6194 186.731 81.1359 187.5 80.4006 187.5H63.5997C62.8572 187.5 62.3739 186.717 62.6834 186.042C64.2653 182.593 65.0211 179.788 65.2208 176.561ZM70.9555 189.757C70.8215 189.222 70.2786 188.896 69.7428 189.03C69.207 189.164 68.8812 189.707 69.0152 190.243C69.3983 191.775 70.7479 192.5 71.9853 192.5C73.2227 192.5 74.5724 191.775 74.9555 190.243C75.0894 189.707 74.7637 189.164 74.2279 189.03C73.6921 188.896 73.1491 189.222 73.0152 189.757C72.8983 190.225 72.4979 190.5 71.9853 190.5C71.4727 190.5 71.0724 190.225 70.9555 189.757Z" fill="#1C1C1C"/>
<path d="M105.504 187V175.8H107.216L114.24 184.424H113.392V175.8H115.456V187H113.744L106.72 178.376H107.568V187H105.504ZM122.105 187.112C121.23 187.112 120.452 186.925 119.769 186.552C119.086 186.168 118.548 185.645 118.153 184.984C117.758 184.323 117.561 183.571 117.561 182.728C117.561 181.875 117.758 181.123 118.153 180.472C118.548 179.811 119.086 179.293 119.769 178.92C120.452 178.547 121.23 178.36 122.105 178.36C122.99 178.36 123.774 178.547 124.457 178.92C125.15 179.293 125.689 179.805 126.073 180.456C126.468 181.107 126.665 181.864 126.665 182.728C126.665 183.571 126.468 184.323 126.073 184.984C125.689 185.645 125.15 186.168 124.457 186.552C123.774 186.925 122.99 187.112 122.105 187.112ZM122.105 185.4C122.596 185.4 123.033 185.293 123.417 185.08C123.801 184.867 124.1 184.557 124.313 184.152C124.537 183.747 124.649 183.272 124.649 182.728C124.649 182.173 124.537 181.699 124.313 181.304C124.1 180.899 123.801 180.589 123.417 180.376C123.033 180.163 122.601 180.056 122.121 180.056C121.63 180.056 121.193 180.163 120.809 180.376C120.436 180.589 120.137 180.899 119.913 181.304C119.689 181.699 119.577 182.173 119.577 182.728C119.577 183.272 119.689 183.747 119.913 184.152C120.137 184.557 120.436 184.867 120.809 185.08C121.193 185.293 121.625 185.4 122.105 185.4ZM131.794 187.112C130.855 187.112 130.13 186.872 129.618 186.392C129.106 185.901 128.85 185.181 128.85 184.232V176.568H130.85V184.184C130.85 184.589 130.951 184.904 131.154 185.128C131.367 185.352 131.66 185.464 132.034 185.464C132.482 185.464 132.855 185.347 133.154 185.112L133.714 186.536C133.479 186.728 133.191 186.872 132.85 186.968C132.508 187.064 132.156 187.112 131.794 187.112ZM127.442 180.12V178.52H133.138V180.12H127.442ZM135.359 187V178.456H137.359V187H135.359ZM136.367 177.048C135.994 177.048 135.684 176.931 135.439 176.696C135.204 176.461 135.087 176.179 135.087 175.848C135.087 175.507 135.204 175.224 135.439 175C135.684 174.765 135.994 174.648 136.367 174.648C136.74 174.648 137.044 174.76 137.279 174.984C137.524 175.197 137.647 175.469 137.647 175.8C137.647 176.152 137.53 176.451 137.295 176.696C137.06 176.931 136.751 177.048 136.367 177.048ZM140.256 187V177.976C140.256 177.08 140.517 176.365 141.04 175.832C141.573 175.288 142.331 175.016 143.312 175.016C143.664 175.016 143.995 175.053 144.304 175.128C144.624 175.203 144.891 175.32 145.104 175.48L144.56 176.984C144.411 176.867 144.24 176.781 144.048 176.728C143.856 176.664 143.659 176.632 143.456 176.632C143.04 176.632 142.725 176.749 142.512 176.984C142.299 177.208 142.192 177.549 142.192 178.008V178.968L142.256 179.864V187H140.256ZM138.848 180.12V178.52H144.544V180.12H138.848ZM145.952 187V178.456H147.952V187H145.952ZM146.96 177.048C146.587 177.048 146.277 176.931 146.032 176.696C145.797 176.461 145.68 176.179 145.68 175.848C145.68 175.507 145.797 175.224 146.032 175C146.277 174.765 146.587 174.648 146.96 174.648C147.333 174.648 147.637 174.76 147.872 174.984C148.117 175.197 148.24 175.469 148.24 175.8C148.24 176.152 148.123 176.451 147.888 176.696C147.653 176.931 147.344 177.048 146.96 177.048ZM154.498 187.112C153.602 187.112 152.802 186.925 152.098 186.552C151.404 186.168 150.86 185.645 150.466 184.984C150.071 184.323 149.874 183.571 149.874 182.728C149.874 181.875 150.071 181.123 150.466 180.472C150.86 179.811 151.404 179.293 152.098 178.92C152.802 178.547 153.602 178.36 154.498 178.36C155.33 178.36 156.06 178.531 156.69 178.872C157.33 179.203 157.815 179.693 158.146 180.344L156.61 181.24C156.354 180.835 156.039 180.536 155.666 180.344C155.303 180.152 154.908 180.056 154.482 180.056C153.991 180.056 153.548 180.163 153.154 180.376C152.759 180.589 152.45 180.899 152.226 181.304C152.002 181.699 151.89 182.173 151.89 182.728C151.89 183.283 152.002 183.763 152.226 184.168C152.45 184.563 152.759 184.867 153.154 185.08C153.548 185.293 153.991 185.4 154.482 185.4C154.908 185.4 155.303 185.304 155.666 185.112C156.039 184.92 156.354 184.621 156.61 184.216L158.146 185.112C157.815 185.752 157.33 186.248 156.69 186.6C156.06 186.941 155.33 187.112 154.498 187.112ZM165.139 187V185.272L165.027 184.904V181.88C165.027 181.293 164.851 180.84 164.499 180.52C164.147 180.189 163.613 180.024 162.899 180.024C162.419 180.024 161.944 180.099 161.475 180.248C161.016 180.397 160.627 180.605 160.307 180.872L159.523 179.416C159.981 179.064 160.525 178.803 161.155 178.632C161.795 178.451 162.456 178.36 163.139 178.36C164.376 178.36 165.331 178.659 166.003 179.256C166.685 179.843 167.027 180.755 167.027 181.992V187H165.139ZM162.451 187.112C161.811 187.112 161.251 187.005 160.771 186.792C160.291 186.568 159.917 186.264 159.651 185.88C159.395 185.485 159.267 185.043 159.267 184.552C159.267 184.072 159.379 183.64 159.603 183.256C159.837 182.872 160.216 182.568 160.739 182.344C161.261 182.12 161.955 182.008 162.819 182.008H165.299V183.336H162.963C162.28 183.336 161.821 183.448 161.587 183.672C161.352 183.885 161.235 184.152 161.235 184.472C161.235 184.835 161.379 185.123 161.667 185.336C161.955 185.549 162.355 185.656 162.867 185.656C163.357 185.656 163.795 185.544 164.179 185.32C164.573 185.096 164.856 184.765 165.027 184.328L165.363 185.528C165.171 186.029 164.824 186.419 164.323 186.696C163.832 186.973 163.208 187.112 162.451 187.112ZM172.809 187.112C171.871 187.112 171.145 186.872 170.633 186.392C170.121 185.901 169.865 185.181 169.865 184.232V176.568H171.865V184.184C171.865 184.589 171.967 184.904 172.169 185.128C172.383 185.352 172.676 185.464 173.049 185.464C173.497 185.464 173.871 185.347 174.169 185.112L174.729 186.536C174.495 186.728 174.207 186.872 173.865 186.968C173.524 187.064 173.172 187.112 172.809 187.112ZM168.457 180.12V178.52H174.153V180.12H168.457ZM176.375 187V178.456H178.375V187H176.375ZM177.383 177.048C177.009 177.048 176.7 176.931 176.455 176.696C176.22 176.461 176.103 176.179 176.103 175.848C176.103 175.507 176.22 175.224 176.455 175C176.7 174.765 177.009 174.648 177.383 174.648C177.756 174.648 178.06 174.76 178.295 174.984C178.54 175.197 178.663 175.469 178.663 175.8C178.663 176.152 178.545 176.451 178.311 176.696C178.076 176.931 177.767 177.048 177.383 177.048ZM184.84 187.112C183.965 187.112 183.186 186.925 182.504 186.552C181.821 186.168 181.282 185.645 180.888 184.984C180.493 184.323 180.296 183.571 180.296 182.728C180.296 181.875 180.493 181.123 180.888 180.472C181.282 179.811 181.821 179.293 182.504 178.92C183.186 178.547 183.965 178.36 184.84 178.36C185.725 178.36 186.509 178.547 187.192 178.92C187.885 179.293 188.424 179.805 188.808 180.456C189.202 181.107 189.4 181.864 189.4 182.728C189.4 183.571 189.202 184.323 188.808 184.984C188.424 185.645 187.885 186.168 187.192 186.552C186.509 186.925 185.725 187.112 184.84 187.112ZM184.84 185.4C185.33 185.4 185.768 185.293 186.152 185.08C186.536 184.867 186.834 184.557 187.048 184.152C187.272 183.747 187.384 183.272 187.384 182.728C187.384 182.173 187.272 181.699 187.048 181.304C186.834 180.899 186.536 180.589 186.152 180.376C185.768 180.163 185.336 180.056 184.856 180.056C184.365 180.056 183.928 180.163 183.544 180.376C183.17 180.589 182.872 180.899 182.648 181.304C182.424 181.699 182.312 182.173 182.312 182.728C182.312 183.272 182.424 183.747 182.648 184.152C182.872 184.557 183.17 184.867 183.544 185.08C183.928 185.293 184.36 185.4 184.84 185.4ZM196.16 178.36C196.843 178.36 197.451 178.493 197.984 178.76C198.528 179.027 198.955 179.437 199.264 179.992C199.573 180.536 199.728 181.24 199.728 182.104V187H197.728V182.36C197.728 181.603 197.547 181.037 197.184 180.664C196.832 180.291 196.336 180.104 195.696 180.104C195.227 180.104 194.811 180.2 194.448 180.392C194.085 180.584 193.803 180.872 193.6 181.256C193.408 181.629 193.312 182.104 193.312 182.68V187H191.312V178.456H193.216V180.76L192.88 180.056C193.179 179.512 193.611 179.096 194.176 178.808C194.752 178.509 195.413 178.36 196.16 178.36ZM204.905 187.112C204.19 187.112 203.502 187.021 202.841 186.84C202.19 186.648 201.673 186.419 201.289 186.152L202.057 184.632C202.441 184.877 202.9 185.08 203.433 185.24C203.966 185.4 204.5 185.48 205.033 185.48C205.662 185.48 206.116 185.395 206.393 185.224C206.681 185.053 206.825 184.824 206.825 184.536C206.825 184.301 206.729 184.125 206.537 184.008C206.345 183.88 206.094 183.784 205.785 183.72C205.476 183.656 205.129 183.597 204.745 183.544C204.372 183.491 203.993 183.421 203.609 183.336C203.236 183.24 202.894 183.107 202.585 182.936C202.276 182.755 202.025 182.515 201.833 182.216C201.641 181.917 201.545 181.523 201.545 181.032C201.545 180.488 201.7 180.019 202.009 179.624C202.318 179.219 202.75 178.909 203.305 178.696C203.87 178.472 204.537 178.36 205.305 178.36C205.881 178.36 206.462 178.424 207.049 178.552C207.636 178.68 208.121 178.861 208.505 179.096L207.737 180.616C207.332 180.371 206.921 180.205 206.505 180.12C206.1 180.024 205.694 179.976 205.289 179.976C204.681 179.976 204.228 180.067 203.929 180.248C203.641 180.429 203.497 180.659 203.497 180.936C203.497 181.192 203.593 181.384 203.785 181.512C203.977 181.64 204.228 181.741 204.537 181.816C204.846 181.891 205.188 181.955 205.561 182.008C205.945 182.051 206.324 182.12 206.697 182.216C207.07 182.312 207.412 182.445 207.721 182.616C208.041 182.776 208.297 183.005 208.489 183.304C208.681 183.603 208.777 183.992 208.777 184.472C208.777 185.005 208.617 185.469 208.297 185.864C207.988 186.259 207.545 186.568 206.969 186.792C206.393 187.005 205.705 187.112 204.905 187.112Z" fill="black"/>
<path fill-rule="evenodd" clip-rule="evenodd" d="M65 239.5C64.7348 239.5 64.4804 239.605 64.2929 239.793C64.1054 239.98 64 240.235 64 240.5V254.086L66.2929 251.793C66.4804 251.605 66.7348 251.5 67 251.5H79C79.2652 251.5 79.5196 251.395 79.7071 251.207C79.8946 251.02 80 250.765 80 250.5V240.5C80 240.235 79.8946 239.98 79.7071 239.793C79.5196 239.605 79.2652 239.5 79 239.5H65ZM62.8787 238.379C63.4413 237.816 64.2044 237.5 65 237.5H79C79.7957 237.5 80.5587 237.816 81.1213 238.379C81.6839 238.941 82 239.704 82 240.5V250.5C82 251.296 81.6839 252.059 81.1213 252.621C80.5587 253.184 79.7957 253.5 79 253.5H67.4142L63.7071 257.207C63.4211 257.493 62.991 257.579 62.6173 257.424C62.2436 257.269 62 256.904 62 256.5V240.5C62 239.704 62.3161 238.941 62.8787 238.379ZM66 243.5C66 242.948 66.4477 242.5 67 242.5H73C73.5523 242.5 74 242.948 74 243.5C74 244.052 73.5523 244.5 73 244.5H67C66.4477 244.5 66 244.052 66 243.5ZM67 246.5C66.4477 246.5 66 246.948 66 247.5C66 248.052 66.4477 248.5 67 248.5H77C77.5523 248.5 78 248.052 78 247.5C78 246.948 77.5523 246.5 77 246.5H67Z" fill="#1C1C1C"/>
<path d="M105.504 251V239.8H107.216L112.112 247.976H111.216L116.032 239.8H117.744L117.76 251H115.792L115.776 242.888H116.192L112.096 249.72H111.168L107.008 242.888H107.488V251H105.504ZM124.609 251.112C123.66 251.112 122.828 250.925 122.113 250.552C121.409 250.168 120.86 249.645 120.465 248.984C120.081 248.323 119.889 247.571 119.889 246.728C119.889 245.875 120.076 245.123 120.449 244.472C120.833 243.811 121.356 243.293 122.017 242.92C122.689 242.547 123.452 242.36 124.305 242.36C125.137 242.36 125.879 242.541 126.529 242.904C127.18 243.267 127.692 243.779 128.065 244.44C128.439 245.101 128.625 245.88 128.625 246.776C128.625 246.861 128.62 246.957 128.609 247.064C128.609 247.171 128.604 247.272 128.593 247.368H121.473V246.04H127.537L126.753 246.456C126.764 245.965 126.663 245.533 126.449 245.16C126.236 244.787 125.943 244.493 125.569 244.28C125.207 244.067 124.785 243.96 124.305 243.96C123.815 243.96 123.383 244.067 123.009 244.28C122.647 244.493 122.359 244.792 122.145 245.176C121.943 245.549 121.841 245.992 121.841 246.504V246.824C121.841 247.336 121.959 247.789 122.193 248.184C122.428 248.579 122.759 248.883 123.185 249.096C123.612 249.309 124.103 249.416 124.657 249.416C125.137 249.416 125.569 249.341 125.953 249.192C126.337 249.043 126.679 248.808 126.977 248.488L128.049 249.72C127.665 250.168 127.18 250.515 126.593 250.76C126.017 250.995 125.356 251.112 124.609 251.112ZM133.186 251.112C132.472 251.112 131.784 251.021 131.122 250.84C130.472 250.648 129.954 250.419 129.57 250.152L130.338 248.632C130.722 248.877 131.181 249.08 131.714 249.24C132.248 249.4 132.781 249.48 133.314 249.48C133.944 249.48 134.397 249.395 134.674 249.224C134.962 249.053 135.106 248.824 135.106 248.536C135.106 248.301 135.01 248.125 134.818 248.008C134.626 247.88 134.376 247.784 134.066 247.72C133.757 247.656 133.41 247.597 133.026 247.544C132.653 247.491 132.274 247.421 131.89 247.336C131.517 247.24 131.176 247.107 130.866 246.936C130.557 246.755 130.306 246.515 130.114 246.216C129.922 245.917 129.826 245.523 129.826 245.032C129.826 244.488 129.981 244.019 130.29 243.624C130.6 243.219 131.032 242.909 131.586 242.696C132.152 242.472 132.818 242.36 133.586 242.36C134.162 242.36 134.744 242.424 135.33 242.552C135.917 242.68 136.402 242.861 136.786 243.096L136.018 244.616C135.613 244.371 135.202 244.205 134.786 244.12C134.381 244.024 133.976 243.976 133.57 243.976C132.962 243.976 132.509 244.067 132.21 244.248C131.922 244.429 131.778 244.659 131.778 244.936C131.778 245.192 131.874 245.384 132.066 245.512C132.258 245.64 132.509 245.741 132.818 245.816C133.128 245.891 133.469 245.955 133.842 246.008C134.226 246.051 134.605 246.12 134.978 246.216C135.352 246.312 135.693 246.445 136.002 246.616C136.322 246.776 136.578 247.005 136.77 247.304C136.962 247.603 137.058 247.992 137.058 248.472C137.058 249.005 136.898 249.469 136.578 249.864C136.269 250.259 135.826 250.568 135.25 250.792C134.674 251.005 133.986 251.112 133.186 251.112ZM141.421 251.112C140.706 251.112 140.018 251.021 139.357 250.84C138.706 250.648 138.189 250.419 137.805 250.152L138.573 248.632C138.957 248.877 139.415 249.08 139.949 249.24C140.482 249.4 141.015 249.48 141.549 249.48C142.178 249.48 142.631 249.395 142.909 249.224C143.197 249.053 143.341 248.824 143.341 248.536C143.341 248.301 143.245 248.125 143.053 248.008C142.861 247.88 142.61 247.784 142.301 247.72C141.991 247.656 141.645 247.597 141.261 247.544C140.887 247.491 140.509 247.421 140.125 247.336C139.751 247.24 139.41 247.107 139.101 246.936C138.791 246.755 138.541 246.515 138.349 246.216C138.157 245.917 138.061 245.523 138.061 245.032C138.061 244.488 138.215 244.019 138.525 243.624C138.834 243.219 139.266 242.909 139.821 242.696C140.386 242.472 141.053 242.36 141.821 242.36C142.397 242.36 142.978 242.424 143.565 242.552C144.151 242.68 144.637 242.861 145.021 243.096L144.253 244.616C143.847 244.371 143.437 244.205 143.021 244.12C142.615 244.024 142.21 243.976 141.805 243.976C141.197 243.976 140.743 244.067 140.445 244.248C140.157 244.429 140.013 244.659 140.013 244.936C140.013 245.192 140.109 245.384 140.301 245.512C140.493 245.64 140.743 245.741 141.053 245.816C141.362 245.891 141.703 245.955 142.077 246.008C142.461 246.051 142.839 246.12 143.213 246.216C143.586 246.312 143.927 246.445 144.237 246.616C144.557 246.776 144.813 247.005 145.005 247.304C145.197 247.603 145.293 247.992 145.293 248.472C145.293 249.005 145.133 249.469 144.813 249.864C144.503 250.259 144.061 250.568 143.485 250.792C142.909 251.005 142.221 251.112 141.421 251.112ZM152.279 251V249.272L152.167 248.904V245.88C152.167 245.293 151.991 244.84 151.639 244.52C151.287 244.189 150.754 244.024 150.039 244.024C149.559 244.024 149.084 244.099 148.615 244.248C148.156 244.397 147.767 244.605 147.447 244.872L146.663 243.416C147.122 243.064 147.666 242.803 148.295 242.632C148.935 242.451 149.596 242.36 150.279 242.36C151.516 242.36 152.471 242.659 153.143 243.256C153.826 243.843 154.167 244.755 154.167 245.992V251H152.279ZM149.591 251.112C148.951 251.112 148.391 251.005 147.911 250.792C147.431 250.568 147.058 250.264 146.791 249.88C146.535 249.485 146.407 249.043 146.407 248.552C146.407 248.072 146.519 247.64 146.743 247.256C146.978 246.872 147.356 246.568 147.879 246.344C148.402 246.12 149.095 246.008 149.959 246.008H152.439V247.336H150.103C149.42 247.336 148.962 247.448 148.727 247.672C148.492 247.885 148.375 248.152 148.375 248.472C148.375 248.835 148.519 249.123 148.807 249.336C149.095 249.549 149.495 249.656 150.007 249.656C150.498 249.656 150.935 249.544 151.319 249.32C151.714 249.096 151.996 248.765 152.167 248.328L152.503 249.528C152.311 250.029 151.964 250.419 151.463 250.696C150.972 250.973 150.348 251.112 149.591 251.112ZM160.622 254.216C159.832 254.216 159.059 254.109 158.302 253.896C157.555 253.693 156.942 253.395 156.462 253L157.358 251.496C157.731 251.805 158.2 252.051 158.766 252.232C159.342 252.424 159.923 252.52 160.51 252.52C161.448 252.52 162.136 252.301 162.574 251.864C163.011 251.437 163.23 250.792 163.23 249.928V248.408L163.39 246.472L163.326 244.536V242.456H165.23V249.704C165.23 251.251 164.835 252.387 164.046 253.112C163.256 253.848 162.115 254.216 160.622 254.216ZM160.366 250.616C159.555 250.616 158.819 250.445 158.158 250.104C157.507 249.752 156.99 249.267 156.606 248.648C156.232 248.029 156.046 247.304 156.046 246.472C156.046 245.651 156.232 244.931 156.606 244.312C156.99 243.693 157.507 243.213 158.158 242.872C158.819 242.531 159.555 242.36 160.366 242.36C161.091 242.36 161.742 242.504 162.318 242.792C162.894 243.08 163.352 243.528 163.694 244.136C164.046 244.744 164.222 245.523 164.222 246.472C164.222 247.421 164.046 248.205 163.694 248.824C163.352 249.432 162.894 249.885 162.318 250.184C161.742 250.472 161.091 250.616 160.366 250.616ZM160.67 248.92C161.171 248.92 161.619 248.819 162.014 248.616C162.408 248.403 162.712 248.115 162.926 247.752C163.15 247.379 163.262 246.952 163.262 246.472C163.262 245.992 163.15 245.571 162.926 245.208C162.712 244.835 162.408 244.552 162.014 244.36C161.619 244.157 161.171 244.056 160.67 244.056C160.168 244.056 159.715 244.157 159.31 244.36C158.915 244.552 158.606 244.835 158.382 245.208C158.168 245.571 158.062 245.992 158.062 246.472C158.062 246.952 158.168 247.379 158.382 247.752C158.606 248.115 158.915 248.403 159.31 248.616C159.715 248.819 160.168 248.92 160.67 248.92ZM171.875 251.112C170.926 251.112 170.094 250.925 169.379 250.552C168.675 250.168 168.126 249.645 167.731 248.984C167.347 248.323 167.155 247.571 167.155 246.728C167.155 245.875 167.342 245.123 167.715 244.472C168.099 243.811 168.622 243.293 169.283 242.92C169.955 242.547 170.718 242.36 171.571 242.36C172.403 242.36 173.144 242.541 173.795 242.904C174.446 243.267 174.958 243.779 175.331 244.44C175.704 245.101 175.891 245.88 175.891 246.776C175.891 246.861 175.886 246.957 175.875 247.064C175.875 247.171 175.87 247.272 175.859 247.368H168.739V246.04H174.803L174.019 246.456C174.03 245.965 173.928 245.533 173.715 245.16C173.502 244.787 173.208 244.493 172.835 244.28C172.472 244.067 172.051 243.96 171.571 243.96C171.08 243.96 170.648 244.067 170.275 244.28C169.912 244.493 169.624 244.792 169.411 245.176C169.208 245.549 169.107 245.992 169.107 246.504V246.824C169.107 247.336 169.224 247.789 169.459 248.184C169.694 248.579 170.024 248.883 170.451 249.096C170.878 249.309 171.368 249.416 171.923 249.416C172.403 249.416 172.835 249.341 173.219 249.192C173.603 249.043 173.944 248.808 174.243 248.488L175.315 249.72C174.931 250.168 174.446 250.515 173.859 250.76C173.283 250.995 172.622 251.112 171.875 251.112ZM180.452 251.112C179.737 251.112 179.049 251.021 178.388 250.84C177.737 250.648 177.22 250.419 176.836 250.152L177.604 248.632C177.988 248.877 178.447 249.08 178.98 249.24C179.513 249.4 180.047 249.48 180.58 249.48C181.209 249.48 181.663 249.395 181.94 249.224C182.228 249.053 182.372 248.824 182.372 248.536C182.372 248.301 182.276 248.125 182.084 248.008C181.892 247.88 181.641 247.784 181.332 247.72C181.023 247.656 180.676 247.597 180.292 247.544C179.919 247.491 179.54 247.421 179.156 247.336C178.783 247.24 178.441 247.107 178.132 246.936C177.823 246.755 177.572 246.515 177.38 246.216C177.188 245.917 177.092 245.523 177.092 245.032C177.092 244.488 177.247 244.019 177.556 243.624C177.865 243.219 178.297 242.909 178.852 242.696C179.417 242.472 180.084 242.36 180.852 242.36C181.428 242.36 182.009 242.424 182.596 242.552C183.183 242.68 183.668 242.861 184.052 243.096L183.284 244.616C182.879 244.371 182.468 244.205 182.052 244.12C181.647 244.024 181.241 243.976 180.836 243.976C180.228 243.976 179.775 244.067 179.476 244.248C179.188 244.429 179.044 244.659 179.044 244.936C179.044 245.192 179.14 245.384 179.332 245.512C179.524 245.64 179.775 245.741 180.084 245.816C180.393 245.891 180.735 245.955 181.108 246.008C181.492 246.051 181.871 246.12 182.244 246.216C182.617 246.312 182.959 246.445 183.268 246.616C183.588 246.776 183.844 247.005 184.036 247.304C184.228 247.603 184.324 247.992 184.324 248.472C184.324 249.005 184.164 249.469 183.844 249.864C183.535 250.259 183.092 250.568 182.516 250.792C181.94 251.005 181.252 251.112 180.452 251.112Z" fill="black"/>
<circle cx="72" cy="306.5" r="10.5" stroke="#1C1C1C" stroke-width="2"/>
<circle cx="72.5" cy="305.5" r="3.5" stroke="#1C1C1C" stroke-width="2"/>
<path d="M67 315C67.0001 314.227 67.2988 313.753 67.8963 312.884C68.2754 312.334 68.9019 312 69.5706 312C71.2915 312 72.7419 312 75.4295 312C76.0982 312 76.7281 312.331 77.0926 312.892C77.6151 313.696 77.8023 314.091 78 315" stroke="#1C1C1C" stroke-width="2" stroke-linecap="round"/>
<rect x="62" y="320" width="20" height="3" rx="1.5" fill="#1C1C1C"/>
<path d="M103.92 315L108.96 303.8H111.008L116.064 315H113.888L109.552 304.904H110.384L106.064 315H103.92ZM106.24 312.408L106.8 310.776H112.848L113.408 312.408H106.24ZM121.138 315.112C120.242 315.112 119.442 314.925 118.738 314.552C118.045 314.168 117.501 313.645 117.106 312.984C116.712 312.323 116.514 311.571 116.514 310.728C116.514 309.875 116.712 309.123 117.106 308.472C117.501 307.811 118.045 307.293 118.738 306.92C119.442 306.547 120.242 306.36 121.138 306.36C121.97 306.36 122.701 306.531 123.33 306.872C123.97 307.203 124.456 307.693 124.786 308.344L123.25 309.24C122.994 308.835 122.68 308.536 122.306 308.344C121.944 308.152 121.549 308.056 121.122 308.056C120.632 308.056 120.189 308.163 119.794 308.376C119.4 308.589 119.09 308.899 118.866 309.304C118.642 309.699 118.53 310.173 118.53 310.728C118.53 311.283 118.642 311.763 118.866 312.168C119.09 312.563 119.4 312.867 119.794 313.08C120.189 313.293 120.632 313.4 121.122 313.4C121.549 313.4 121.944 313.304 122.306 313.112C122.68 312.92 122.994 312.621 123.25 312.216L124.786 313.112C124.456 313.752 123.97 314.248 123.33 314.6C122.701 314.941 121.97 315.112 121.138 315.112ZM130.31 315.112C129.414 315.112 128.614 314.925 127.91 314.552C127.217 314.168 126.673 313.645 126.278 312.984C125.883 312.323 125.686 311.571 125.686 310.728C125.686 309.875 125.883 309.123 126.278 308.472C126.673 307.811 127.217 307.293 127.91 306.92C128.614 306.547 129.414 306.36 130.31 306.36C131.142 306.36 131.873 306.531 132.502 306.872C133.142 307.203 133.627 307.693 133.958 308.344L132.422 309.24C132.166 308.835 131.851 308.536 131.478 308.344C131.115 308.152 130.721 308.056 130.294 308.056C129.803 308.056 129.361 308.163 128.966 308.376C128.571 308.589 128.262 308.899 128.038 309.304C127.814 309.699 127.702 310.173 127.702 310.728C127.702 311.283 127.814 311.763 128.038 312.168C128.262 312.563 128.571 312.867 128.966 313.08C129.361 313.293 129.803 313.4 130.294 313.4C130.721 313.4 131.115 313.304 131.478 313.112C131.851 312.92 132.166 312.621 132.422 312.216L133.958 313.112C133.627 313.752 133.142 314.248 132.502 314.6C131.873 314.941 131.142 315.112 130.31 315.112ZM139.402 315.112C138.527 315.112 137.749 314.925 137.066 314.552C136.383 314.168 135.845 313.645 135.45 312.984C135.055 312.323 134.858 311.571 134.858 310.728C134.858 309.875 135.055 309.123 135.45 308.472C135.845 307.811 136.383 307.293 137.066 306.92C137.749 306.547 138.527 306.36 139.402 306.36C140.287 306.36 141.071 306.547 141.754 306.92C142.447 307.293 142.986 307.805 143.37 308.456C143.765 309.107 143.962 309.864 143.962 310.728C143.962 311.571 143.765 312.323 143.37 312.984C142.986 313.645 142.447 314.168 141.754 314.552C141.071 314.925 140.287 315.112 139.402 315.112ZM139.402 313.4C139.893 313.4 140.33 313.293 140.714 313.08C141.098 312.867 141.397 312.557 141.61 312.152C141.834 311.747 141.946 311.272 141.946 310.728C141.946 310.173 141.834 309.699 141.61 309.304C141.397 308.899 141.098 308.589 140.714 308.376C140.33 308.163 139.898 308.056 139.418 308.056C138.927 308.056 138.49 308.163 138.106 308.376C137.733 308.589 137.434 308.899 137.21 309.304C136.986 309.699 136.874 310.173 136.874 310.728C136.874 311.272 136.986 311.747 137.21 312.152C137.434 312.557 137.733 312.867 138.106 313.08C138.49 313.293 138.922 313.4 139.402 313.4ZM149.491 315.112C148.765 315.112 148.125 314.979 147.571 314.712C147.016 314.435 146.584 314.019 146.275 313.464C145.965 312.899 145.811 312.189 145.811 311.336V306.456H147.811V311.064C147.811 311.832 147.981 312.408 148.323 312.792C148.675 313.165 149.171 313.352 149.811 313.352C150.28 313.352 150.685 313.256 151.027 313.064C151.379 312.872 151.651 312.584 151.843 312.2C152.045 311.816 152.147 311.341 152.147 310.776V306.456H154.147V315H152.243V312.696L152.579 313.4C152.291 313.955 151.869 314.381 151.315 314.68C150.76 314.968 150.152 315.112 149.491 315.112ZM161.613 306.36C162.296 306.36 162.904 306.493 163.437 306.76C163.981 307.027 164.408 307.437 164.717 307.992C165.026 308.536 165.181 309.24 165.181 310.104V315H163.181V310.36C163.181 309.603 163 309.037 162.637 308.664C162.285 308.291 161.789 308.104 161.149 308.104C160.68 308.104 160.264 308.2 159.901 308.392C159.538 308.584 159.256 308.872 159.053 309.256C158.861 309.629 158.765 310.104 158.765 310.68V315H156.765V306.456H158.669V308.76L158.333 308.056C158.632 307.512 159.064 307.096 159.629 306.808C160.205 306.509 160.866 306.36 161.613 306.36ZM170.934 315.112C169.996 315.112 169.27 314.872 168.758 314.392C168.246 313.901 167.99 313.181 167.99 312.232V304.568H169.99V312.184C169.99 312.589 170.092 312.904 170.294 313.128C170.508 313.352 170.801 313.464 171.174 313.464C171.622 313.464 171.996 313.347 172.294 313.112L172.854 314.536C172.62 314.728 172.332 314.872 171.99 314.968C171.649 315.064 171.297 315.112 170.934 315.112ZM166.582 308.12V306.52H172.278V308.12H166.582Z" fill="black"/>
<path d="M71.9221 368.5V377.5M67.4221 373H76.4221M62.9221 365V381C62.9221 381.552 63.3698 382 63.9221 382H80.078C80.6302 382 81.078 381.552 81.078 381V365C81.078 364.448 80.6302 364 80.078 364H63.9221C63.3698 364 62.9221 364.448 62.9221 365Z" stroke="#1C1C1C" stroke-width="2" stroke-linecap="round"/>
<path d="M110.688 379.16C109.835 379.16 109.04 379.021 108.304 378.744C107.579 378.456 106.944 378.056 106.4 377.544C105.867 377.021 105.451 376.408 105.152 375.704C104.853 375 104.704 374.232 104.704 373.4C104.704 372.568 104.853 371.8 105.152 371.096C105.451 370.392 105.872 369.784 106.416 369.272C106.96 368.749 107.595 368.349 108.32 368.072C109.045 367.784 109.84 367.64 110.704 367.64C111.621 367.64 112.459 367.8 113.216 368.12C113.973 368.429 114.613 368.893 115.136 369.512L113.792 370.776C113.387 370.339 112.933 370.013 112.432 369.8C111.931 369.576 111.387 369.464 110.8 369.464C110.213 369.464 109.675 369.56 109.184 369.752C108.704 369.944 108.283 370.216 107.92 370.568C107.568 370.92 107.291 371.336 107.088 371.816C106.896 372.296 106.8 372.824 106.8 373.4C106.8 373.976 106.896 374.504 107.088 374.984C107.291 375.464 107.568 375.88 107.92 376.232C108.283 376.584 108.704 376.856 109.184 377.048C109.675 377.24 110.213 377.336 110.8 377.336C111.387 377.336 111.931 377.229 112.432 377.016C112.933 376.792 113.387 376.456 113.792 376.008L115.136 377.288C114.613 377.896 113.973 378.36 113.216 378.68C112.459 379 111.616 379.16 110.688 379.16ZM116.937 379V370.456H118.841V372.808L118.617 372.12C118.873 371.544 119.273 371.107 119.817 370.808C120.372 370.509 121.06 370.36 121.881 370.36V372.264C121.796 372.243 121.716 372.232 121.641 372.232C121.566 372.221 121.492 372.216 121.417 372.216C120.66 372.216 120.057 372.44 119.609 372.888C119.161 373.325 118.937 373.981 118.937 374.856V379H116.937ZM127.516 379.112C126.566 379.112 125.734 378.925 125.02 378.552C124.316 378.168 123.766 377.645 123.372 376.984C122.988 376.323 122.796 375.571 122.796 374.728C122.796 373.875 122.982 373.123 123.356 372.472C123.74 371.811 124.262 371.293 124.924 370.92C125.596 370.547 126.358 370.36 127.212 370.36C128.044 370.36 128.785 370.541 129.436 370.904C130.086 371.267 130.598 371.779 130.972 372.44C131.345 373.101 131.532 373.88 131.532 374.776C131.532 374.861 131.526 374.957 131.516 375.064C131.516 375.171 131.51 375.272 131.5 375.368H124.38V374.04H130.444L129.66 374.456C129.67 373.965 129.569 373.533 129.356 373.16C129.142 372.787 128.849 372.493 128.476 372.28C128.113 372.067 127.692 371.96 127.212 371.96C126.721 371.96 126.289 372.067 125.916 372.28C125.553 372.493 125.265 372.792 125.052 373.176C124.849 373.549 124.748 373.992 124.748 374.504V374.824C124.748 375.336 124.865 375.789 125.1 376.184C125.334 376.579 125.665 376.883 126.092 377.096C126.518 377.309 127.009 377.416 127.564 377.416C128.044 377.416 128.476 377.341 128.86 377.192C129.244 377.043 129.585 376.808 129.884 376.488L130.956 377.72C130.572 378.168 130.086 378.515 129.5 378.76C128.924 378.995 128.262 379.112 127.516 379.112ZM138.482 379V377.272L138.37 376.904V373.88C138.37 373.293 138.194 372.84 137.842 372.52C137.49 372.189 136.957 372.024 136.242 372.024C135.762 372.024 135.288 372.099 134.818 372.248C134.36 372.397 133.97 372.605 133.65 372.872L132.866 371.416C133.325 371.064 133.869 370.803 134.498 370.632C135.138 370.451 135.8 370.36 136.482 370.36C137.72 370.36 138.674 370.659 139.346 371.256C140.029 371.843 140.37 372.755 140.37 373.992V379H138.482ZM135.794 379.112C135.154 379.112 134.594 379.005 134.114 378.792C133.634 378.568 133.261 378.264 132.994 377.88C132.738 377.485 132.61 377.043 132.61 376.552C132.61 376.072 132.722 375.64 132.946 375.256C133.181 374.872 133.56 374.568 134.082 374.344C134.605 374.12 135.298 374.008 136.162 374.008H138.642V375.336H136.306C135.624 375.336 135.165 375.448 134.93 375.672C134.696 375.885 134.578 376.152 134.578 376.472C134.578 376.835 134.722 377.123 135.01 377.336C135.298 377.549 135.698 377.656 136.21 377.656C136.701 377.656 137.138 377.544 137.522 377.32C137.917 377.096 138.2 376.765 138.37 376.328L138.706 377.528C138.514 378.029 138.168 378.419 137.666 378.696C137.176 378.973 136.552 379.112 135.794 379.112ZM146.153 379.112C145.214 379.112 144.489 378.872 143.977 378.392C143.465 377.901 143.209 377.181 143.209 376.232V368.568H145.209V376.184C145.209 376.589 145.31 376.904 145.513 377.128C145.726 377.352 146.02 377.464 146.393 377.464C146.841 377.464 147.214 377.347 147.513 377.112L148.073 378.536C147.838 378.728 147.55 378.872 147.209 378.968C146.868 379.064 146.516 379.112 146.153 379.112ZM141.801 372.12V370.52H147.497V372.12H141.801ZM153.453 379.112C152.504 379.112 151.672 378.925 150.957 378.552C150.253 378.168 149.704 377.645 149.309 376.984C148.925 376.323 148.733 375.571 148.733 374.728C148.733 373.875 148.92 373.123 149.293 372.472C149.677 371.811 150.2 371.293 150.861 370.92C151.533 370.547 152.296 370.36 153.149 370.36C153.981 370.36 154.722 370.541 155.373 370.904C156.024 371.267 156.536 371.779 156.909 372.44C157.282 373.101 157.469 373.88 157.469 374.776C157.469 374.861 157.464 374.957 157.453 375.064C157.453 375.171 157.448 375.272 157.437 375.368H150.317V374.04H156.381L155.597 374.456C155.608 373.965 155.506 373.533 155.293 373.16C155.08 372.787 154.786 372.493 154.413 372.28C154.05 372.067 153.629 371.96 153.149 371.96C152.658 371.96 152.226 372.067 151.853 372.28C151.49 372.493 151.202 372.792 150.989 373.176C150.786 373.549 150.685 373.992 150.685 374.504V374.824C150.685 375.336 150.802 375.789 151.037 376.184C151.272 376.579 151.602 376.883 152.029 377.096C152.456 377.309 152.946 377.416 153.501 377.416C153.981 377.416 154.413 377.341 154.797 377.192C155.181 377.043 155.522 376.808 155.821 376.488L156.893 377.72C156.509 378.168 156.024 378.515 155.437 378.76C154.861 378.995 154.2 379.112 153.453 379.112ZM164.004 379V367.8H168.612C169.604 367.8 170.452 367.96 171.156 368.28C171.871 368.6 172.42 369.059 172.804 369.656C173.188 370.253 173.38 370.963 173.38 371.784C173.38 372.605 173.188 373.315 172.804 373.912C172.42 374.509 171.871 374.968 171.156 375.288C170.452 375.608 169.604 375.768 168.612 375.768H165.156L166.084 374.792V379H164.004ZM166.084 375.016L165.156 374.008H168.516C169.433 374.008 170.121 373.816 170.58 373.432C171.049 373.037 171.284 372.488 171.284 371.784C171.284 371.069 171.049 370.52 170.58 370.136C170.121 369.752 169.433 369.56 168.516 369.56H165.156L166.084 368.536V375.016ZM179.074 379.112C178.199 379.112 177.421 378.925 176.738 378.552C176.055 378.168 175.517 377.645 175.122 376.984C174.727 376.323 174.53 375.571 174.53 374.728C174.53 373.875 174.727 373.123 175.122 372.472C175.517 371.811 176.055 371.293 176.738 370.92C177.421 370.547 178.199 370.36 179.074 370.36C179.959 370.36 180.743 370.547 181.426 370.92C182.119 371.293 182.658 371.805 183.042 372.456C183.437 373.107 183.634 373.864 183.634 374.728C183.634 375.571 183.437 376.323 183.042 376.984C182.658 377.645 182.119 378.168 181.426 378.552C180.743 378.925 179.959 379.112 179.074 379.112ZM179.074 377.4C179.565 377.4 180.002 377.293 180.386 377.08C180.77 376.867 181.069 376.557 181.282 376.152C181.506 375.747 181.618 375.272 181.618 374.728C181.618 374.173 181.506 373.699 181.282 373.304C181.069 372.899 180.77 372.589 180.386 372.376C180.002 372.163 179.57 372.056 179.09 372.056C178.599 372.056 178.162 372.163 177.778 372.376C177.405 372.589 177.106 372.899 176.882 373.304C176.658 373.699 176.546 374.173 176.546 374.728C176.546 375.272 176.658 375.747 176.882 376.152C177.106 376.557 177.405 376.867 177.778 377.08C178.162 377.293 178.594 377.4 179.074 377.4ZM188.186 379.112C187.472 379.112 186.784 379.021 186.122 378.84C185.472 378.648 184.954 378.419 184.57 378.152L185.338 376.632C185.722 376.877 186.181 377.08 186.714 377.24C187.248 377.4 187.781 377.48 188.314 377.48C188.944 377.48 189.397 377.395 189.674 377.224C189.962 377.053 190.106 376.824 190.106 376.536C190.106 376.301 190.01 376.125 189.818 376.008C189.626 375.88 189.376 375.784 189.066 375.72C188.757 375.656 188.41 375.597 188.026 375.544C187.653 375.491 187.274 375.421 186.89 375.336C186.517 375.24 186.176 375.107 185.866 374.936C185.557 374.755 185.306 374.515 185.114 374.216C184.922 373.917 184.826 373.523 184.826 373.032C184.826 372.488 184.981 372.019 185.29 371.624C185.6 371.219 186.032 370.909 186.586 370.696C187.152 370.472 187.818 370.36 188.586 370.36C189.162 370.36 189.744 370.424 190.33 370.552C190.917 370.68 191.402 370.861 191.786 371.096L191.018 372.616C190.613 372.371 190.202 372.205 189.786 372.12C189.381 372.024 188.976 371.976 188.57 371.976C187.962 371.976 187.509 372.067 187.21 372.248C186.922 372.429 186.778 372.659 186.778 372.936C186.778 373.192 186.874 373.384 187.066 373.512C187.258 373.64 187.509 373.741 187.818 373.816C188.128 373.891 188.469 373.955 188.842 374.008C189.226 374.051 189.605 374.12 189.978 374.216C190.352 374.312 190.693 374.445 191.002 374.616C191.322 374.776 191.578 375.005 191.77 375.304C191.962 375.603 192.058 375.992 192.058 376.472C192.058 377.005 191.898 377.469 191.578 377.864C191.269 378.259 190.826 378.568 190.25 378.792C189.674 379.005 188.986 379.112 188.186 379.112ZM196.997 379.112C196.058 379.112 195.333 378.872 194.821 378.392C194.309 377.901 194.053 377.181 194.053 376.232V368.568H196.053V376.184C196.053 376.589 196.154 376.904 196.357 377.128C196.57 377.352 196.863 377.464 197.237 377.464C197.685 377.464 198.058 377.347 198.357 377.112L198.917 378.536C198.682 378.728 198.394 378.872 198.053 378.968C197.711 379.064 197.359 379.112 196.997 379.112ZM192.645 372.12V370.52H198.341V372.12H192.645Z" fill="black"/>
<path fill-rule="evenodd" clip-rule="evenodd" d="M63 435C64.1046 435 65 435.895 65 437C65 438.105 64.1046 439 63 439C61.8954 439 61 438.105 61 437C61 435.895 61.8954 435 63 435ZM70 435C71.1046 435 72 435.895 72 437C72 438.105 71.1046 439 70 439C68.8954 439 68 438.105 68 437C68 435.895 68.8954 435 70 435ZM79 437C79 435.895 78.1046 435 77 435C75.8954 435 75 435.895 75 437C75 438.105 75.8954 439 77 439C78.1046 439 79 438.105 79 437Z" fill="#1C1C1C"/>
</g>
<defs>
<filter id="filter0_d_662_3122" x="0" y="0" width="266" height="741" filterUnits="userSpaceOnUse" color-interpolation-filters="sRGB">
<feFlood flood-opacity="0" result="BackgroundImageFix"/>
<feColorMatrix in="SourceAlpha" type="matrix" values="0 0 0 0 0 0 0 0 0 0 0 0 0 0 0 0 0 0 127 0" result="hardAlpha"/>
<feOffset dy="-1"/>
<feGaussianBlur stdDeviation="4"/>
<feComposite in2="hardAlpha" operator="out"/>
<feColorMatrix type="matrix" values="0 0 0 0 0 0 0 0 0 0 0 0 0 0 0 0 0 0 0.25 0"/>
<feBlend mode="normal" in2="BackgroundImageFix" result="effect1_dropShadow_662_3122"/>
<feBlend mode="normal" in="SourceGraphic" in2="effect1_dropShadow_662_3122" result="shape"/>
</filter>
</defs>
</svg>
