<svg width="3872" height="3752" viewBox="0 0 3872 3752" fill="none" xmlns="http://www.w3.org/2000/svg">
<path d="M2623.42 2480.02C2442.92 2913.39 1518.65 3145.57 1268.35 3191.08C561.103 3319.67 154.489 2236.67 539.775 1777.1C808.379 1456.71 2095.1 437.812 2402.18 695.264C2709.27 952.715 2876.88 1871.46 2623.42 2480.02Z" fill="#F7C644" fill-opacity="0.4"/>
<path d="M2845.03 2367.58C2664.53 2800.96 1740.26 3033.14 1489.95 3078.65C782.71 3207.24 376.097 2124.23 761.382 1664.66C1029.99 1344.27 2316.7 325.375 2623.79 582.826C2930.88 840.278 3098.48 1759.02 2845.03 2367.58Z" fill="#F7C644" fill-opacity="0.4"/>
<path d="M3066.64 2255.14C2886.14 2688.52 1961.87 2920.7 1711.56 2966.21C1004.32 3094.8 597.704 2011.8 982.99 1552.23C1251.59 1231.84 2538.31 212.937 2845.4 470.389C3152.49 727.84 3320.09 1646.59 3066.64 2255.14Z" fill="#F7C644" fill-opacity="0.4"/>
</svg>
