<svg width="617" height="210" viewBox="0 0 617 210" fill="none" xmlns="http://www.w3.org/2000/svg">
<mask id="mask0_660_2939" style="mask-type:alpha" maskUnits="userSpaceOnUse" x="0" y="0" width="617" height="210">
<rect width="617" height="210" fill="#D9D9D9"/>
</mask>
<g mask="url(#mask0_660_2939)">
<path d="M365.888 -493.296C540.632 -478.574 766.001 -370.637 776.452 -277.498C806.395 -10.6575 580.799 196.714 373.36 112.146C228.743 53.1887 -283.505 -103.153 -226.995 -241.766C-170.486 -380.379 120.509 -513.968 365.888 -493.296Z" fill="#F7C644" fill-opacity="0.4"/>
<path d="M362.888 -531.296C537.632 -516.574 763.001 -408.637 773.452 -315.498C803.395 -48.6575 577.799 158.714 370.36 74.1458C225.743 15.1887 -286.505 -141.153 -229.995 -279.766C-173.486 -418.379 117.509 -551.968 362.888 -531.296Z" fill="#F7C644" fill-opacity="0.4"/>
<path d="M359.888 -569.296C534.632 -554.574 760.001 -446.637 770.452 -353.498C800.395 -86.6575 574.799 120.714 367.36 36.1458C222.743 -22.8113 -289.505 -179.153 -232.995 -317.766C-176.486 -456.379 114.509 -589.968 359.888 -569.296Z" fill="#F7C644" fill-opacity="0.4"/>
</g>
</svg>
