<svg width="644" height="320" viewBox="0 0 644 320" fill="none" xmlns="http://www.w3.org/2000/svg">
<mask id="mask0_662_3242" style="mask-type:alpha" maskUnits="userSpaceOnUse" x="0" y="0" width="644" height="320">
<rect width="644" height="320" fill="#D9D9D9"/>
</mask>
<g mask="url(#mask0_662_3242)">
<path d="M191.888 -334.296C366.632 -319.574 592.001 -211.637 602.452 -118.498C632.395 148.342 406.799 355.714 199.36 271.146C54.7426 212.189 -457.505 55.8465 -400.995 -82.7664C-344.486 -221.379 -53.4914 -354.968 191.888 -334.296Z" fill="#F7C644" fill-opacity="0.4"/>
<path d="M173.888 -376.296C348.632 -361.574 574.001 -253.637 584.452 -160.498C614.395 106.342 388.799 313.714 181.36 229.146C36.7426 170.189 -475.505 13.8465 -418.995 -124.766C-362.486 -263.379 -71.4914 -396.968 173.888 -376.296Z" fill="#F7C644" fill-opacity="0.4"/>
<path d="M155.888 -418.296C330.632 -403.574 556.001 -295.637 566.452 -202.498C596.395 64.3425 370.799 271.714 163.36 187.146C18.7426 128.189 -493.505 -28.1535 -436.995 -166.766C-380.486 -305.379 -89.4914 -438.968 155.888 -418.296Z" fill="#F7C644" fill-opacity="0.4"/>
</g>
</svg>
