<svg width="127" height="870" viewBox="0 0 127 870" fill="none" xmlns="http://www.w3.org/2000/svg">
<g filter="url(#filter0_d_662_3089)">
<rect width="111" height="854" transform="translate(8 9)" fill="#FCFDF6"/>
<path d="M59.9688 66.7863H54.0833C53.4332 66.7863 52.9062 66.2593 52.9062 65.6092V52.0599C52.9062 51.6967 53.074 51.3538 53.3607 51.1308L62.7773 43.8067C63.2024 43.4761 63.7976 43.4761 64.2227 43.8067L73.6393 51.1308C73.926 51.3538 74.0938 51.6967 74.0938 52.0599V65.6092C74.0938 66.2593 73.5668 66.7863 72.9167 66.7863H67.0312M59.9688 66.7863V55.604C59.9688 54.9539 60.4957 54.4269 61.1458 54.4269H65.8542C66.5043 54.4269 67.0312 54.9539 67.0312 55.604V66.7863M59.9688 66.7863H67.0312" stroke="#1C1C1C" stroke-width="2.35417" stroke-linecap="round"/>
<path fill-rule="evenodd" clip-rule="evenodd" d="M66.1486 126.284C66.1486 129.209 63.7771 131.581 60.8517 131.581C57.9263 131.581 55.5549 129.209 55.5549 126.284C55.5549 123.358 57.9263 120.987 60.8517 120.987C63.7771 120.987 66.1486 123.358 66.1486 126.284ZM65.3655 132.462C64.1002 133.388 62.5398 133.935 60.8517 133.935C56.6262 133.935 53.2007 130.509 53.2007 126.284C53.2007 122.058 56.6262 118.633 60.8517 118.633C65.0773 118.633 68.5028 122.058 68.5028 126.284C68.5028 127.972 67.9561 129.532 67.0301 130.798L73.4549 137.222C73.9146 137.682 73.9146 138.427 73.4549 138.887C72.9952 139.347 72.2499 139.347 71.7902 138.887L65.3655 132.462Z" fill="#1C1C1C"/>
<path fill-rule="evenodd" clip-rule="evenodd" d="M69.2019 200.553C69.4328 204.193 70.1763 207.418 71.6442 211.089H55.3822C56.8741 207.501 57.6466 204.316 57.8696 200.712C58.0865 197.209 60.62 194.61 63.5661 194.61C66.4824 194.61 68.9855 197.143 69.2019 200.553ZM55.52 200.566C55.7956 196.113 59.1042 192.255 63.5661 192.255C67.9671 192.255 71.2727 196.012 71.5513 200.404C71.7953 204.25 72.6487 207.598 74.4739 211.745C74.8225 212.538 74.2533 213.443 73.3879 213.443H53.6118C52.7378 213.443 52.1689 212.521 52.5333 211.727C54.3953 207.667 55.2849 204.365 55.52 200.566ZM62.2702 216.1C62.1125 215.469 61.4734 215.086 60.8427 215.244C60.2121 215.401 59.8286 216.04 59.9863 216.671C60.4372 218.475 62.0258 219.328 63.4824 219.328C64.9389 219.328 66.5276 218.475 66.9785 216.671C67.1362 216.04 66.7527 215.401 66.122 215.244C65.4914 215.086 64.8523 215.469 64.6946 216.1C64.557 216.651 64.0857 216.974 63.4824 216.974C62.879 216.974 62.4078 216.651 62.2702 216.1Z" fill="#1C1C1C"/>
<path fill-rule="evenodd" clip-rule="evenodd" d="M55.2603 267.349C54.9481 267.349 54.6487 267.473 54.4279 267.694C54.2072 267.914 54.0832 268.214 54.0832 268.526V284.517L56.7821 281.819C57.0028 281.598 57.3022 281.474 57.6144 281.474H71.7394C72.0516 281.474 72.351 281.35 72.5717 281.129C72.7925 280.908 72.9165 280.609 72.9165 280.297V268.526C72.9165 268.214 72.7925 267.914 72.5717 267.694C72.351 267.473 72.0516 267.349 71.7394 267.349H55.2603ZM52.7633 266.029C53.4255 265.367 54.3237 264.995 55.2603 264.995H71.7394C72.676 264.995 73.5742 265.367 74.2364 266.029C74.8986 266.691 75.2707 267.589 75.2707 268.526V280.297C75.2707 281.233 74.8986 282.131 74.2364 282.794C73.5742 283.456 72.676 283.828 71.7394 283.828H58.102L53.7384 288.192C53.4018 288.528 52.8955 288.629 52.4556 288.447C52.0158 288.265 51.729 287.835 51.729 287.359V268.526C51.729 267.589 52.101 266.691 52.7633 266.029ZM56.4373 272.057C56.4373 271.407 56.9643 270.88 57.6144 270.88H64.6769C65.327 270.88 65.854 271.407 65.854 272.057C65.854 272.707 65.327 273.234 64.6769 273.234H57.6144C56.9643 273.234 56.4373 272.707 56.4373 272.057ZM57.6144 275.588C56.9643 275.588 56.4373 276.115 56.4373 276.765C56.4373 277.416 56.9643 277.943 57.6144 277.943H69.3853C70.0353 277.943 70.5623 277.416 70.5623 276.765C70.5623 276.115 70.0353 275.588 69.3853 275.588H57.6144Z" fill="#1C1C1C"/>
<circle cx="63.4998" cy="350.682" r="12.3594" stroke="#1C1C1C" stroke-width="2.35417"/>
<circle cx="64.0898" cy="349.505" r="4.11979" stroke="#1C1C1C" stroke-width="2.35417"/>
<path d="M57.6133 360.687C57.6134 359.777 57.965 359.219 58.6683 358.197C59.1145 357.548 59.8519 357.156 60.6391 357.156C62.6648 357.156 64.3719 357.156 67.5355 357.156C68.3226 357.156 69.064 357.546 69.4931 358.206C70.1081 359.152 70.3285 359.617 70.5612 360.687" stroke="#1C1C1C" stroke-width="2.35417" stroke-linecap="round"/>
<rect x="51.729" y="366.573" width="23.5417" height="3.53125" rx="1.76562" fill="#1C1C1C"/>
<path d="M63.4082 422.245V432.839M58.1113 427.542H68.7051M52.8145 418.125V436.959C52.8145 437.609 53.3415 438.136 53.9915 438.136H73.0083C73.6584 438.136 74.1854 437.609 74.1854 436.959V418.125C74.1854 417.475 73.6584 416.948 73.0083 416.948H53.9915C53.3415 416.948 52.8145 417.475 52.8145 418.125Z" stroke="#1C1C1C" stroke-width="2.35417" stroke-linecap="round"/>
<path fill-rule="evenodd" clip-rule="evenodd" d="M55.2604 499.104C56.5606 499.104 57.6146 500.158 57.6146 501.458C57.6146 502.759 56.5606 503.812 55.2604 503.812C53.9602 503.812 52.9062 502.759 52.9062 501.458C52.9062 500.158 53.9602 499.104 55.2604 499.104ZM63.5 499.104C64.8002 499.104 65.8542 500.158 65.8542 501.458C65.8542 502.759 64.8002 503.812 63.5 503.812C62.1998 503.812 61.1458 502.759 61.1458 501.458C61.1458 500.158 62.1998 499.104 63.5 499.104ZM74.0938 501.458C74.0938 500.158 73.0398 499.104 71.7396 499.104C70.4394 499.104 69.3854 500.158 69.3854 501.458C69.3854 502.759 70.4394 503.812 71.7396 503.812C73.0398 503.812 74.0938 502.759 74.0938 501.458Z" fill="#1C1C1C"/>
</g>
<defs>
<filter id="filter0_d_662_3089" x="0" y="0" width="127" height="870" filterUnits="userSpaceOnUse" color-interpolation-filters="sRGB">
<feFlood flood-opacity="0" result="BackgroundImageFix"/>
<feColorMatrix in="SourceAlpha" type="matrix" values="0 0 0 0 0 0 0 0 0 0 0 0 0 0 0 0 0 0 127 0" result="hardAlpha"/>
<feOffset dy="-1"/>
<feGaussianBlur stdDeviation="4"/>
<feComposite in2="hardAlpha" operator="out"/>
<feColorMatrix type="matrix" values="0 0 0 0 0 0 0 0 0 0 0 0 0 0 0 0 0 0 0.25 0"/>
<feBlend mode="normal" in2="BackgroundImageFix" result="effect1_dropShadow_662_3089"/>
<feBlend mode="normal" in="SourceGraphic" in2="effect1_dropShadow_662_3089" result="shape"/>
</filter>
</defs>
</svg>
