<svg width="328" height="40" viewBox="0 0 328 40" fill="none" xmlns="http://www.w3.org/2000/svg">
<rect width="327.5" height="40" rx="8" fill="#143810"/>
<path fill-rule="evenodd" clip-rule="evenodd" d="M122.461 16.3092C122.461 15.9167 122.142 15.5986 121.75 15.5986C121.358 15.5986 121.04 15.9167 121.04 16.3092V19.2895H118.059C117.667 19.2895 117.349 19.6076 117.349 20C117.349 20.3924 117.667 20.7105 118.059 20.7105H121.04V23.6907C121.04 24.0832 121.358 24.4013 121.75 24.4013C122.142 24.4013 122.461 24.0832 122.461 23.6907V20.7105H125.441C125.833 20.7105 126.151 20.3924 126.151 20C126.151 19.6076 125.833 19.2895 125.441 19.2895H122.461V16.3092Z" fill="#FCFDF6"/>
<path d="M132.554 26V14.8H134.266L141.29 23.424H140.442V14.8H142.506V26H140.794L133.77 17.376H134.618V26H132.554ZM149.331 26.112C148.382 26.112 147.55 25.9253 146.835 25.552C146.131 25.168 145.582 24.6453 145.187 23.984C144.803 23.3227 144.611 22.5707 144.611 21.728C144.611 20.8747 144.798 20.1227 145.171 19.472C145.555 18.8107 146.078 18.2933 146.739 17.92C147.411 17.5467 148.174 17.36 149.027 17.36C149.859 17.36 150.6 17.5413 151.251 17.904C151.902 18.2667 152.414 18.7787 152.787 19.44C153.16 20.1013 153.347 20.88 153.347 21.776C153.347 21.8613 153.342 21.9573 153.331 22.064C153.331 22.1707 153.326 22.272 153.315 22.368H146.195V21.04H152.259L151.475 21.456C151.486 20.9653 151.384 20.5333 151.171 20.16C150.958 19.7867 150.664 19.4933 150.291 19.28C149.928 19.0667 149.507 18.96 149.027 18.96C148.536 18.96 148.104 19.0667 147.731 19.28C147.368 19.4933 147.08 19.792 146.867 20.176C146.664 20.5493 146.563 20.992 146.563 21.504V21.824C146.563 22.336 146.68 22.7893 146.915 23.184C147.15 23.5787 147.48 23.8827 147.907 24.096C148.334 24.3093 148.824 24.416 149.379 24.416C149.859 24.416 150.291 24.3413 150.675 24.192C151.059 24.0427 151.4 23.808 151.699 23.488L152.771 24.72C152.387 25.168 151.902 25.5147 151.315 25.76C150.739 25.9947 150.078 26.112 149.331 26.112ZM157 26L153.864 17.456H155.752L158.44 24.992H157.544L160.36 17.456H162.04L164.776 24.992H163.896L166.664 17.456H168.44L165.288 26H163.368L160.872 19.328H161.464L158.92 26H157ZM174.429 26V14.8H179.037C180.029 14.8 180.877 14.96 181.581 15.28C182.295 15.6 182.845 16.0587 183.229 16.656C183.613 17.2533 183.805 17.9627 183.805 18.784C183.805 19.6053 183.613 20.3147 183.229 20.912C182.845 21.5093 182.295 21.968 181.581 22.288C180.877 22.608 180.029 22.768 179.037 22.768H175.581L176.509 21.792V26H174.429ZM176.509 22.016L175.581 21.008H178.941C179.858 21.008 180.546 20.816 181.005 20.432C181.474 20.0373 181.709 19.488 181.709 18.784C181.709 18.0693 181.474 17.52 181.005 17.136C180.546 16.752 179.858 16.56 178.941 16.56H175.581L176.509 15.536V22.016ZM189.499 26.112C188.624 26.112 187.845 25.9253 187.163 25.552C186.48 25.168 185.941 24.6453 185.547 23.984C185.152 23.3227 184.955 22.5707 184.955 21.728C184.955 20.8747 185.152 20.1227 185.547 19.472C185.941 18.8107 186.48 18.2933 187.163 17.92C187.845 17.5467 188.624 17.36 189.499 17.36C190.384 17.36 191.168 17.5467 191.851 17.92C192.544 18.2933 193.083 18.8053 193.467 19.456C193.861 20.1067 194.059 20.864 194.059 21.728C194.059 22.5707 193.861 23.3227 193.467 23.984C193.083 24.6453 192.544 25.168 191.851 25.552C191.168 25.9253 190.384 26.112 189.499 26.112ZM189.499 24.4C189.989 24.4 190.427 24.2933 190.811 24.08C191.195 23.8667 191.493 23.5573 191.707 23.152C191.931 22.7467 192.043 22.272 192.043 21.728C192.043 21.1733 191.931 20.6987 191.707 20.304C191.493 19.8987 191.195 19.5893 190.811 19.376C190.427 19.1627 189.995 19.056 189.515 19.056C189.024 19.056 188.587 19.1627 188.203 19.376C187.829 19.5893 187.531 19.8987 187.307 20.304C187.083 20.6987 186.971 21.1733 186.971 21.728C186.971 22.272 187.083 22.7467 187.307 23.152C187.531 23.5573 187.829 23.8667 188.203 24.08C188.587 24.2933 189.019 24.4 189.499 24.4ZM198.611 26.112C197.896 26.112 197.208 26.0213 196.547 25.84C195.896 25.648 195.379 25.4187 194.995 25.152L195.763 23.632C196.147 23.8773 196.606 24.08 197.139 24.24C197.672 24.4 198.206 24.48 198.739 24.48C199.368 24.48 199.822 24.3947 200.099 24.224C200.387 24.0533 200.531 23.824 200.531 23.536C200.531 23.3013 200.435 23.1253 200.243 23.008C200.051 22.88 199.8 22.784 199.491 22.72C199.182 22.656 198.835 22.5973 198.451 22.544C198.078 22.4907 197.699 22.4213 197.315 22.336C196.942 22.24 196.6 22.1067 196.291 21.936C195.982 21.7547 195.731 21.5147 195.539 21.216C195.347 20.9173 195.251 20.5227 195.251 20.032C195.251 19.488 195.406 19.0187 195.715 18.624C196.024 18.2187 196.456 17.9093 197.011 17.696C197.576 17.472 198.243 17.36 199.011 17.36C199.587 17.36 200.168 17.424 200.755 17.552C201.342 17.68 201.827 17.8613 202.211 18.096L201.443 19.616C201.038 19.3707 200.627 19.2053 200.211 19.12C199.806 19.024 199.4 18.976 198.995 18.976C198.387 18.976 197.934 19.0667 197.635 19.248C197.347 19.4293 197.203 19.6587 197.203 19.936C197.203 20.192 197.299 20.384 197.491 20.512C197.683 20.64 197.934 20.7413 198.243 20.816C198.552 20.8907 198.894 20.9547 199.267 21.008C199.651 21.0507 200.03 21.12 200.403 21.216C200.776 21.312 201.118 21.4453 201.427 21.616C201.747 21.776 202.003 22.0053 202.195 22.304C202.387 22.6027 202.483 22.992 202.483 23.472C202.483 24.0053 202.323 24.4693 202.003 24.864C201.694 25.2587 201.251 25.568 200.675 25.792C200.099 26.0053 199.411 26.112 198.611 26.112ZM207.422 26.112C206.483 26.112 205.758 25.872 205.246 25.392C204.734 24.9013 204.478 24.1813 204.478 23.232V15.568H206.478V23.184C206.478 23.5893 206.579 23.904 206.782 24.128C206.995 24.352 207.288 24.464 207.662 24.464C208.11 24.464 208.483 24.3467 208.782 24.112L209.342 25.536C209.107 25.728 208.819 25.872 208.478 25.968C208.136 26.064 207.784 26.112 207.422 26.112ZM203.07 19.12V17.52H208.766V19.12H203.07Z" fill="#FCFDF6"/>
</svg>
