<svg width="328" height="40" viewBox="0 0 328 40" fill="none" xmlns="http://www.w3.org/2000/svg">
<rect x="0.5" y="0.5" width="326.5" height="39" rx="7.5" stroke="#717171"/>
<path d="M121.737 19.456H127.305V21.168H121.737V19.456ZM121.897 24.256H128.217V26H119.817V14.8H127.993V16.544H121.897V24.256ZM133.881 26.112C133.06 26.112 132.318 25.9307 131.657 25.568C131.006 25.1947 130.494 24.6827 130.121 24.032C129.748 23.3813 129.561 22.6133 129.561 21.728C129.561 20.8427 129.748 20.0747 130.121 19.424C130.494 18.7733 131.006 18.2667 131.657 17.904C132.318 17.5413 133.06 17.36 133.881 17.36C134.596 17.36 135.236 17.52 135.801 17.84C136.366 18.1493 136.814 18.624 137.145 19.264C137.476 19.904 137.641 20.7253 137.641 21.728C137.641 22.72 137.481 23.5413 137.161 24.192C136.841 24.832 136.398 25.312 135.833 25.632C135.268 25.952 134.617 26.112 133.881 26.112ZM134.121 24.4C134.601 24.4 135.028 24.2933 135.401 24.08C135.785 23.8667 136.089 23.5573 136.313 23.152C136.548 22.7467 136.665 22.272 136.665 21.728C136.665 21.1733 136.548 20.6987 136.313 20.304C136.089 19.8987 135.785 19.5893 135.401 19.376C135.028 19.1627 134.601 19.056 134.121 19.056C133.641 19.056 133.209 19.1627 132.825 19.376C132.452 19.5893 132.148 19.8987 131.913 20.304C131.689 20.6987 131.577 21.1733 131.577 21.728C131.577 22.272 131.689 22.7467 131.913 23.152C132.148 23.5573 132.452 23.8667 132.825 24.08C133.209 24.2933 133.641 24.4 134.121 24.4ZM136.713 26V23.984L136.793 21.712L136.633 19.44V14.128H138.617V26H136.713ZM141.25 26V17.456H143.25V26H141.25ZM142.258 16.048C141.884 16.048 141.575 15.9307 141.33 15.696C141.095 15.4613 140.978 15.1787 140.978 14.848C140.978 14.5067 141.095 14.224 141.33 14C141.575 13.7653 141.884 13.648 142.258 13.648C142.631 13.648 142.935 13.76 143.17 13.984C143.415 14.1973 143.538 14.4693 143.538 14.8C143.538 15.152 143.42 15.4507 143.186 15.696C142.951 15.9307 142.642 16.048 142.258 16.048ZM149.091 26.112C148.152 26.112 147.427 25.872 146.914 25.392C146.403 24.9013 146.147 24.1813 146.147 23.232V15.568H148.147V23.184C148.147 23.5893 148.248 23.904 148.451 24.128C148.664 24.352 148.957 24.464 149.331 24.464C149.779 24.464 150.152 24.3467 150.451 24.112L151.011 25.536C150.776 25.728 150.488 25.872 150.147 25.968C149.805 26.064 149.453 26.112 149.091 26.112ZM144.739 19.12V17.52H150.435V19.12H144.739ZM157.27 26V14.8H161.878C162.87 14.8 163.718 14.96 164.422 15.28C165.136 15.6 165.686 16.0587 166.07 16.656C166.454 17.2533 166.646 17.9627 166.646 18.784C166.646 19.6053 166.454 20.3147 166.07 20.912C165.686 21.5093 165.136 21.968 164.422 22.288C163.718 22.608 162.87 22.768 161.878 22.768H158.422L159.35 21.792V26H157.27ZM159.35 22.016L158.422 21.008H161.782C162.699 21.008 163.387 20.816 163.846 20.432C164.315 20.0373 164.55 19.488 164.55 18.784C164.55 18.0693 164.315 17.52 163.846 17.136C163.387 16.752 162.699 16.56 161.782 16.56H158.422L159.35 15.536V22.016ZM168.453 26V17.456H170.357V19.808L170.133 19.12C170.389 18.544 170.789 18.1067 171.333 17.808C171.887 17.5093 172.575 17.36 173.397 17.36V19.264C173.311 19.2427 173.231 19.232 173.157 19.232C173.082 19.2213 173.007 19.216 172.933 19.216C172.175 19.216 171.573 19.44 171.125 19.888C170.677 20.3253 170.453 20.9813 170.453 21.856V26H168.453ZM178.855 26.112C177.98 26.112 177.202 25.9253 176.519 25.552C175.836 25.168 175.298 24.6453 174.903 23.984C174.508 23.3227 174.311 22.5707 174.311 21.728C174.311 20.8747 174.508 20.1227 174.903 19.472C175.298 18.8107 175.836 18.2933 176.519 17.92C177.202 17.5467 177.98 17.36 178.855 17.36C179.74 17.36 180.524 17.5467 181.207 17.92C181.9 18.2933 182.439 18.8053 182.823 19.456C183.218 20.1067 183.415 20.864 183.415 21.728C183.415 22.5707 183.218 23.3227 182.823 23.984C182.439 24.6453 181.9 25.168 181.207 25.552C180.524 25.9253 179.74 26.112 178.855 26.112ZM178.855 24.4C179.346 24.4 179.783 24.2933 180.167 24.08C180.551 23.8667 180.85 23.5573 181.063 23.152C181.287 22.7467 181.399 22.272 181.399 21.728C181.399 21.1733 181.287 20.6987 181.063 20.304C180.85 19.8987 180.551 19.5893 180.167 19.376C179.783 19.1627 179.351 19.056 178.871 19.056C178.38 19.056 177.943 19.1627 177.559 19.376C177.186 19.5893 176.887 19.8987 176.663 20.304C176.439 20.6987 176.327 21.1733 176.327 21.728C176.327 22.272 176.439 22.7467 176.663 23.152C176.887 23.5573 177.186 23.8667 177.559 24.08C177.943 24.2933 178.375 24.4 178.855 24.4ZM185.6 26V16.976C185.6 16.08 185.861 15.3653 186.384 14.832C186.917 14.288 187.674 14.016 188.656 14.016C189.008 14.016 189.338 14.0533 189.648 14.128C189.968 14.2027 190.234 14.32 190.448 14.48L189.904 15.984C189.754 15.8667 189.584 15.7813 189.392 15.728C189.2 15.664 189.002 15.632 188.8 15.632C188.384 15.632 188.069 15.7493 187.856 15.984C187.642 16.208 187.536 16.5493 187.536 17.008V17.968L187.6 18.864V26H185.6ZM184.192 19.12V17.52H189.888V19.12H184.192ZM191.296 26V17.456H193.296V26H191.296ZM192.304 16.048C191.93 16.048 191.621 15.9307 191.376 15.696C191.141 15.4613 191.024 15.1787 191.024 14.848C191.024 14.5067 191.141 14.224 191.376 14C191.621 13.7653 191.93 13.648 192.304 13.648C192.677 13.648 192.981 13.76 193.216 13.984C193.461 14.1973 193.584 14.4693 193.584 14.8C193.584 15.152 193.466 15.4507 193.232 15.696C192.997 15.9307 192.688 16.048 192.304 16.048ZM195.921 26V14.128H197.921V26H195.921ZM204.562 26.112C203.613 26.112 202.781 25.9253 202.066 25.552C201.362 25.168 200.813 24.6453 200.418 23.984C200.034 23.3227 199.842 22.5707 199.842 21.728C199.842 20.8747 200.029 20.1227 200.402 19.472C200.786 18.8107 201.309 18.2933 201.97 17.92C202.642 17.5467 203.405 17.36 204.258 17.36C205.09 17.36 205.832 17.5413 206.482 17.904C207.133 18.2667 207.645 18.7787 208.018 19.44C208.392 20.1013 208.578 20.88 208.578 21.776C208.578 21.8613 208.573 21.9573 208.562 22.064C208.562 22.1707 208.557 22.272 208.546 22.368H201.426V21.04H207.49L206.706 21.456C206.717 20.9653 206.616 20.5333 206.402 20.16C206.189 19.7867 205.896 19.4933 205.522 19.28C205.16 19.0667 204.738 18.96 204.258 18.96C203.768 18.96 203.336 19.0667 202.962 19.28C202.6 19.4933 202.312 19.792 202.098 20.176C201.896 20.5493 201.794 20.992 201.794 21.504V21.824C201.794 22.336 201.912 22.7893 202.146 23.184C202.381 23.5787 202.712 23.8827 203.138 24.096C203.565 24.3093 204.056 24.416 204.61 24.416C205.09 24.416 205.522 24.3413 205.906 24.192C206.29 24.0427 206.632 23.808 206.93 23.488L208.002 24.72C207.618 25.168 207.133 25.5147 206.546 25.76C205.97 25.9947 205.309 26.112 204.562 26.112Z" fill="#1C1C1C"/>
</svg>
