<svg width="3370" height="2387" viewBox="0 0 3370 2387" fill="none" xmlns="http://www.w3.org/2000/svg">
<path d="M1208.61 668.052C1621.41 444.457 2284.39 355.209 2444.53 548.365C2903.32 1101.75 2702.75 1897.18 2114.22 2012.42C1703.92 2092.76 327.675 2494.83 250.672 2101.57C173.669 1708.3 628.959 982.028 1208.61 668.052Z" fill="#F7C644" fill-opacity="0.4"/>
<path d="M1470.46 505.932C1883.25 282.337 2546.23 193.089 2706.37 386.244C3165.16 939.633 2964.6 1735.06 2376.07 1850.3C1965.77 1930.64 589.52 2332.71 512.517 1939.45C435.513 1546.18 890.804 819.908 1470.46 505.932Z" fill="#F7C644" fill-opacity="0.4"/>
<path d="M1732.3 343.81C2145.1 120.215 2808.07 30.9673 2968.21 224.123C3427 777.512 3226.44 1572.94 2637.91 1688.18C2227.61 1768.52 851.361 2170.59 774.358 1777.32C697.355 1384.06 1152.65 657.787 1732.3 343.81Z" fill="#F7C644" fill-opacity="0.4"/>
</svg>
