<svg width="3571" height="2481" viewBox="0 0 3571 2481" fill="none" xmlns="http://www.w3.org/2000/svg">
<path d="M2269.87 534.624C2737.67 574.035 3341 862.993 3368.98 1112.33C3449.14 1826.69 2845.2 2381.84 2289.87 2155.44C1902.72 1997.61 531.388 1579.07 682.669 1207.99C833.949 836.911 1612.97 479.283 2269.87 534.624Z" fill="#F7C644" fill-opacity="0.4"/>
<path d="M1983.42 548.01C2451.22 587.42 3054.56 876.378 3082.53 1125.72C3162.69 1840.07 2558.75 2395.22 2003.42 2168.83C1616.27 2010.99 244.941 1592.45 396.221 1221.38C547.501 850.297 1326.52 492.668 1983.42 548.01Z" fill="#F7C644" fill-opacity="0.4"/>
<path d="M1696.97 561.395C2164.77 600.806 2768.11 889.764 2796.09 1139.1C2876.24 1853.46 2272.31 2408.61 1716.97 2182.21C1329.82 2024.38 -41.5071 1605.84 109.773 1234.76C261.053 863.682 1040.07 506.054 1696.97 561.395Z" fill="#F7C644" fill-opacity="0.4"/>
</svg>
