<svg width="57" height="66" viewBox="0 0 57 66" fill="none" xmlns="http://www.w3.org/2000/svg">
<path d="M24.7188 40.9635H18.8333C18.1832 40.9635 17.6562 40.4365 17.6562 39.7865V26.2372C17.6562 25.8739 17.824 25.531 18.1107 25.308L27.5273 17.9839C27.9524 17.6533 28.5476 17.6533 28.9727 17.9839L38.3893 25.308C38.676 25.531 38.8438 25.8739 38.8438 26.2372V39.7865C38.8438 40.4365 38.3168 40.9635 37.6667 40.9635H31.7812M24.7188 40.9635V29.7813C24.7188 29.1312 25.2457 28.6042 25.8958 28.6042H30.6042C31.2543 28.6042 31.7812 29.1312 31.7812 29.7813V40.9635M24.7188 40.9635H31.7812" stroke="#1C1C1C" stroke-width="2.35417" stroke-linecap="round"/>
<rect x="16.479" y="44.9634" width="23.5417" height="3.53125" rx="1.76562" fill="#1C1C1C"/>
</svg>
