<svg width="52" height="66" viewBox="0 0 52 66" fill="none" xmlns="http://www.w3.org/2000/svg">
<path fill-rule="evenodd" clip-rule="evenodd" d="M17.6564 30.6042C18.9566 30.6042 20.0106 31.6582 20.0106 32.9583C20.0106 34.2585 18.9566 35.3125 17.6564 35.3125C16.3562 35.3125 15.3022 34.2585 15.3022 32.9583C15.3022 31.6582 16.3562 30.6042 17.6564 30.6042ZM25.896 30.6042C27.1962 30.6042 28.2502 31.6582 28.2502 32.9583C28.2502 34.2585 27.1962 35.3125 25.896 35.3125C24.5958 35.3125 23.5418 34.2585 23.5418 32.9583C23.5418 31.6582 24.5958 30.6042 25.896 30.6042ZM36.4897 32.9583C36.4897 31.6582 35.4357 30.6042 34.1356 30.6042C32.8354 30.6042 31.7814 31.6582 31.7814 32.9583C31.7814 34.2585 32.8354 35.3125 34.1356 35.3125C35.4357 35.3125 36.4897 34.2585 36.4897 32.9583Z" fill="#1C1C1C"/>
</svg>
