<svg width="57" height="66" viewBox="0 0 57 66" fill="none" xmlns="http://www.w3.org/2000/svg">
<path fill-rule="evenodd" clip-rule="evenodd" d="M30.8986 27.3674C30.8986 30.2927 28.5271 32.6642 25.6017 32.6642C22.6763 32.6642 20.3049 30.2927 20.3049 27.3674C20.3049 24.442 22.6763 22.0705 25.6017 22.0705C28.5271 22.0705 30.8986 24.442 30.8986 27.3674ZM30.1155 33.5457C28.8502 34.4717 27.2898 35.0184 25.6017 35.0184C21.3762 35.0184 17.9507 31.5929 17.9507 27.3674C17.9507 23.1418 21.3762 19.7163 25.6017 19.7163C29.8273 19.7163 33.2528 23.1418 33.2528 27.3674C33.2528 29.0554 32.7061 30.6158 31.7801 31.8811L38.2049 38.3059C38.6646 38.7655 38.6646 39.5108 38.2049 39.9705C37.7452 40.4302 36.9999 40.4302 36.5402 39.9705L30.1155 33.5457Z" fill="#1C1C1C"/>
</svg>
