<svg width="52" height="66" viewBox="0 0 52 66" fill="none" xmlns="http://www.w3.org/2000/svg">
<path fill-rule="evenodd" clip-rule="evenodd" d="M31.5979 27.7195C31.8288 31.3598 32.5723 34.5843 34.0402 38.2552H17.7782C19.2701 34.6675 20.0426 31.482 20.2656 27.8784C20.4825 24.3751 23.016 21.776 25.9621 21.776C28.8784 21.776 31.3815 24.3097 31.5979 27.7195ZM17.916 27.733C18.1916 23.2796 21.5002 19.4219 25.9621 19.4219C30.3631 19.4219 33.6687 23.1783 33.9473 27.5705C34.1913 31.4169 35.0447 34.7647 36.8699 38.912C37.2185 39.7041 36.6493 40.6094 35.7839 40.6094H16.0078C15.1338 40.6094 14.5649 39.6876 14.9293 38.8932C16.7913 34.8335 17.6809 31.5313 17.916 27.733ZM24.6661 43.2666C24.5085 42.6359 23.8694 42.2525 23.2387 42.4101C22.608 42.5678 22.2246 43.2069 22.3823 43.8376C22.8332 45.6413 24.4218 46.4948 25.8784 46.4948C27.3349 46.4948 28.9236 45.6413 29.3745 43.8376C29.5322 43.2069 29.1487 42.5678 28.518 42.4101C27.8874 42.2525 27.2483 42.6359 27.0906 43.2666C26.953 43.817 26.4817 44.1406 25.8784 44.1406C25.275 44.1406 24.8038 43.817 24.6661 43.2666Z" fill="#1C1C1C"/>
</svg>
