<svg width="57" height="66" viewBox="0 0 57 66" fill="none" xmlns="http://www.w3.org/2000/svg">
<path d="M24.7188 41.7863H18.8333C18.1832 41.7863 17.6562 41.2593 17.6562 40.6092V27.0599C17.6562 26.6967 17.824 26.3538 18.1107 26.1308L27.5273 18.8067C27.9524 18.4761 28.5476 18.4761 28.9727 18.8067L38.3893 26.1308C38.676 26.3538 38.8438 26.6967 38.8438 27.0599V40.6092C38.8438 41.2593 38.3168 41.7863 37.6667 41.7863H31.7813M24.7188 41.7863V30.604C24.7188 29.9539 25.2457 29.4269 25.8958 29.4269H30.6042C31.2543 29.4269 31.7813 29.9539 31.7813 30.604V41.7863M24.7188 41.7863H31.7813" stroke="#1C1C1C" stroke-width="2.35417" stroke-linecap="round"/>
</svg>
