<svg width="57" height="66" viewBox="0 0 57 66" fill="none" xmlns="http://www.w3.org/2000/svg">
<path fill-rule="evenodd" clip-rule="evenodd" d="M20.0103 20.5988C19.6981 20.5988 19.3987 20.7228 19.1779 20.9436C18.9572 21.1643 18.8332 21.4637 18.8332 21.7759V37.7675L21.5321 35.0686C21.7528 34.8478 22.0522 34.7238 22.3644 34.7238H36.4894C36.8016 34.7238 37.101 34.5998 37.3217 34.379C37.5425 34.1583 37.6665 33.8589 37.6665 33.5467V21.7759C37.6665 21.4637 37.5425 21.1643 37.3217 20.9436C37.101 20.7228 36.8016 20.5988 36.4894 20.5988H20.0103ZM17.5133 19.2789C18.1755 18.6167 19.0737 18.2446 20.0103 18.2446H36.4894C37.426 18.2446 38.3242 18.6167 38.9864 19.2789C39.6486 19.9411 40.0207 20.8393 40.0207 21.7759V33.5467C40.0207 34.4833 39.6486 35.3814 38.9864 36.0437C38.3242 36.7059 37.426 37.078 36.4894 37.078H22.852L18.4884 41.4415C18.1518 41.7782 17.6455 41.8789 17.2056 41.6967C16.7658 41.5145 16.479 41.0853 16.479 40.6092V21.7759C16.479 20.8393 16.851 19.9411 17.5133 19.2789ZM21.1873 25.3071C21.1873 24.657 21.7143 24.13 22.3644 24.13H29.4269C30.077 24.13 30.604 24.657 30.604 25.3071C30.604 25.9572 30.077 26.4842 29.4269 26.4842H22.3644C21.7143 26.4842 21.1873 25.9572 21.1873 25.3071ZM22.3644 28.8384C21.7143 28.8384 21.1873 29.3654 21.1873 30.0155C21.1873 30.6655 21.7143 31.1925 22.3644 31.1925H34.1353C34.7853 31.1925 35.3123 30.6655 35.3123 30.0155C35.3123 29.3654 34.7853 28.8384 34.1353 28.8384H22.3644Z" fill="#1C1C1C"/>
</svg>
