<svg width="23" height="26" viewBox="0 0 23 26" fill="none" xmlns="http://www.w3.org/2000/svg">
<path d="M18.7579 13.6943C18.7464 11.571 19.6988 9.9684 21.6267 8.78816C20.548 7.23186 18.9185 6.37561 16.7669 6.20783C14.7301 6.04584 12.5039 7.40543 11.6892 7.40543C10.8285 7.40543 8.85478 6.26569 7.30563 6.26569C4.10405 6.31776 0.70166 8.84023 0.70166 13.972C0.70166 15.4878 0.977065 17.0537 1.52787 18.6698C2.26229 20.7931 4.91306 26 7.67858 25.9132C9.12445 25.8785 10.1457 24.8776 12.0277 24.8776C13.8522 24.8776 14.7989 25.9132 16.4112 25.9132C19.1997 25.8727 21.598 21.1402 22.298 19.0111C18.5571 17.235 18.7579 13.8042 18.7579 13.6943ZM15.5104 4.19448C17.0768 2.31998 16.9333 0.613262 16.8874 0C15.5047 0.0809969 13.9039 0.948821 12.9916 2.01914C11.9875 3.16466 11.3965 4.58211 11.5228 6.17891C13.0203 6.29461 14.3858 5.51936 15.5104 4.19448Z" fill="black"/>
</svg>
