<svg width="24" height="25" viewBox="0 0 24 25" fill="none" xmlns="http://www.w3.org/2000/svg">
<path d="M8.24103 1.15909C5.25911 2.16032 2.71569 4.35076 1.30363 7.1126C0.810154 8.06697 0.453434 9.08133 0.241123 10.1299C-0.300173 12.7371 0.0766301 15.5125 1.30363 17.8909C2.09884 19.4429 3.2436 20.8206 4.6284 21.8958C5.93765 22.9172 7.45921 23.67 9.07736 24.0933C11.1134 24.631 13.2863 24.6174 15.3424 24.1604C17.2002 23.7436 18.9551 22.8704 20.3533 21.6071C21.8337 20.2698 22.8895 18.5162 23.4518 16.6281C24.062 14.5652 24.1442 12.3677 23.7603 10.2579C19.9215 10.2579 16.0827 10.2579 12.2372 10.2579C12.2372 11.8169 12.2372 13.3825 12.2372 14.9416C14.4583 14.9416 16.6861 14.9416 18.9068 14.9416C18.6462 16.4401 17.7415 17.8042 16.4528 18.6507C15.6437 19.1814 14.7184 19.531 13.7587 19.6923C12.7923 19.8535 11.7982 19.8737 10.8385 19.6857C9.85822 19.4978 8.92578 19.0942 8.11049 18.5298C6.80793 17.6359 5.81428 16.3192 5.30693 14.8473C4.7862 13.3488 4.77902 11.6758 5.30693 10.1773C5.67035 9.12211 6.2805 8.14103 7.0824 7.34838C8.06936 6.35371 9.35136 5.64825 10.7362 5.3595C11.922 5.11107 13.1696 5.15794 14.3282 5.50059C15.3152 5.79637 16.2204 6.32043 16.9673 7.01932C17.7214 6.28668 18.4683 5.54794 19.2224 4.81529C19.613 4.41873 20.0314 4.04233 20.4149 3.63265C19.2769 2.59766 17.9337 1.7647 16.4733 1.24065C13.8548 0.278785 10.8868 0.25863 8.24103 1.15909Z" fill="white"/>
<path d="M8.24126 1.15898C10.887 0.258518 13.8555 0.278674 16.4874 1.23304C17.9473 1.75709 19.2843 2.59052 20.429 3.62504C20.0451 4.02816 19.6338 4.41112 19.2365 4.80768C18.4824 5.54032 17.7355 6.27907 16.9814 7.01171C16.234 6.31281 15.3293 5.7822 14.3423 5.49298C13.1837 5.15033 11.9361 5.10346 10.7503 5.35189C9.36545 5.64064 8.08394 6.35313 7.0965 7.34077C6.2946 8.13388 5.68444 9.11497 5.32103 10.1696C3.98452 9.15481 2.64754 8.13342 1.31104 7.11905C2.71592 4.35065 5.25934 2.16021 8.24126 1.15898Z" fill="#E94435"/>
<path d="M0.241123 10.1298C0.453434 9.08165 0.816848 8.06682 1.30363 7.11246C2.64014 8.12729 3.97712 9.14868 5.31363 10.163C4.78572 11.6616 4.79289 13.3346 5.31363 14.8331C3.97712 15.848 2.64014 16.8694 1.30363 17.8837C0.0766301 15.5189 -0.300173 12.7369 0.241123 10.1298Z" fill="#F8BB15"/>
<path d="M12.2437 10.2506C16.0825 10.2506 19.9213 10.2506 23.7668 10.2506C24.1508 12.3605 24.0686 14.5579 23.4584 16.6209C22.8965 18.509 21.8407 20.2696 20.3598 21.5999C19.0644 20.6122 17.7619 19.6241 16.4732 18.6365C17.7619 17.7965 18.6666 16.4259 18.9272 14.9273C16.7061 14.9273 14.4782 14.9273 12.2576 14.9273C12.237 13.3753 12.2437 11.8162 12.2437 10.2506Z" fill="#547DBE"/>
<path d="M1.30371 17.8907C2.64022 16.8759 3.9772 15.8545 5.3137 14.8401C5.82105 16.3185 6.8147 17.6287 8.11726 18.5226C8.93303 19.0869 9.865 19.4835 10.8453 19.6785C11.805 19.8665 12.8058 19.8463 13.7655 19.6851C14.7252 19.5238 15.6505 19.1746 16.4595 18.6435C17.7549 19.6312 19.0575 20.6193 20.3462 21.6069C18.948 22.8767 17.1931 23.7439 15.3353 24.1602C13.2859 24.6172 11.1126 24.6303 9.07027 24.0931C7.45259 23.6698 5.93055 22.917 4.6213 21.8957C3.24368 20.8138 2.09892 19.4362 1.30371 17.8907Z" fill="#34A751"/>
</svg>
