<svg width="454" height="211" viewBox="0 0 454 211" fill="none" xmlns="http://www.w3.org/2000/svg">
<mask id="mask0_658_3222" style="mask-type:alpha" maskUnits="userSpaceOnUse" x="0" y="0" width="454" height="211">
<rect width="454" height="211" fill="#D9D9D9"/>
</mask>
<g mask="url(#mask0_658_3222)">
<path d="M-60.043 -81.1738C-129.392 -221.105 -177.406 -343.412 -98.585 -394.119C122.49 -512.255 271.018 -633.782 374.581 -442.919C443.931 -302.988 585.726 32.089 451.604 98.559C317.483 165.029 58.7887 128.74 -60.043 -81.1738Z" fill="#F7C644" fill-opacity="0.4"/>
<path d="M-95.5713 -124.852C-164.921 -264.783 -212.935 -387.09 -134.113 -437.797C86.9616 -555.933 235.49 -677.459 339.053 -486.597C408.402 -346.665 550.197 -11.5888 416.076 54.8813C281.954 121.351 23.2604 85.0625 -95.5713 -124.852Z" fill="#F7C644" fill-opacity="0.4"/>
<path d="M-131.1 -168.529C-200.449 -308.46 -248.463 -430.767 -169.642 -481.474C51.4333 -599.611 199.961 -721.137 303.525 -530.274C372.874 -390.343 514.669 -55.2665 380.548 11.2035C246.426 77.6736 -12.2679 41.3848 -131.1 -168.529Z" fill="#F7C644" fill-opacity="0.4"/>
</g>
</svg>
