<svg width="454" height="280" viewBox="0 0 454 280" fill="none" xmlns="http://www.w3.org/2000/svg">
<mask id="mask0_662_3244" style="mask-type:alpha" maskUnits="userSpaceOnUse" x="0" y="0" width="454" height="280">
<rect width="454" height="280" fill="#D9D9D9"/>
</mask>
<g mask="url(#mask0_662_3244)">
<path d="M23.1022 252.294C-113.751 208.968 -224.988 161.669 -205.45 68.1824C-135.032 -177.637 -93.6551 -398.716 68.9746 -310.308C205.828 -266.982 525.996 -153.862 479.902 -8.26729C433.809 137.327 238.241 306.214 23.1022 252.294Z" fill="#F7C644" fill-opacity="0.4"/>
<path d="M93.9053 207.784C-62.2675 208.14 -193.201 197.149 -203.846 104.032C-212.098 -146.492 -242.276 -365.256 -44.4852 -331.204C111.688 -331.56 480.939 -321.414 481.28 -171.725C481.622 -22.0363 334.725 193.975 93.9053 207.784Z" fill="#F7C644" fill-opacity="0.4"/>
<path d="M65.9053 162.784C-90.2675 163.14 -221.201 152.149 -231.846 59.0321C-240.098 -191.492 -270.276 -410.256 -72.4852 -376.204C83.6876 -376.56 452.939 -366.414 453.28 -216.725C453.622 -67.0363 306.725 148.975 65.9053 162.784Z" fill="#F7C644" fill-opacity="0.4"/>
</g>
</svg>
