<svg width="188" height="40" viewBox="0 0 188 40" fill="none" xmlns="http://www.w3.org/2000/svg">
<rect x="0.5" y="0.5" width="187" height="39" rx="7.5" stroke="#143810"/>
<path d="M51.9865 19.456H57.5545V21.168H51.9865V19.456ZM52.1465 24.256H58.4665V26H50.0665V14.8H58.2425V16.544H52.1465V24.256ZM64.1311 26.112C63.3098 26.112 62.5685 25.9307 61.9071 25.568C61.2565 25.1947 60.7445 24.6827 60.3711 24.032C59.9978 23.3813 59.8111 22.6133 59.8111 21.728C59.8111 20.8427 59.9978 20.0747 60.3711 19.424C60.7445 18.7733 61.2565 18.2667 61.9071 17.904C62.5685 17.5413 63.3098 17.36 64.1311 17.36C64.8458 17.36 65.4858 17.52 66.0511 17.84C66.6165 18.1493 67.0645 18.624 67.3951 19.264C67.7258 19.904 67.8911 20.7253 67.8911 21.728C67.8911 22.72 67.7311 23.5413 67.4111 24.192C67.0911 24.832 66.6485 25.312 66.0831 25.632C65.5178 25.952 64.8671 26.112 64.1311 26.112ZM64.3711 24.4C64.8511 24.4 65.2778 24.2933 65.6511 24.08C66.0351 23.8667 66.3391 23.5573 66.5631 23.152C66.7978 22.7467 66.9151 22.272 66.9151 21.728C66.9151 21.1733 66.7978 20.6987 66.5631 20.304C66.3391 19.8987 66.0351 19.5893 65.6511 19.376C65.2778 19.1627 64.8511 19.056 64.3711 19.056C63.8911 19.056 63.4591 19.1627 63.0751 19.376C62.7018 19.5893 62.3978 19.8987 62.1631 20.304C61.9391 20.6987 61.8271 21.1733 61.8271 21.728C61.8271 22.272 61.9391 22.7467 62.1631 23.152C62.3978 23.5573 62.7018 23.8667 63.0751 24.08C63.4591 24.2933 63.8911 24.4 64.3711 24.4ZM66.9631 26V23.984L67.0431 21.712L66.8831 19.44V14.128H68.8671V26H66.9631ZM71.4995 26V17.456H73.4995V26H71.4995ZM72.5075 16.048C72.1342 16.048 71.8248 15.9307 71.5795 15.696C71.3448 15.4613 71.2275 15.1787 71.2275 14.848C71.2275 14.5067 71.3448 14.224 71.5795 14C71.8248 13.7653 72.1342 13.648 72.5075 13.648C72.8808 13.648 73.1848 13.76 73.4195 13.984C73.6648 14.1973 73.7875 14.4693 73.7875 14.8C73.7875 15.152 73.6702 15.4507 73.4355 15.696C73.2008 15.9307 72.8915 16.048 72.5075 16.048ZM79.3405 26.112C78.4018 26.112 77.6765 25.872 77.1645 25.392C76.6525 24.9013 76.3965 24.1813 76.3965 23.232V15.568H78.3965V23.184C78.3965 23.5893 78.4978 23.904 78.7005 24.128C78.9138 24.352 79.2072 24.464 79.5805 24.464C80.0285 24.464 80.4018 24.3467 80.7005 24.112L81.2605 25.536C81.0258 25.728 80.7378 25.872 80.3965 25.968C80.0552 26.064 79.7032 26.112 79.3405 26.112ZM74.9885 19.12V17.52H80.6845V19.12H74.9885ZM87.5196 26V14.8H92.1276C93.1196 14.8 93.9676 14.96 94.6716 15.28C95.3863 15.6 95.9356 16.0587 96.3196 16.656C96.7036 17.2533 96.8956 17.9627 96.8956 18.784C96.8956 19.6053 96.7036 20.3147 96.3196 20.912C95.9356 21.5093 95.3863 21.968 94.6716 22.288C93.9676 22.608 93.1196 22.768 92.1276 22.768H88.6716L89.5996 21.792V26H87.5196ZM89.5996 22.016L88.6716 21.008H92.0316C92.949 21.008 93.637 20.816 94.0956 20.432C94.565 20.0373 94.7996 19.488 94.7996 18.784C94.7996 18.0693 94.565 17.52 94.0956 17.136C93.637 16.752 92.949 16.56 92.0316 16.56H88.6716L89.5996 15.536V22.016ZM98.7026 26V17.456H100.607V19.808L100.383 19.12C100.639 18.544 101.039 18.1067 101.583 17.808C102.137 17.5093 102.825 17.36 103.647 17.36V19.264C103.561 19.2427 103.481 19.232 103.407 19.232C103.332 19.2213 103.257 19.216 103.183 19.216C102.425 19.216 101.823 19.44 101.375 19.888C100.927 20.3253 100.703 20.9813 100.703 21.856V26H98.7026ZM109.105 26.112C108.23 26.112 107.452 25.9253 106.769 25.552C106.086 25.168 105.548 24.6453 105.153 23.984C104.758 23.3227 104.561 22.5707 104.561 21.728C104.561 20.8747 104.758 20.1227 105.153 19.472C105.548 18.8107 106.086 18.2933 106.769 17.92C107.452 17.5467 108.23 17.36 109.105 17.36C109.99 17.36 110.774 17.5467 111.457 17.92C112.15 18.2933 112.689 18.8053 113.073 19.456C113.468 20.1067 113.665 20.864 113.665 21.728C113.665 22.5707 113.468 23.3227 113.073 23.984C112.689 24.6453 112.15 25.168 111.457 25.552C110.774 25.9253 109.99 26.112 109.105 26.112ZM109.105 24.4C109.596 24.4 110.033 24.2933 110.417 24.08C110.801 23.8667 111.1 23.5573 111.313 23.152C111.537 22.7467 111.649 22.272 111.649 21.728C111.649 21.1733 111.537 20.6987 111.313 20.304C111.1 19.8987 110.801 19.5893 110.417 19.376C110.033 19.1627 109.601 19.056 109.121 19.056C108.63 19.056 108.193 19.1627 107.809 19.376C107.436 19.5893 107.137 19.8987 106.913 20.304C106.689 20.6987 106.577 21.1733 106.577 21.728C106.577 22.272 106.689 22.7467 106.913 23.152C107.137 23.5573 107.436 23.8667 107.809 24.08C108.193 24.2933 108.625 24.4 109.105 24.4ZM115.85 26V16.976C115.85 16.08 116.111 15.3653 116.634 14.832C117.167 14.288 117.924 14.016 118.906 14.016C119.258 14.016 119.588 14.0533 119.898 14.128C120.218 14.2027 120.484 14.32 120.698 14.48L120.154 15.984C120.004 15.8667 119.834 15.7813 119.642 15.728C119.45 15.664 119.252 15.632 119.05 15.632C118.634 15.632 118.319 15.7493 118.106 15.984C117.892 16.208 117.786 16.5493 117.786 17.008V17.968L117.85 18.864V26H115.85ZM114.442 19.12V17.52H120.138V19.12H114.442ZM121.546 26V17.456H123.546V26H121.546ZM122.554 16.048C122.18 16.048 121.871 15.9307 121.626 15.696C121.391 15.4613 121.274 15.1787 121.274 14.848C121.274 14.5067 121.391 14.224 121.626 14C121.871 13.7653 122.18 13.648 122.554 13.648C122.927 13.648 123.231 13.76 123.466 13.984C123.711 14.1973 123.834 14.4693 123.834 14.8C123.834 15.152 123.716 15.4507 123.482 15.696C123.247 15.9307 122.938 16.048 122.554 16.048ZM126.171 26V14.128H128.171V26H126.171ZM134.812 26.112C133.863 26.112 133.031 25.9253 132.316 25.552C131.612 25.168 131.063 24.6453 130.668 23.984C130.284 23.3227 130.092 22.5707 130.092 21.728C130.092 20.8747 130.279 20.1227 130.652 19.472C131.036 18.8107 131.559 18.2933 132.22 17.92C132.892 17.5467 133.655 17.36 134.508 17.36C135.34 17.36 136.082 17.5413 136.732 17.904C137.383 18.2667 137.895 18.7787 138.268 19.44C138.642 20.1013 138.828 20.88 138.828 21.776C138.828 21.8613 138.823 21.9573 138.812 22.064C138.812 22.1707 138.807 22.272 138.796 22.368H131.676V21.04H137.74L136.956 21.456C136.967 20.9653 136.866 20.5333 136.652 20.16C136.439 19.7867 136.146 19.4933 135.772 19.28C135.41 19.0667 134.988 18.96 134.508 18.96C134.018 18.96 133.586 19.0667 133.212 19.28C132.85 19.4933 132.562 19.792 132.348 20.176C132.146 20.5493 132.044 20.992 132.044 21.504V21.824C132.044 22.336 132.162 22.7893 132.396 23.184C132.631 23.5787 132.962 23.8827 133.388 24.096C133.815 24.3093 134.306 24.416 134.86 24.416C135.34 24.416 135.772 24.3413 136.156 24.192C136.54 24.0427 136.882 23.808 137.18 23.488L138.252 24.72C137.868 25.168 137.383 25.5147 136.796 25.76C136.22 25.9947 135.559 26.112 134.812 26.112Z" fill="#1C1C1C"/>
</svg>
