<svg width="470" height="96" viewBox="0 0 470 96" fill="none" xmlns="http://www.w3.org/2000/svg">
<g filter="url(#filter0_d_662_3064)">
<path d="M8 17C8 12.5817 11.5817 9 16 9H454C458.418 9 462 12.5817 462 17V89H8V17Z" fill="#FCFDF6" shape-rendering="crispEdges"/>
<path d="M64 43H59C58.4477 43 58 42.5523 58 42V30.4891C58 30.1805 58.1425 29.8892 58.3861 29.6997L66.3861 23.4775C66.7472 23.1966 67.2528 23.1966 67.6139 23.4775L75.6139 29.6997C75.8575 29.8892 76 30.1805 76 30.4891V42C76 42.5523 75.5523 43 75 43H70M64 43V33.5C64 32.9477 64.4477 32.5 65 32.5H69C69.5523 32.5 70 32.9477 70 33.5V43M64 43H70" stroke="#1C1C1C" stroke-width="2" stroke-linecap="round"/>
<rect x="57" y="45" width="20" height="3" rx="1.5" fill="#1C1C1C"/>
<path fill-rule="evenodd" clip-rule="evenodd" d="M154.5 29.5C154.5 31.9853 152.485 34 150 34C147.515 34 145.5 31.9853 145.5 29.5C145.5 27.0147 147.515 25 150 25C152.485 25 154.5 27.0147 154.5 29.5ZM153.835 34.7489C152.76 35.5356 151.434 36 150 36C146.41 36 143.5 33.0899 143.5 29.5C143.5 25.9101 146.41 23 150 23C153.59 23 156.5 25.9101 156.5 29.5C156.5 30.9341 156.036 32.2597 155.249 33.3347L160.707 38.7929C161.098 39.1834 161.098 39.8166 160.707 40.2071C160.317 40.5976 159.683 40.5976 159.293 40.2071L153.835 34.7489Z" fill="#1C1C1C"/>
<path d="M237.422 27.5V36.5M232.922 32H241.922M228.422 24V40C228.422 40.5523 228.87 41 229.422 41H245.578C246.13 41 246.578 40.5523 246.578 40V24C246.578 23.4477 246.13 23 245.578 23H229.422C228.87 23 228.422 23.4477 228.422 24Z" stroke="#1C1C1C" stroke-width="2" stroke-linecap="round"/>
<path fill-rule="evenodd" clip-rule="evenodd" d="M315.75 25C315.485 25 315.23 25.1054 315.043 25.2929C314.855 25.4804 314.75 25.7348 314.75 26V39.5858L317.043 37.2929C317.23 37.1054 317.485 37 317.75 37H329.75C330.015 37 330.27 36.8946 330.457 36.7071C330.645 36.5196 330.75 36.2652 330.75 36V26C330.75 25.7348 330.645 25.4804 330.457 25.2929C330.27 25.1054 330.015 25 329.75 25H315.75ZM313.629 23.8787C314.191 23.3161 314.954 23 315.75 23H329.75C330.546 23 331.309 23.3161 331.871 23.8787C332.434 24.4413 332.75 25.2043 332.75 26V36C332.75 36.7957 332.434 37.5587 331.871 38.1213C331.309 38.6839 330.546 39 329.75 39H318.164L314.457 42.7071C314.171 42.9931 313.741 43.0787 313.367 42.9239C312.994 42.7691 312.75 42.4045 312.75 42V26C312.75 25.2044 313.066 24.4413 313.629 23.8787ZM316.75 29C316.75 28.4477 317.198 28 317.75 28H323.75C324.302 28 324.75 28.4477 324.75 29C324.75 29.5523 324.302 30 323.75 30H317.75C317.198 30 316.75 29.5523 316.75 29ZM317.75 32C317.198 32 316.75 32.4477 316.75 33C316.75 33.5523 317.198 34 317.75 34H327.75C328.302 34 328.75 33.5523 328.75 33C328.75 32.4477 328.302 32 327.75 32H317.75Z" fill="#1C1C1C"/>
<circle cx="405.5" cy="30.5" r="10.5" stroke="#1C1C1C" stroke-width="2"/>
<circle cx="405.5" cy="29.5" r="3.5" stroke="#1C1C1C" stroke-width="2"/>
<path d="M400 39C400 38.227 400.299 37.7528 400.896 36.8845C401.275 36.3336 401.902 36 402.571 36C404.292 36 405.742 36 408.429 36C409.098 36 409.728 36.3315 410.093 36.8921C410.615 37.6956 410.802 38.0908 411 39" stroke="#1C1C1C" stroke-width="2" stroke-linecap="round"/>
<rect x="168" y="76" width="134" height="5" rx="2.5" fill="#1C1C1C"/>
</g>
<defs>
<filter id="filter0_d_662_3064" x="0" y="0" width="470" height="96" filterUnits="userSpaceOnUse" color-interpolation-filters="sRGB">
<feFlood flood-opacity="0" result="BackgroundImageFix"/>
<feColorMatrix in="SourceAlpha" type="matrix" values="0 0 0 0 0 0 0 0 0 0 0 0 0 0 0 0 0 0 127 0" result="hardAlpha"/>
<feOffset dy="-1"/>
<feGaussianBlur stdDeviation="4"/>
<feComposite in2="hardAlpha" operator="out"/>
<feColorMatrix type="matrix" values="0 0 0 0 0 0 0 0 0 0 0 0 0 0 0 0 0 0 0.25 0"/>
<feBlend mode="normal" in2="BackgroundImageFix" result="effect1_dropShadow_662_3064"/>
<feBlend mode="normal" in="SourceGraphic" in2="effect1_dropShadow_662_3064" result="shape"/>
</filter>
</defs>
</svg>
