<svg width="188" height="40" viewBox="0 0 188 40" fill="none" xmlns="http://www.w3.org/2000/svg">
<rect width="188" height="40" rx="8" fill="#143810"/>
<path fill-rule="evenodd" clip-rule="evenodd" d="M54.2106 16.3092C54.2106 15.9167 53.8925 15.5986 53.5001 15.5986C53.1076 15.5986 52.7895 15.9167 52.7895 16.3092V19.2895H49.8092C49.4168 19.2895 49.0987 19.6076 49.0987 20C49.0987 20.3924 49.4168 20.7105 49.8092 20.7105H52.7895V23.6907C52.7895 24.0832 53.1076 24.4013 53.5001 24.4013C53.8925 24.4013 54.2106 24.0832 54.2106 23.6907V20.7105H57.1908C57.5832 20.7105 57.9013 20.3924 57.9013 20C57.9013 19.6076 57.5832 19.2895 57.1908 19.2895H54.2106V16.3092Z" fill="#FCFDF6"/>
<path d="M64.1237 26V14.8H65.0997L72.8277 24.528H72.3157V14.8H73.4837V26H72.5077L64.7957 16.272H65.3077V26H64.1237ZM80.4674 26.08C79.5927 26.08 78.8247 25.8987 78.1634 25.536C77.502 25.1627 76.9847 24.656 76.6114 24.016C76.238 23.3653 76.0514 22.624 76.0514 21.792C76.0514 20.96 76.2274 20.224 76.5794 19.584C76.942 18.944 77.4327 18.4427 78.0514 18.08C78.6807 17.7067 79.3847 17.52 80.1634 17.52C80.9527 17.52 81.6514 17.7013 82.2594 18.064C82.878 18.416 83.3634 18.9173 83.7154 19.568C84.0674 20.208 84.2434 20.9493 84.2434 21.792C84.2434 21.8453 84.238 21.904 84.2274 21.968C84.2274 22.0213 84.2274 22.08 84.2274 22.144H76.9154V21.296H83.6194L83.1714 21.632C83.1714 21.024 83.038 20.4853 82.7714 20.016C82.5154 19.536 82.1634 19.1627 81.7154 18.896C81.2674 18.6293 80.75 18.496 80.1634 18.496C79.5874 18.496 79.07 18.6293 78.6114 18.896C78.1527 19.1627 77.7954 19.536 77.5394 20.016C77.2834 20.496 77.1554 21.0453 77.1554 21.664V21.84C77.1554 22.48 77.294 23.0453 77.5714 23.536C77.8594 24.016 78.254 24.3947 78.7554 24.672C79.2674 24.9387 79.8487 25.072 80.4994 25.072C81.0114 25.072 81.486 24.9813 81.9234 24.8C82.3714 24.6187 82.7554 24.3413 83.0754 23.968L83.7154 24.704C83.342 25.152 82.8727 25.4933 82.3074 25.728C81.7527 25.9627 81.1394 26.08 80.4674 26.08ZM88.1114 26L84.9434 17.6H86.0314L88.9114 25.392H88.4154L91.3754 17.6H92.3514L95.2794 25.392H94.7834L97.7114 17.6H98.7514L95.5674 26H94.4954L91.6794 18.672H92.0154L89.1834 26H88.1114ZM104.889 26V14.8H109.081C110.031 14.8 110.847 14.9547 111.529 15.264C112.212 15.5627 112.735 16 113.097 16.576C113.471 17.1413 113.657 17.8293 113.657 18.64C113.657 19.4293 113.471 20.112 113.097 20.688C112.735 21.2533 112.212 21.6907 111.529 22C110.847 22.3093 110.031 22.464 109.081 22.464H105.545L106.073 21.904V26H104.889ZM106.073 22L105.545 21.424H109.049C110.169 21.424 111.017 21.184 111.593 20.704C112.18 20.2133 112.473 19.5253 112.473 18.64C112.473 17.744 112.18 17.0507 111.593 16.56C111.017 16.0693 110.169 15.824 109.049 15.824H105.545L106.073 15.264V22ZM119.355 26.08C118.544 26.08 117.813 25.8987 117.163 25.536C116.523 25.1627 116.016 24.656 115.643 24.016C115.269 23.3653 115.083 22.624 115.083 21.792C115.083 20.9493 115.269 20.208 115.643 19.568C116.016 18.928 116.523 18.4267 117.163 18.064C117.803 17.7013 118.533 17.52 119.355 17.52C120.187 17.52 120.923 17.7013 121.563 18.064C122.213 18.4267 122.72 18.928 123.083 19.568C123.456 20.208 123.643 20.9493 123.643 21.792C123.643 22.624 123.456 23.3653 123.083 24.016C122.72 24.656 122.213 25.1627 121.563 25.536C120.912 25.8987 120.176 26.08 119.355 26.08ZM119.355 25.072C119.963 25.072 120.501 24.9387 120.971 24.672C121.44 24.3947 121.808 24.0107 122.075 23.52C122.352 23.0187 122.491 22.4427 122.491 21.792C122.491 21.1307 122.352 20.5547 122.075 20.064C121.808 19.5733 121.44 19.1947 120.971 18.928C120.501 18.6507 119.968 18.512 119.371 18.512C118.773 18.512 118.24 18.6507 117.771 18.928C117.301 19.1947 116.928 19.5733 116.651 20.064C116.373 20.5547 116.235 21.1307 116.235 21.792C116.235 22.4427 116.373 23.0187 116.651 23.52C116.928 24.0107 117.301 24.3947 117.771 24.672C118.24 24.9387 118.768 25.072 119.355 25.072ZM128.218 26.08C127.525 26.08 126.869 25.984 126.25 25.792C125.631 25.5893 125.146 25.3387 124.794 25.04L125.306 24.144C125.647 24.4 126.085 24.624 126.618 24.816C127.151 24.9973 127.711 25.088 128.298 25.088C129.098 25.088 129.674 24.9653 130.026 24.72C130.378 24.464 130.554 24.128 130.554 23.712C130.554 23.4027 130.453 23.1627 130.25 22.992C130.058 22.8107 129.802 22.6773 129.482 22.592C129.162 22.496 128.805 22.416 128.41 22.352C128.015 22.288 127.621 22.2133 127.226 22.128C126.842 22.0427 126.49 21.92 126.17 21.76C125.85 21.5893 125.589 21.36 125.386 21.072C125.194 20.784 125.098 20.4 125.098 19.92C125.098 19.4613 125.226 19.0507 125.482 18.688C125.738 18.3253 126.111 18.0427 126.602 17.84C127.103 17.6267 127.711 17.52 128.426 17.52C128.97 17.52 129.514 17.5947 130.058 17.744C130.602 17.8827 131.05 18.0693 131.402 18.304L130.906 19.216C130.533 18.96 130.133 18.7787 129.706 18.672C129.279 18.5547 128.853 18.496 128.426 18.496C127.669 18.496 127.109 18.6293 126.746 18.896C126.394 19.152 126.218 19.4827 126.218 19.888C126.218 20.208 126.314 20.4587 126.506 20.64C126.709 20.8213 126.97 20.9653 127.29 21.072C127.621 21.168 127.978 21.248 128.362 21.312C128.757 21.376 129.146 21.456 129.53 21.552C129.925 21.6373 130.282 21.76 130.602 21.92C130.933 22.0693 131.194 22.288 131.386 22.576C131.589 22.8533 131.69 23.2213 131.69 23.68C131.69 24.1707 131.551 24.5973 131.274 24.96C131.007 25.312 130.613 25.5893 130.09 25.792C129.578 25.984 128.954 26.08 128.218 26.08ZM136.43 26.08C135.641 26.08 135.033 25.8667 134.606 25.44C134.18 25.0133 133.966 24.4107 133.966 23.632V15.744H135.102V23.568C135.102 24.0587 135.225 24.4373 135.47 24.704C135.726 24.9707 136.089 25.104 136.558 25.104C137.06 25.104 137.476 24.96 137.806 24.672L138.206 25.488C137.982 25.6907 137.71 25.84 137.39 25.936C137.081 26.032 136.761 26.08 136.43 26.08ZM132.462 18.544V17.6H137.662V18.544H132.462Z" fill="#FCFDF6"/>
</svg>
