<svg width="384" height="40" viewBox="0 0 384 40" fill="none" xmlns="http://www.w3.org/2000/svg">
<rect x="0.5" y="0.5" width="383" height="39" rx="7.5" stroke="#717171"/>
<path d="M136.234 26.16C135.359 26.16 134.522 26.0373 133.722 25.792C132.922 25.536 132.287 25.2107 131.818 24.816L132.538 23.2C132.986 23.552 133.54 23.8453 134.202 24.08C134.863 24.3147 135.54 24.432 136.234 24.432C136.82 24.432 137.295 24.368 137.658 24.24C138.02 24.112 138.287 23.9413 138.458 23.728C138.628 23.504 138.714 23.2533 138.714 22.976C138.714 22.6347 138.591 22.3627 138.346 22.16C138.1 21.9467 137.78 21.7813 137.386 21.664C137.002 21.536 136.57 21.4187 136.09 21.312C135.62 21.2053 135.146 21.0827 134.666 20.944C134.196 20.7947 133.764 20.608 133.37 20.384C132.986 20.1493 132.671 19.84 132.426 19.456C132.18 19.072 132.058 18.5813 132.058 17.984C132.058 17.376 132.218 16.8213 132.538 16.32C132.868 15.808 133.364 15.4027 134.026 15.104C134.698 14.7947 135.546 14.64 136.57 14.64C137.242 14.64 137.908 14.7253 138.57 14.896C139.231 15.0667 139.807 15.312 140.298 15.632L139.642 17.248C139.14 16.9493 138.623 16.7307 138.09 16.592C137.556 16.4427 137.044 16.368 136.554 16.368C135.978 16.368 135.508 16.4373 135.146 16.576C134.794 16.7147 134.532 16.896 134.362 17.12C134.202 17.344 134.122 17.6 134.122 17.888C134.122 18.2293 134.239 18.5067 134.474 18.72C134.719 18.9227 135.034 19.0827 135.418 19.2C135.812 19.3173 136.25 19.4347 136.73 19.552C137.21 19.6587 137.684 19.7813 138.154 19.92C138.634 20.0587 139.066 20.24 139.45 20.464C139.844 20.688 140.159 20.992 140.394 21.376C140.639 21.76 140.762 22.2453 140.762 22.832C140.762 23.4293 140.596 23.984 140.266 24.496C139.946 24.9973 139.45 25.4027 138.778 25.712C138.106 26.0107 137.258 26.16 136.234 26.16ZM146.648 26.112C145.699 26.112 144.867 25.9253 144.152 25.552C143.448 25.168 142.899 24.6453 142.504 23.984C142.12 23.3227 141.928 22.5707 141.928 21.728C141.928 20.8747 142.115 20.1227 142.488 19.472C142.872 18.8107 143.395 18.2933 144.056 17.92C144.728 17.5467 145.491 17.36 146.344 17.36C147.176 17.36 147.918 17.5413 148.568 17.904C149.219 18.2667 149.731 18.7787 150.104 19.44C150.478 20.1013 150.664 20.88 150.664 21.776C150.664 21.8613 150.659 21.9573 150.648 22.064C150.648 22.1707 150.643 22.272 150.632 22.368H143.512V21.04H149.576L148.792 21.456C148.803 20.9653 148.702 20.5333 148.488 20.16C148.275 19.7867 147.982 19.4933 147.608 19.28C147.246 19.0667 146.824 18.96 146.344 18.96C145.854 18.96 145.422 19.0667 145.048 19.28C144.686 19.4933 144.398 19.792 144.184 20.176C143.982 20.5493 143.88 20.992 143.88 21.504V21.824C143.88 22.336 143.998 22.7893 144.232 23.184C144.467 23.5787 144.798 23.8827 145.224 24.096C145.651 24.3093 146.142 24.416 146.696 24.416C147.176 24.416 147.608 24.3413 147.992 24.192C148.376 24.0427 148.718 23.808 149.016 23.488L150.088 24.72C149.704 25.168 149.219 25.5147 148.632 25.76C148.056 25.9947 147.395 26.112 146.648 26.112ZM156.601 26.112C155.652 26.112 154.82 25.9253 154.105 25.552C153.401 25.168 152.852 24.6453 152.457 23.984C152.073 23.3227 151.881 22.5707 151.881 21.728C151.881 20.8747 152.068 20.1227 152.441 19.472C152.825 18.8107 153.348 18.2933 154.009 17.92C154.681 17.5467 155.444 17.36 156.297 17.36C157.129 17.36 157.871 17.5413 158.521 17.904C159.172 18.2667 159.684 18.7787 160.057 19.44C160.431 20.1013 160.617 20.88 160.617 21.776C160.617 21.8613 160.612 21.9573 160.601 22.064C160.601 22.1707 160.596 22.272 160.585 22.368H153.465V21.04H159.529L158.745 21.456C158.756 20.9653 158.655 20.5333 158.441 20.16C158.228 19.7867 157.935 19.4933 157.561 19.28C157.199 19.0667 156.777 18.96 156.297 18.96C155.807 18.96 155.375 19.0667 155.001 19.28C154.639 19.4933 154.351 19.792 154.137 20.176C153.935 20.5493 153.833 20.992 153.833 21.504V21.824C153.833 22.336 153.951 22.7893 154.185 23.184C154.42 23.5787 154.751 23.8827 155.177 24.096C155.604 24.3093 156.095 24.416 156.649 24.416C157.129 24.416 157.561 24.3413 157.945 24.192C158.329 24.0427 158.671 23.808 158.969 23.488L160.041 24.72C159.657 25.168 159.172 25.5147 158.585 25.76C158.009 25.9947 157.348 26.112 156.601 26.112ZM165.568 26L170.608 14.8H172.656L177.712 26H175.536L171.2 15.904H172.032L167.712 26H165.568ZM167.888 23.408L168.448 21.776H174.496L175.056 23.408H167.888ZM178.945 26V14.128H180.945V26H178.945ZM183.57 26V14.128H185.57V26H183.57ZM194.713 19.952H200.297V21.712H194.713V19.952ZM194.889 26H192.809V14.8H200.985V16.544H194.889V26ZM202.648 26V17.456H204.552V19.808L204.328 19.12C204.584 18.544 204.984 18.1067 205.528 17.808C206.083 17.5093 206.771 17.36 207.592 17.36V19.264C207.507 19.2427 207.427 19.232 207.352 19.232C207.277 19.2213 207.203 19.216 207.128 19.216C206.371 19.216 205.768 19.44 205.32 19.888C204.872 20.3253 204.648 20.9813 204.648 21.856V26H202.648ZM209.289 26V17.456H211.289V26H209.289ZM210.297 16.048C209.923 16.048 209.614 15.9307 209.369 15.696C209.134 15.4613 209.017 15.1787 209.017 14.848C209.017 14.5067 209.134 14.224 209.369 14C209.614 13.7653 209.923 13.648 210.297 13.648C210.67 13.648 210.974 13.76 211.209 13.984C211.454 14.1973 211.577 14.4693 211.577 14.8C211.577 15.152 211.459 15.4507 211.225 15.696C210.99 15.9307 210.681 16.048 210.297 16.048ZM217.93 26.112C216.98 26.112 216.148 25.9253 215.434 25.552C214.73 25.168 214.18 24.6453 213.786 23.984C213.402 23.3227 213.21 22.5707 213.21 21.728C213.21 20.8747 213.396 20.1227 213.77 19.472C214.154 18.8107 214.676 18.2933 215.338 17.92C216.01 17.5467 216.772 17.36 217.626 17.36C218.458 17.36 219.199 17.5413 219.85 17.904C220.5 18.2667 221.012 18.7787 221.386 19.44C221.759 20.1013 221.946 20.88 221.946 21.776C221.946 21.8613 221.94 21.9573 221.93 22.064C221.93 22.1707 221.924 22.272 221.914 22.368H214.794V21.04H220.858L220.074 21.456C220.084 20.9653 219.983 20.5333 219.77 20.16C219.556 19.7867 219.263 19.4933 218.89 19.28C218.527 19.0667 218.106 18.96 217.626 18.96C217.135 18.96 216.703 19.0667 216.33 19.28C215.967 19.4933 215.679 19.792 215.466 20.176C215.263 20.5493 215.162 20.992 215.162 21.504V21.824C215.162 22.336 215.279 22.7893 215.514 23.184C215.748 23.5787 216.079 23.8827 216.506 24.096C216.932 24.3093 217.423 24.416 217.978 24.416C218.458 24.416 218.89 24.3413 219.274 24.192C219.658 24.0427 219.999 23.808 220.298 23.488L221.37 24.72C220.986 25.168 220.5 25.5147 219.914 25.76C219.338 25.9947 218.676 26.112 217.93 26.112ZM228.715 17.36C229.397 17.36 230.005 17.4933 230.539 17.76C231.083 18.0267 231.509 18.4373 231.819 18.992C232.128 19.536 232.283 20.24 232.283 21.104V26H230.283V21.36C230.283 20.6027 230.101 20.0373 229.739 19.664C229.387 19.2907 228.891 19.104 228.251 19.104C227.781 19.104 227.365 19.2 227.003 19.392C226.64 19.584 226.357 19.872 226.155 20.256C225.963 20.6293 225.867 21.104 225.867 21.68V26H223.867V17.456H225.771V19.76L225.435 19.056C225.733 18.512 226.165 18.096 226.731 17.808C227.307 17.5093 227.968 17.36 228.715 17.36ZM238.451 26.112C237.63 26.112 236.889 25.9307 236.227 25.568C235.577 25.1947 235.065 24.6827 234.691 24.032C234.318 23.3813 234.131 22.6133 234.131 21.728C234.131 20.8427 234.318 20.0747 234.691 19.424C235.065 18.7733 235.577 18.2667 236.227 17.904C236.889 17.5413 237.63 17.36 238.451 17.36C239.166 17.36 239.806 17.52 240.371 17.84C240.937 18.1493 241.385 18.624 241.715 19.264C242.046 19.904 242.211 20.7253 242.211 21.728C242.211 22.72 242.051 23.5413 241.731 24.192C241.411 24.832 240.969 25.312 240.403 25.632C239.838 25.952 239.187 26.112 238.451 26.112ZM238.691 24.4C239.171 24.4 239.598 24.2933 239.971 24.08C240.355 23.8667 240.659 23.5573 240.883 23.152C241.118 22.7467 241.235 22.272 241.235 21.728C241.235 21.1733 241.118 20.6987 240.883 20.304C240.659 19.8987 240.355 19.5893 239.971 19.376C239.598 19.1627 239.171 19.056 238.691 19.056C238.211 19.056 237.779 19.1627 237.395 19.376C237.022 19.5893 236.718 19.8987 236.483 20.304C236.259 20.6987 236.147 21.1733 236.147 21.728C236.147 22.272 236.259 22.7467 236.483 23.152C236.718 23.5573 237.022 23.8667 237.395 24.08C237.779 24.2933 238.211 24.4 238.691 24.4ZM241.283 26V23.984L241.363 21.712L241.203 19.44V14.128H243.187V26H241.283ZM248.46 26.112C247.745 26.112 247.057 26.0213 246.396 25.84C245.745 25.648 245.228 25.4187 244.844 25.152L245.612 23.632C245.996 23.8773 246.454 24.08 246.988 24.24C247.521 24.4 248.054 24.48 248.588 24.48C249.217 24.48 249.67 24.3947 249.948 24.224C250.236 24.0533 250.38 23.824 250.38 23.536C250.38 23.3013 250.284 23.1253 250.092 23.008C249.9 22.88 249.649 22.784 249.34 22.72C249.03 22.656 248.684 22.5973 248.3 22.544C247.926 22.4907 247.548 22.4213 247.164 22.336C246.79 22.24 246.449 22.1067 246.14 21.936C245.83 21.7547 245.58 21.5147 245.388 21.216C245.196 20.9173 245.1 20.5227 245.1 20.032C245.1 19.488 245.254 19.0187 245.564 18.624C245.873 18.2187 246.305 17.9093 246.86 17.696C247.425 17.472 248.092 17.36 248.86 17.36C249.436 17.36 250.017 17.424 250.604 17.552C251.19 17.68 251.676 17.8613 252.06 18.096L251.292 19.616C250.886 19.3707 250.476 19.2053 250.06 19.12C249.654 19.024 249.249 18.976 248.844 18.976C248.236 18.976 247.782 19.0667 247.484 19.248C247.196 19.4293 247.052 19.6587 247.052 19.936C247.052 20.192 247.148 20.384 247.34 20.512C247.532 20.64 247.782 20.7413 248.092 20.816C248.401 20.8907 248.742 20.9547 249.116 21.008C249.5 21.0507 249.878 21.12 250.252 21.216C250.625 21.312 250.966 21.4453 251.276 21.616C251.596 21.776 251.852 22.0053 252.044 22.304C252.236 22.6027 252.332 22.992 252.332 23.472C252.332 24.0053 252.172 24.4693 251.852 24.864C251.542 25.2587 251.1 25.568 250.524 25.792C249.948 26.0053 249.26 26.112 248.46 26.112Z" fill="#1C1C1C"/>
</svg>
