<svg width="384" height="40" viewBox="0 0 384 40" fill="none" xmlns="http://www.w3.org/2000/svg">
<rect x="0.5" y="0.5" width="383" height="39" rx="7.5" stroke="#717171"/>
<path d="M129.578 26.16C128.703 26.16 127.866 26.0373 127.066 25.792C126.266 25.536 125.631 25.2107 125.162 24.816L125.882 23.2C126.33 23.552 126.884 23.8453 127.546 24.08C128.207 24.3147 128.884 24.432 129.578 24.432C130.164 24.432 130.639 24.368 131.002 24.24C131.364 24.112 131.631 23.9413 131.802 23.728C131.972 23.504 132.058 23.2533 132.058 22.976C132.058 22.6347 131.935 22.3627 131.69 22.16C131.444 21.9467 131.124 21.7813 130.73 21.664C130.346 21.536 129.914 21.4187 129.434 21.312C128.964 21.2053 128.49 21.0827 128.01 20.944C127.54 20.7947 127.108 20.608 126.714 20.384C126.33 20.1493 126.015 19.84 125.77 19.456C125.524 19.072 125.402 18.5813 125.402 17.984C125.402 17.376 125.562 16.8213 125.882 16.32C126.212 15.808 126.708 15.4027 127.37 15.104C128.042 14.7947 128.89 14.64 129.914 14.64C130.586 14.64 131.252 14.7253 131.914 14.896C132.575 15.0667 133.151 15.312 133.642 15.632L132.986 17.248C132.484 16.9493 131.967 16.7307 131.434 16.592C130.9 16.4427 130.388 16.368 129.898 16.368C129.322 16.368 128.852 16.4373 128.49 16.576C128.138 16.7147 127.876 16.896 127.706 17.12C127.546 17.344 127.466 17.6 127.466 17.888C127.466 18.2293 127.583 18.5067 127.818 18.72C128.063 18.9227 128.378 19.0827 128.762 19.2C129.156 19.3173 129.594 19.4347 130.074 19.552C130.554 19.6587 131.028 19.7813 131.498 19.92C131.978 20.0587 132.41 20.24 132.794 20.464C133.188 20.688 133.503 20.992 133.738 21.376C133.983 21.76 134.106 22.2453 134.106 22.832C134.106 23.4293 133.94 23.984 133.61 24.496C133.29 24.9973 132.794 25.4027 132.122 25.712C131.45 26.0107 130.602 26.16 129.578 26.16ZM139.992 26.112C139.043 26.112 138.211 25.9253 137.496 25.552C136.792 25.168 136.243 24.6453 135.848 23.984C135.464 23.3227 135.272 22.5707 135.272 21.728C135.272 20.8747 135.459 20.1227 135.832 19.472C136.216 18.8107 136.739 18.2933 137.4 17.92C138.072 17.5467 138.835 17.36 139.688 17.36C140.52 17.36 141.261 17.5413 141.912 17.904C142.563 18.2667 143.075 18.7787 143.448 19.44C143.821 20.1013 144.008 20.88 144.008 21.776C144.008 21.8613 144.003 21.9573 143.992 22.064C143.992 22.1707 143.987 22.272 143.976 22.368H136.856V21.04H142.92L142.136 21.456C142.147 20.9653 142.045 20.5333 141.832 20.16C141.619 19.7867 141.325 19.4933 140.952 19.28C140.589 19.0667 140.168 18.96 139.688 18.96C139.197 18.96 138.765 19.0667 138.392 19.28C138.029 19.4933 137.741 19.792 137.528 20.176C137.325 20.5493 137.224 20.992 137.224 21.504V21.824C137.224 22.336 137.341 22.7893 137.576 23.184C137.811 23.5787 138.141 23.8827 138.568 24.096C138.995 24.3093 139.485 24.416 140.04 24.416C140.52 24.416 140.952 24.3413 141.336 24.192C141.72 24.0427 142.061 23.808 142.36 23.488L143.432 24.72C143.048 25.168 142.563 25.5147 141.976 25.76C141.4 25.9947 140.739 26.112 139.992 26.112ZM149.945 26.112C148.996 26.112 148.164 25.9253 147.449 25.552C146.745 25.168 146.196 24.6453 145.801 23.984C145.417 23.3227 145.225 22.5707 145.225 21.728C145.225 20.8747 145.412 20.1227 145.785 19.472C146.169 18.8107 146.692 18.2933 147.353 17.92C148.025 17.5467 148.788 17.36 149.641 17.36C150.473 17.36 151.215 17.5413 151.865 17.904C152.516 18.2667 153.028 18.7787 153.401 19.44C153.775 20.1013 153.961 20.88 153.961 21.776C153.961 21.8613 153.956 21.9573 153.945 22.064C153.945 22.1707 153.94 22.272 153.929 22.368H146.809V21.04H152.873L152.089 21.456C152.1 20.9653 151.999 20.5333 151.785 20.16C151.572 19.7867 151.279 19.4933 150.905 19.28C150.543 19.0667 150.121 18.96 149.641 18.96C149.151 18.96 148.719 19.0667 148.345 19.28C147.983 19.4933 147.695 19.792 147.481 20.176C147.279 20.5493 147.177 20.992 147.177 21.504V21.824C147.177 22.336 147.295 22.7893 147.529 23.184C147.764 23.5787 148.095 23.8827 148.521 24.096C148.948 24.3093 149.439 24.416 149.993 24.416C150.473 24.416 150.905 24.3413 151.289 24.192C151.673 24.0427 152.015 23.808 152.313 23.488L153.385 24.72C153.001 25.168 152.516 25.5147 151.929 25.76C151.353 25.9947 150.692 26.112 149.945 26.112ZM158.912 26L163.952 14.8H166L171.056 26H168.88L164.544 15.904H165.376L161.056 26H158.912ZM161.232 23.408L161.792 21.776H167.84L168.4 23.408H161.232ZM172.289 26V14.128H174.289V26H172.289ZM176.914 26V14.128H178.914V26H176.914ZM188.056 19.952H193.64V21.712H188.056V19.952ZM188.232 26H186.152V14.8H194.328V16.544H188.232V26ZM201.131 26V24.272L201.019 23.904V20.88C201.019 20.2933 200.843 19.84 200.491 19.52C200.139 19.1893 199.605 19.024 198.891 19.024C198.411 19.024 197.936 19.0987 197.467 19.248C197.008 19.3973 196.619 19.6053 196.299 19.872L195.515 18.416C195.973 18.064 196.517 17.8027 197.147 17.632C197.787 17.4507 198.448 17.36 199.131 17.36C200.368 17.36 201.323 17.6587 201.995 18.256C202.677 18.8427 203.019 19.7547 203.019 20.992V26H201.131ZM198.443 26.112C197.803 26.112 197.243 26.0053 196.763 25.792C196.283 25.568 195.909 25.264 195.643 24.88C195.387 24.4853 195.259 24.0427 195.259 23.552C195.259 23.072 195.371 22.64 195.595 22.256C195.829 21.872 196.208 21.568 196.731 21.344C197.253 21.12 197.947 21.008 198.811 21.008H201.291V22.336H198.955C198.272 22.336 197.813 22.448 197.579 22.672C197.344 22.8853 197.227 23.152 197.227 23.472C197.227 23.8347 197.371 24.1227 197.659 24.336C197.947 24.5493 198.347 24.656 198.859 24.656C199.349 24.656 199.787 24.544 200.171 24.32C200.565 24.096 200.848 23.7653 201.019 23.328L201.355 24.528C201.163 25.0293 200.816 25.4187 200.315 25.696C199.824 25.9733 199.2 26.112 198.443 26.112ZM207.701 26L204.037 17.456H206.117L209.269 24.992H208.245L211.509 17.456H213.429L209.765 26H207.701ZM218.285 26.112C217.41 26.112 216.631 25.9253 215.949 25.552C215.266 25.168 214.727 24.6453 214.333 23.984C213.938 23.3227 213.741 22.5707 213.741 21.728C213.741 20.8747 213.938 20.1227 214.333 19.472C214.727 18.8107 215.266 18.2933 215.949 17.92C216.631 17.5467 217.41 17.36 218.285 17.36C219.17 17.36 219.954 17.5467 220.637 17.92C221.33 18.2933 221.869 18.8053 222.253 19.456C222.647 20.1067 222.845 20.864 222.845 21.728C222.845 22.5707 222.647 23.3227 222.253 23.984C221.869 24.6453 221.33 25.168 220.637 25.552C219.954 25.9253 219.17 26.112 218.285 26.112ZM218.285 24.4C218.775 24.4 219.213 24.2933 219.597 24.08C219.981 23.8667 220.279 23.5573 220.493 23.152C220.717 22.7467 220.829 22.272 220.829 21.728C220.829 21.1733 220.717 20.6987 220.493 20.304C220.279 19.8987 219.981 19.5893 219.597 19.376C219.213 19.1627 218.781 19.056 218.301 19.056C217.81 19.056 217.373 19.1627 216.989 19.376C216.615 19.5893 216.317 19.8987 216.093 20.304C215.869 20.6987 215.757 21.1733 215.757 21.728C215.757 22.272 215.869 22.7467 216.093 23.152C216.317 23.5573 216.615 23.8667 216.989 24.08C217.373 24.2933 217.805 24.4 218.285 24.4ZM224.757 26V17.456H226.661V19.808L226.437 19.12C226.693 18.544 227.093 18.1067 227.637 17.808C228.192 17.5093 228.88 17.36 229.701 17.36V19.264C229.616 19.2427 229.536 19.232 229.461 19.232C229.387 19.2213 229.312 19.216 229.237 19.216C228.48 19.216 227.877 19.44 227.429 19.888C226.981 20.3253 226.757 20.9813 226.757 21.856V26H224.757ZM231.398 26V17.456H233.398V26H231.398ZM232.406 16.048C232.033 16.048 231.723 15.9307 231.478 15.696C231.243 15.4613 231.126 15.1787 231.126 14.848C231.126 14.5067 231.243 14.224 231.478 14C231.723 13.7653 232.033 13.648 232.406 13.648C232.779 13.648 233.083 13.76 233.318 13.984C233.563 14.1973 233.686 14.4693 233.686 14.8C233.686 15.152 233.569 15.4507 233.334 15.696C233.099 15.9307 232.79 16.048 232.406 16.048ZM239.239 26.112C238.3 26.112 237.575 25.872 237.063 25.392C236.551 24.9013 236.295 24.1813 236.295 23.232V15.568H238.295V23.184C238.295 23.5893 238.396 23.904 238.599 24.128C238.812 24.352 239.106 24.464 239.479 24.464C239.927 24.464 240.3 24.3467 240.599 24.112L241.159 25.536C240.924 25.728 240.636 25.872 240.295 25.968C239.954 26.064 239.602 26.112 239.239 26.112ZM234.887 19.12V17.52H240.583V19.12H234.887ZM246.539 26.112C245.59 26.112 244.758 25.9253 244.043 25.552C243.339 25.168 242.79 24.6453 242.395 23.984C242.011 23.3227 241.819 22.5707 241.819 21.728C241.819 20.8747 242.006 20.1227 242.379 19.472C242.763 18.8107 243.286 18.2933 243.947 17.92C244.619 17.5467 245.382 17.36 246.235 17.36C247.067 17.36 247.808 17.5413 248.459 17.904C249.11 18.2667 249.622 18.7787 249.995 19.44C250.368 20.1013 250.555 20.88 250.555 21.776C250.555 21.8613 250.55 21.9573 250.539 22.064C250.539 22.1707 250.534 22.272 250.523 22.368H243.403V21.04H249.467L248.683 21.456C248.694 20.9653 248.592 20.5333 248.379 20.16C248.166 19.7867 247.872 19.4933 247.499 19.28C247.136 19.0667 246.715 18.96 246.235 18.96C245.744 18.96 245.312 19.0667 244.939 19.28C244.576 19.4933 244.288 19.792 244.075 20.176C243.872 20.5493 243.771 20.992 243.771 21.504V21.824C243.771 22.336 243.888 22.7893 244.123 23.184C244.358 23.5787 244.688 23.8827 245.115 24.096C245.542 24.3093 246.032 24.416 246.587 24.416C247.067 24.416 247.499 24.3413 247.883 24.192C248.267 24.0427 248.608 23.808 248.907 23.488L249.979 24.72C249.595 25.168 249.11 25.5147 248.523 25.76C247.947 25.9947 247.286 26.112 246.539 26.112ZM255.116 26.112C254.401 26.112 253.713 26.0213 253.052 25.84C252.401 25.648 251.884 25.4187 251.5 25.152L252.268 23.632C252.652 23.8773 253.111 24.08 253.644 24.24C254.177 24.4 254.711 24.48 255.244 24.48C255.873 24.48 256.327 24.3947 256.604 24.224C256.892 24.0533 257.036 23.824 257.036 23.536C257.036 23.3013 256.94 23.1253 256.748 23.008C256.556 22.88 256.305 22.784 255.996 22.72C255.687 22.656 255.34 22.5973 254.956 22.544C254.583 22.4907 254.204 22.4213 253.82 22.336C253.447 22.24 253.105 22.1067 252.796 21.936C252.487 21.7547 252.236 21.5147 252.044 21.216C251.852 20.9173 251.756 20.5227 251.756 20.032C251.756 19.488 251.911 19.0187 252.22 18.624C252.529 18.2187 252.961 17.9093 253.516 17.696C254.081 17.472 254.748 17.36 255.516 17.36C256.092 17.36 256.673 17.424 257.26 17.552C257.847 17.68 258.332 17.8613 258.716 18.096L257.948 19.616C257.543 19.3707 257.132 19.2053 256.716 19.12C256.311 19.024 255.905 18.976 255.5 18.976C254.892 18.976 254.439 19.0667 254.14 19.248C253.852 19.4293 253.708 19.6587 253.708 19.936C253.708 20.192 253.804 20.384 253.996 20.512C254.188 20.64 254.439 20.7413 254.748 20.816C255.057 20.8907 255.399 20.9547 255.772 21.008C256.156 21.0507 256.535 21.12 256.908 21.216C257.281 21.312 257.623 21.4453 257.932 21.616C258.252 21.776 258.508 22.0053 258.7 22.304C258.892 22.6027 258.988 22.992 258.988 23.472C258.988 24.0053 258.828 24.4693 258.508 24.864C258.199 25.2587 257.756 25.568 257.18 25.792C256.604 26.0053 255.916 26.112 255.116 26.112Z" fill="#1C1C1C"/>
</svg>
