<svg width="44" height="56" viewBox="0 0 44 56" fill="none" xmlns="http://www.w3.org/2000/svg">
<path fill-rule="evenodd" clip-rule="evenodd" d="M15 26C16.1046 26 17 26.8954 17 28C17 29.1046 16.1046 30 15 30C13.8954 30 13 29.1046 13 28C13 26.8954 13.8954 26 15 26ZM22 26C23.1046 26 24 26.8954 24 28C24 29.1046 23.1046 30 22 30C20.8954 30 20 29.1046 20 28C20 26.8954 20.8954 26 22 26ZM31 28C31 26.8954 30.1046 26 29 26C27.8954 26 27 26.8954 27 28C27 29.1046 27.8954 30 29 30C30.1046 30 31 29.1046 31 28Z" fill="#1C1C1C"/>
</svg>
