<svg width="48" height="56" viewBox="0 0 48 56" fill="none" xmlns="http://www.w3.org/2000/svg">
<path d="M21 34.5H16C15.4477 34.5 15 34.0523 15 33.5V21.9891C15 21.6805 15.1425 21.3892 15.3861 21.1997L23.3861 14.9775C23.7472 14.6966 24.2528 14.6966 24.6139 14.9775L32.6139 21.1997C32.8575 21.3892 33 21.6805 33 21.9891V33.5C33 34.0523 32.5523 34.5 32 34.5H27M21 34.5V25C21 24.4477 21.4477 24 22 24H26C26.5523 24 27 24.4477 27 25V34.5M21 34.5H27" stroke="#1C1C1C" stroke-width="2" stroke-linecap="round"/>
<rect x="14" y="38.5" width="20" height="3" rx="1.5" fill="#1C1C1C"/>
</svg>
