<svg width="48" height="56" viewBox="0 0 48 56" fill="none" xmlns="http://www.w3.org/2000/svg">
<path fill-rule="evenodd" clip-rule="evenodd" d="M28.8444 23.5493C29.0406 26.6419 29.6722 29.3814 30.9193 32.5H17.1037C18.3712 29.4521 19.0275 26.7458 19.217 23.6843C19.4012 20.7081 21.5536 18.5 24.0564 18.5C26.534 18.5 28.6606 20.6525 28.8444 23.5493ZM17.2208 23.5608C17.455 19.7774 20.2658 16.5 24.0564 16.5C27.7953 16.5 30.6036 19.6913 30.8404 23.4227C31.0477 26.6905 31.7726 29.5346 33.3232 33.058C33.6194 33.7309 33.1359 34.5 32.4006 34.5H15.5997C14.8572 34.5 14.3739 33.7169 14.6834 33.042C16.2653 29.5931 17.0211 26.7876 17.2208 23.5608ZM22.9555 36.7575C22.8215 36.2217 22.2786 35.8959 21.7428 36.0299C21.207 36.1638 20.8812 36.7067 21.0152 37.2425C21.3983 38.7749 22.7479 39.5 23.9853 39.5C25.2227 39.5 26.5724 38.7749 26.9555 37.2425C27.0894 36.7067 26.7637 36.1638 26.2279 36.0299C25.6921 35.8959 25.1491 36.2217 25.0152 36.7575C24.8983 37.2251 24.4979 37.5 23.9853 37.5C23.4727 37.5 23.0724 37.2251 22.9555 36.7575Z" fill="#1C1C1C"/>
</svg>
