<svg width="48" height="56" viewBox="0 0 48 56" fill="none" xmlns="http://www.w3.org/2000/svg">
<path d="M21 35.5H16C15.4477 35.5 15 35.0523 15 34.5V22.9891C15 22.6805 15.1425 22.3892 15.3861 22.1997L23.3861 15.9775C23.7472 15.6966 24.2528 15.6966 24.6139 15.9775L32.6139 22.1997C32.8575 22.3892 33 22.6805 33 22.9891V34.5C33 35.0523 32.5523 35.5 32 35.5H27M21 35.5V26C21 25.4477 21.4477 25 22 25H26C26.5523 25 27 25.4477 27 26V35.5M21 35.5H27" stroke="#1C1C1C" stroke-width="2" stroke-linecap="round"/>
</svg>
