<svg width="48" height="56" viewBox="0 0 48 56" fill="none" xmlns="http://www.w3.org/2000/svg">
<path fill-rule="evenodd" clip-rule="evenodd" d="M26.25 23.25C26.25 25.7353 24.2353 27.75 21.75 27.75C19.2647 27.75 17.25 25.7353 17.25 23.25C17.25 20.7647 19.2647 18.75 21.75 18.75C24.2353 18.75 26.25 20.7647 26.25 23.25ZM25.5847 28.4989C24.5097 29.2856 23.1841 29.75 21.75 29.75C18.1601 29.75 15.25 26.8399 15.25 23.25C15.25 19.6601 18.1601 16.75 21.75 16.75C25.3399 16.75 28.25 19.6601 28.25 23.25C28.25 24.6841 27.7856 26.0097 26.9989 27.0847L32.4571 32.5429C32.8476 32.9334 32.8476 33.5666 32.4571 33.9571C32.0666 34.3476 31.4334 34.3476 31.0429 33.9571L25.5847 28.4989Z" fill="#1C1C1C"/>
</svg>
