<svg width="48" height="56" viewBox="0 0 48 56" fill="none" xmlns="http://www.w3.org/2000/svg">
<path fill-rule="evenodd" clip-rule="evenodd" d="M17 22.5C16.7348 22.5 16.4804 22.6054 16.2929 22.7929C16.1054 22.9804 16 23.2348 16 23.5V37.0858L18.2929 34.7929C18.4804 34.6054 18.7348 34.5 19 34.5H31C31.2652 34.5 31.5196 34.3946 31.7071 34.2071C31.8946 34.0196 32 33.7652 32 33.5V23.5C32 23.2348 31.8946 22.9804 31.7071 22.7929C31.5196 22.6054 31.2652 22.5 31 22.5H17ZM14.8787 21.3787C15.4413 20.8161 16.2044 20.5 17 20.5H31C31.7957 20.5 32.5587 20.8161 33.1213 21.3787C33.6839 21.9413 34 22.7043 34 23.5V33.5C34 34.2957 33.6839 35.0587 33.1213 35.6213C32.5587 36.1839 31.7957 36.5 31 36.5H19.4142L15.7071 40.2071C15.4211 40.4931 14.991 40.5787 14.6173 40.4239C14.2436 40.2691 14 39.9045 14 39.5V23.5C14 22.7044 14.3161 21.9413 14.8787 21.3787ZM18 26.5C18 25.9477 18.4477 25.5 19 25.5H25C25.5523 25.5 26 25.9477 26 26.5C26 27.0523 25.5523 27.5 25 27.5H19C18.4477 27.5 18 27.0523 18 26.5ZM19 29.5C18.4477 29.5 18 29.9477 18 30.5C18 31.0523 18.4477 31.5 19 31.5H29C29.5523 31.5 30 31.0523 30 30.5C30 29.9477 29.5523 29.5 29 29.5H19Z" fill="#1C1C1C"/>
</svg>
