<svg width="48" height="53" viewBox="0 0 48 53" fill="none" xmlns="http://www.w3.org/2000/svg">
<path fill-rule="evenodd" clip-rule="evenodd" d="M17 16C16.7348 16 16.4804 16.1054 16.2929 16.2929C16.1054 16.4804 16 16.7348 16 17V30.5858L18.2929 28.2929C18.4804 28.1054 18.7348 28 19 28H31C31.2652 28 31.5196 27.8946 31.7071 27.7071C31.8946 27.5196 32 27.2652 32 27V17C32 16.7348 31.8946 16.4804 31.7071 16.2929C31.5196 16.1054 31.2652 16 31 16H17ZM14.8787 14.8787C15.4413 14.3161 16.2044 14 17 14H31C31.7957 14 32.5587 14.3161 33.1213 14.8787C33.6839 15.4413 34 16.2043 34 17V27C34 27.7957 33.6839 28.5587 33.1213 29.1213C32.5587 29.6839 31.7957 30 31 30H19.4142L15.7071 33.7071C15.4211 33.9931 14.991 34.0787 14.6173 33.9239C14.2436 33.7691 14 33.4045 14 33V17C14 16.2044 14.3161 15.4413 14.8787 14.8787ZM18 20C18 19.4477 18.4477 19 19 19H25C25.5523 19 26 19.4477 26 20C26 20.5523 25.5523 21 25 21H19C18.4477 21 18 20.5523 18 20ZM19 23C18.4477 23 18 23.4477 18 24C18 24.5523 18.4477 25 19 25H29C29.5523 25 30 24.5523 30 24C30 23.4477 29.5523 23 29 23H19Z" fill="#1C1C1C"/>
</svg>
