<svg width="48" height="51" viewBox="0 0 48 51" fill="none" xmlns="http://www.w3.org/2000/svg">
<path fill-rule="evenodd" clip-rule="evenodd" d="M26.25 20.5C26.25 22.9853 24.2353 25 21.75 25C19.2647 25 17.25 22.9853 17.25 20.5C17.25 18.0147 19.2647 16 21.75 16C24.2353 16 26.25 18.0147 26.25 20.5ZM25.5847 25.7489C24.5097 26.5356 23.1841 27 21.75 27C18.1601 27 15.25 24.0899 15.25 20.5C15.25 16.9101 18.1601 14 21.75 14C25.3399 14 28.25 16.9101 28.25 20.5C28.25 21.9341 27.7856 23.2597 26.9989 24.3347L32.4571 29.7929C32.8476 30.1834 32.8476 30.8166 32.4571 31.2071C32.0666 31.5976 31.4334 31.5976 31.0429 31.2071L25.5847 25.7489Z" fill="#1C1C1C"/>
</svg>
