<svg width="34" height="38" viewBox="0 0 34 38" fill="none" xmlns="http://www.w3.org/2000/svg">
<rect x="1" y="3" width="32" height="32" rx="16" fill="#F7C644"/>
<rect x="1" y="3" width="32" height="32" rx="16" fill="white" fill-opacity="0.2"/>
<path fill-rule="evenodd" clip-rule="evenodd" d="M13.1898 10.6177C11.5063 10.6177 10.1416 11.9824 10.1416 13.6659V16.7141H11.1577L10.1416 16.7141V16.7143V16.7146V16.715V16.7155V16.7161V16.7168V16.7177V16.7186V16.7197V16.7208V16.7221V16.7235V16.725V16.7266V16.7283V16.7301V16.732V16.7341V16.7362V16.7385V16.7408V16.7433V16.7458V16.7485V16.7513V16.7542V16.7572V16.7603V16.7635V16.7668V16.7702V16.7737V16.7773V16.781V16.7848V16.7888V16.7928V16.7969V16.8011V16.8055V16.8099V16.8144V16.8191V16.8238V16.8287V16.8336V16.8386V16.8438V16.849V16.8543V16.8597V16.8653V16.8709V16.8766V16.8825V16.8884V16.8944V16.9005V16.9067V16.913V16.9194V16.9259V16.9325V16.9392V16.946V16.9528V16.9598V16.9669V16.974V16.9813V16.9886V16.9961V17.0036V17.0112V17.0189V17.0267V17.0346V17.0426V17.0507V17.0589V17.0671V17.0755V17.0839V17.0925V17.1011V17.1098V17.1186V17.1275V17.1364V17.1455V17.1546V17.1639V17.1732V17.1826V17.1921V17.2017V17.2114V17.2211V17.231V17.2409V17.2509V17.261V17.2712V17.2814V17.2918V17.3022V17.3127V17.3233V17.334V17.3448V17.3556V17.3665V17.3775V17.3886V17.3998V17.411V17.4224V17.4338V17.4453V17.4568V17.4685V17.4802V17.492V17.5039V17.5159V17.5279V17.5401V17.5523V17.5645V17.5769V17.5893V17.6018V17.6144V17.6271V17.6398V17.6526V17.6655V17.6785V17.6915V17.7046V17.7178V17.731V17.7444V17.7578V17.7712V17.7848V17.7984V17.8121V17.8259V17.8397V17.8536V17.8676V17.8816V17.8958V17.91V17.9242V17.9385V17.9529V17.9674V17.9819V17.9966V18.0112V18.026V18.0408V18.0557V18.0706V18.0856V18.1007V18.1158V18.131V18.1463V18.1617V18.1771V18.1925V18.2081V18.2237V18.2393V18.2551V18.2709V18.2867V18.3026V18.3186V18.3347V18.3508V18.3669V18.3832V18.3994V18.4158V18.4322V18.4487V18.4652V18.4818V18.4985V18.5152V18.532V18.5488V18.5657V18.5826V18.5996V18.6167V18.6338V18.651V18.6682V18.6855V18.7029V18.7203V18.7378V18.7553V18.7729V18.7905V18.8082V18.8259V18.8437V18.8615V18.8794V18.8974V18.9154V18.9335V18.9516V18.9697V18.988V19.0062V19.0246V19.0429V19.0614V19.0798V19.0984V19.1169V19.1356V19.1542V19.173V19.1917V19.2105V19.2294V19.2483V19.2673V19.2863V19.3054V19.3245V19.3437V19.3629V19.3821V19.4014V19.4207V19.4401V19.4596V19.479V19.4986V19.5181V19.5377V19.5574V19.5771V19.5968V19.6166V19.6365V19.6563V19.6762V19.6962V19.7162V19.7362V19.7563V19.7764V19.7966V19.8168V19.8371V19.8573V19.8777V19.898V19.9184V19.9389V19.9593V19.9799V20.0004V20.021V20.0416V20.0623V20.083V20.1037V20.1245V20.1453V20.1662V20.1871V20.208V20.2289V20.2499V20.2709V20.292V20.3131V20.3342V20.3554V20.3766V20.3978V20.4191V20.4403V20.4617V20.483V20.5044V20.5258V20.5473V20.5687V20.5902V20.6118V20.6333V20.6549V20.6766V20.6982V20.7199V20.7416V20.7634V20.7851V20.8069V20.8287V20.8506V20.8725V20.8944V20.9163V20.9383V20.9602V20.9822V21.0043V21.0263V21.0484V21.0705V21.0926V21.1148V21.137V21.1592V21.1814V21.2036V21.2259V21.2482V21.2705V21.2928V21.3152V21.3376V21.36V21.3824V21.4048V21.4273V21.4498V21.4723V21.4948V21.5173V21.5399V21.5624V21.585V21.6076V21.6302V21.6529V21.6756V21.6982V21.7209V21.7436V21.7664V21.7891V21.8118V21.8346V21.8574V21.8802V21.903V21.9258V21.9487V21.9715V21.9944V22.0173V22.0402V22.0631V22.086V22.1089V22.1319V22.1548V22.1778V22.2008V22.2237V22.2467V22.2697V22.2928V22.3158V22.3388V22.3618V22.3849V22.408V22.431V22.4541V22.4772V22.5003V22.5234V22.5465V22.5696V22.5927V22.6158V22.6389V22.6621V22.6852V22.7083V22.7315V22.7546V22.7778V22.8009V22.8241V22.8472V22.8704V22.8936V22.9168V22.9399V22.9631V22.9863V23.0094V23.0326V23.0558V23.079V23.1022V23.1253V23.1485V23.1717V23.1949V23.218V23.2412V23.2644V23.2875V23.3107V23.3339V23.357V23.3802V23.4033V23.4265V23.4496V23.4728V23.4959V23.519V23.5422V23.5653V23.5884V23.6115V23.6346V23.6577V23.6808V23.7039V23.727V23.75V23.7731V23.7961V23.8192V23.8422V23.8653V23.8883V23.9113V23.9343V23.9573V23.9802V24.0032V24.0262V24.0491V24.072V24.095V24.1179V24.1408V24.1636V24.1865V24.2094V24.2322V24.2551V24.2779V24.3007V24.3235V24.3462V24.369V24.3917V24.4145V24.4372V24.4599V24.4826V24.5052V24.5279V24.5505V24.5731V24.5957V24.6183V24.6408V24.6634V24.6859V24.7084V24.7309V24.7534V24.7758V24.7982V24.8206V24.843V24.8654V24.8877V24.91V24.9323V24.9546V24.9769V24.9991V25.0213V25.0435V25.0656V25.0878V25.1099V25.132V25.154V25.1761V25.1981V25.2201V25.242V25.264V25.2859V25.3078V25.3296V25.3515C10.1416 26.4734 11.0499 27.3828 12.1726 27.3828H12.1896H12.2066H12.2236H12.2407H12.2577H12.2748H12.2919H12.3089H12.326H12.3432H12.3603H12.3774H12.3946H12.4118H12.429H12.4462H12.4634H12.4806H12.4978H12.5151H12.5324H12.5497H12.5669H12.5843H12.6016H12.6189H12.6363H12.6536H12.671H12.6884H12.7058H12.7232H12.7406H12.758H12.7755H12.7929H12.8104H12.8279H12.8454H12.8629H12.8804H12.8979H12.9154H12.933H12.9506H12.9681H12.9857H13.0033H13.0209H13.0385H13.0561H13.0738H13.0914H13.1091H13.1267H13.1444H13.1621H13.1798H13.1975H13.2152H13.2329H13.2507H13.2684H13.2862H13.3039H13.3217H13.3395H13.3573H13.3751H13.3929H13.4107H13.4285H13.4463H13.4642H13.482H13.4999H13.5177H13.5356H13.5535H13.5714H13.5893H13.6072H13.6251H13.643H13.661H13.6789H13.6968H13.7148H13.7327H13.7507H13.7687H13.7867H13.8046H13.8226H13.8406H13.8586H13.8766H13.8947H13.9127H13.9307H13.9487H13.9668H13.9848H14.0029H14.0209H14.039H14.0571H14.0751H14.0932H14.1113H14.1294H14.1475H14.1656H14.1837H14.2018H14.2199H14.238H14.2562H14.2743H14.2924H14.3106H14.3287H14.3468H14.365H14.3831H14.4013H14.4194H14.4376H14.4558H14.4739H14.4921H14.5103H14.5285H14.5467H14.5648H14.583H14.6012H14.6194H14.6376H14.6558H14.674H14.6922H14.7104H14.7286H14.7468H14.765H14.7832H14.8015H14.8197H14.8379H14.8561H14.8743H14.8926H14.9108H14.929H14.9472H14.9655H14.9837H15.0019H15.0201H15.0384H15.0566H15.0748H15.0931H15.1113H15.1295H15.1477H15.166H15.1842H15.2024H15.2207H15.2389H15.2571H15.2753H15.2936H15.3118H15.33H15.3483H15.3665H15.3847H15.4029H15.4211H15.4394H15.4576H15.4758H15.494H15.5122H15.5304H15.5486H15.5668H15.585H15.6032H15.6214H15.6396H15.6578H15.676H15.6942H15.7124H15.7306H15.7488H15.7669H15.7851H15.8033H15.8214H15.8396H15.8578H15.8759H15.8941H15.9122H15.9304H15.9485H15.9667H15.9848H16.0029H16.021H16.0392H16.0573H16.0754H16.0935H16.1116H16.1297H16.1478H16.1659H16.1839H16.202H16.2201H16.2382H16.2562H16.2743H16.2923H16.3104H16.3284H16.3464H16.3645H16.3825H16.4005H16.4185H16.4365H16.4545H16.4725H16.4905H16.5084H16.5264H16.5444H16.5623H16.5803H16.5982H16.6161H16.634H16.652H16.6699H16.6878H16.7057H16.7235H16.7414H16.7593H16.7772H16.795H16.8129H16.8307H16.8485H16.8663H16.8841H16.9019H16.9197H16.9375H16.9553H16.9731H16.9908H17.0086H17.0263H17.044H17.0617H17.0795H17.0972H17.1148H17.1325H17.1502H17.1679H17.1855H17.2031H17.2208H17.2384H17.256H17.2736H17.2912H17.3087H17.3263H17.3439H17.3614H17.3789H17.3965H17.414H17.4315H17.4489H17.4664H17.4839H17.5013H17.5188H17.5362H17.5536H17.571H17.5884H17.6058H17.6231H17.6405H17.6578H17.6751H17.6925H17.7098H17.727H17.7443H17.7616H17.7788H17.7961H17.8133H17.8305H17.8477H17.8649H17.882H17.8992H17.9163H17.9334H17.9505H17.9676H17.9847H18.0018H18.0188H18.0359H18.0529H18.0699H18.0869H18.1039H18.1208H18.1378H18.1547H18.1716H18.1885H18.2054H18.2223H18.2391H18.256H18.2728H18.2896H18.3064H18.3232H18.3399H18.3567H18.3734H18.3901H18.4068H18.4235H18.4401H18.4568H18.4734H18.49H18.5066H18.5232H18.5397H18.5562H18.5728H18.5893H18.6058H18.6222H18.6387H18.6551H18.6715H18.6879H18.7043H18.7206H18.737H18.7533H18.7696H18.7859H18.8022H18.8184H18.8346H18.8508H18.867H18.8832H18.8993H18.9155H18.9316H18.9477H18.9637H18.9798H18.9958H19.0118H19.0278H19.0438H19.0597H19.0757H19.0916H19.1075H19.1233H19.1392H19.155H19.1708H19.1866H19.2024H19.2181H19.2338H19.2495H19.2652H19.2809H19.2965H19.3121H19.3277H19.3433H19.3588H19.3744H19.3899H19.4054H19.4208H19.4362H19.4517H19.4671H19.4824H19.4978H19.5131H19.5284H19.5437H19.5589H19.5742H19.5894H19.6045H19.6197H19.6348H19.65H19.665H19.6801H19.6952H19.7102H19.7252H19.7401H19.7551H19.77H19.7849H19.7998H19.8146H19.8294H19.8442H19.859H19.8737H19.8885H19.9032H19.9178H19.9325H19.9471H19.9617H19.9763H19.9908H20.0053H20.0198H20.0343H20.0487H20.0631H20.0775H20.0919H20.1062H20.1205H20.1348H20.149H20.1633H20.1775H20.1916H20.2058H20.2199H20.234H20.248H20.2621H20.2761H20.2901H20.304H20.3179H20.3318H20.3457H20.3595H20.3734H20.3871H20.4009H20.4146H20.4283H20.442H20.4556H20.4692H20.4828H20.4964H20.5099H20.5234H20.5369H20.5503H20.5637H20.5771H20.5904H20.6037H20.617H20.6303H20.6435H20.6567H20.6699H20.683H20.6961H20.7092H20.7222H20.7353H20.7482H20.7612H20.7741H20.787H20.7999H20.8127C22.4977 27.3828 23.8585 26.0165 23.8585 24.3346V13.6659C23.8585 11.9824 22.4938 10.6177 20.8103 10.6177H13.1898ZM11.1577 16.7141H12.1737V13.6659C12.1737 13.1047 12.6286 12.6498 13.1898 12.6498H20.8103C21.3715 12.6498 21.8264 13.1047 21.8264 13.6659V24.3346C21.8264 24.8973 21.3723 25.3507 20.8127 25.3507H20.7999H20.787H20.7741H20.7612H20.7482H20.7353H20.7222H20.7092H20.6961H20.683H20.6699H20.6567H20.6435H20.6303H20.617H20.6037H20.5904H20.5771H20.5637H20.5503H20.5369H20.5234H20.5099H20.4964H20.4828H20.4692H20.4556H20.442H20.4283H20.4146H20.4009H20.3871H20.3734H20.3595H20.3457H20.3318H20.3179H20.304H20.2901H20.2761H20.2621H20.248H20.234H20.2199H20.2058H20.1916H20.1775H20.1633H20.149H20.1348H20.1205H20.1062H20.0919H20.0775H20.0631H20.0487H20.0343H20.0198H20.0053H19.9908H19.9763H19.9617H19.9471H19.9325H19.9178H19.9032H19.8885H19.8737H19.859H19.8442H19.8294H19.8146H19.7998H19.7849H19.77H19.7551H19.7401H19.7252H19.7102H19.6952H19.6801H19.665H19.65H19.6348H19.6197H19.6045H19.5894H19.5742H19.5589H19.5437H19.5284H19.5131H19.4978H19.4824H19.4671H19.4517H19.4362H19.4208H19.4054H19.3899H19.3744H19.3588H19.3433H19.3277H19.3121H19.2965H19.2809H19.2652H19.2495H19.2338H19.2181H19.2024H19.1866H19.1708H19.155H19.1392H19.1233H19.1075H19.0916H19.0757H19.0597H19.0438H19.0278H19.0118H18.9958H18.9798H18.9637H18.9477H18.9316H18.9155H18.8993H18.8832H18.867H18.8508H18.8346H18.8184H18.8022H18.7859H18.7696H18.7533H18.737H18.7206H18.7043H18.6879H18.6715H18.6551H18.6387H18.6222H18.6058H18.5893H18.5728H18.5562H18.5397H18.5232H18.5066H18.49H18.4734H18.4568H18.4401H18.4235H18.4068H18.3901H18.3734H18.3567H18.3399H18.3232H18.3064H18.2896H18.2728H18.256H18.2391H18.2223H18.2054H18.1885H18.1716H18.1547H18.1378H18.1208H18.1039H18.0869H18.0699H18.0529H18.0359H18.0188H18.0018H17.9847H17.9676H17.9505H17.9334H17.9163H17.8992H17.882H17.8649H17.8477H17.8305H17.8133H17.7961H17.7788H17.7616H17.7443H17.727H17.7098H17.6925H17.6751H17.6578H17.6405H17.6231H17.6058H17.5884H17.571H17.5536H17.5362H17.5188H17.5013H17.4839H17.4664H17.4489H17.4315H17.414H17.3965H17.3789H17.3614H17.3439H17.3263H17.3087H17.2912H17.2736H17.256H17.2384H17.2208H17.2031H17.1855H17.1679H17.1502H17.1325H17.1148H17.0972H17.0795H17.0617H17.044H17.0263H17.0086H16.9908H16.9731H16.9553H16.9375H16.9197H16.9019H16.8841H16.8663H16.8485H16.8307H16.8129H16.795H16.7772H16.7593H16.7414H16.7235H16.7057H16.6878H16.6699H16.652H16.634H16.6161H16.5982H16.5803H16.5623H16.5444H16.5264H16.5084H16.4905H16.4725H16.4545H16.4365H16.4185H16.4005H16.3825H16.3645H16.3464H16.3284H16.3104H16.2923H16.2743H16.2562H16.2382H16.2201H16.202H16.1839H16.1659H16.1478H16.1297H16.1116H16.0935H16.0754H16.0573H16.0392H16.021H16.0029H15.9848H15.9667H15.9485H15.9304H15.9122H15.8941H15.8759H15.8578H15.8396H15.8214H15.8033H15.7851H15.7669H15.7488H15.7306H15.7124H15.6942H15.676H15.6578H15.6396H15.6214H15.6032H15.585H15.5668H15.5486H15.5304H15.5122H15.494H15.4758H15.4576H15.4394H15.4211H15.4029H15.3847H15.3665H15.3483H15.33H15.3118H15.2936H15.2753H15.2571H15.2389H15.2207H15.2024H15.1842H15.166H15.1477H15.1295H15.1113H15.0931H15.0748H15.0566H15.0384H15.0201H15.0019H14.9837H14.9655H14.9472H14.929H14.9108H14.8926H14.8743H14.8561H14.8379H14.8197H14.8015H14.7832H14.765H14.7468H14.7286H14.7104H14.6922H14.674H14.6558H14.6376H14.6194H14.6012H14.583H14.5648H14.5467H14.5285H14.5103H14.4921H14.4739H14.4558H14.4376H14.4194H14.4013H14.3831H14.365H14.3468H14.3287H14.3106H14.2924H14.2743H14.2562H14.238H14.2199H14.2018H14.1837H14.1656H14.1475H14.1294H14.1113H14.0932H14.0751H14.0571H14.039H14.0209H14.0029H13.9848H13.9668H13.9487H13.9307H13.9127H13.8947H13.8766H13.8586H13.8406H13.8226H13.8046H13.7867H13.7687H13.7507H13.7327H13.7148H13.6968H13.6789H13.661H13.643H13.6251H13.6072H13.5893H13.5714H13.5535H13.5356H13.5177H13.4999H13.482H13.4642H13.4463H13.4285H13.4107H13.3929H13.3751H13.3573H13.3395H13.3217H13.3039H13.2862H13.2684H13.2507H13.2329H13.2152H13.1975H13.1798H13.1621H13.1444H13.1267H13.1091H13.0914H13.0738H13.0561H13.0385H13.0209H13.0033H12.9857H12.9681H12.9506H12.933H12.9154H12.8979H12.8804H12.8629H12.8454H12.8279H12.8104H12.7929H12.7755H12.758H12.7406H12.7232H12.7058H12.6884H12.671H12.6536H12.6363H12.6189H12.6016H12.5843H12.5669H12.5497H12.5324H12.5151H12.4978H12.4806H12.4634H12.4462H12.429H12.4118H12.3946H12.3774H12.3603H12.3432H12.326H12.3089H12.2919H12.2748H12.2577H12.2407H12.2236H12.2066H12.1896H12.1737V25.3296V25.3078V25.2859V25.264V25.242V25.2201V25.1981V25.1761V25.154V25.132V25.1099V25.0878V25.0656V25.0435V25.0213V24.9991V24.9769V24.9546V24.9323V24.91V24.8877V24.8654V24.843V24.8206V24.7982V24.7758V24.7534V24.7309V24.7084V24.6859V24.6634V24.6408V24.6183V24.5957V24.5731V24.5505V24.5279V24.5052V24.4826V24.4599V24.4372V24.4145V24.3917V24.369V24.3462V24.3235V24.3007V24.2779V24.2551V24.2322V24.2094V24.1865V24.1636V24.1408V24.1179V24.095V24.072V24.0491V24.0262V24.0032V23.9802V23.9573V23.9343V23.9113V23.8883V23.8653V23.8422V23.8192V23.7961V23.7731V23.75V23.727V23.7039V23.6808V23.6577V23.6346V23.6115V23.5884V23.5653V23.5422V23.519V23.4959V23.4728V23.4496V23.4265V23.4033V23.3802V23.357V23.3339V23.3107V23.2875V23.2644V23.2412V23.218V23.1949V23.1717V23.1485V23.1253V23.1022V23.079V23.0558V23.0326V23.0094V22.9863V22.9631V22.9399V22.9168V22.8936V22.8704V22.8472V22.8241V22.8009V22.7778V22.7546V22.7315V22.7083V22.6852V22.6621V22.6389V22.6158V22.5927V22.5696V22.5465V22.5234V22.5003V22.4772V22.4541V22.431V22.408V22.3849V22.3618V22.3388V22.3158V22.2928V22.2697V22.2467V22.2237V22.2008V22.1778V22.1548V22.1319V22.1089V22.086V22.0631V22.0402V22.0173V21.9944V21.9715V21.9487V21.9258V21.903V21.8802V21.8574V21.8346V21.8118V21.7891V21.7664V21.7436V21.7209V21.6982V21.6756V21.6529V21.6302V21.6076V21.585V21.5624V21.5399V21.5173V21.4948V21.4723V21.4498V21.4273V21.4048V21.3824V21.36V21.3376V21.3152V21.2928V21.2705V21.2482V21.2259V21.2036V21.1814V21.1592V21.137V21.1148V21.0926V21.0705V21.0484V21.0263V21.0043V20.9822V20.9602V20.9383V20.9163V20.8944V20.8725V20.8506V20.8287V20.8069V20.7851V20.7634V20.7416V20.7199V20.6982V20.6766V20.6549V20.6333V20.6118V20.5902V20.5687V20.5473V20.5258V20.5044V20.483V20.4617V20.4403V20.4191V20.3978V20.3766V20.3554V20.3342V20.3131V20.292V20.2709V20.2499V20.2289V20.208V20.1871V20.1662V20.1453V20.1245V20.1037V20.083V20.0623V20.0416V20.021V20.0004V19.9799V19.9593V19.9389V19.9184V19.898V19.8777V19.8573V19.8371V19.8168V19.7966V19.7764V19.7563V19.7362V19.7162V19.6962V19.6762V19.6563V19.6365V19.6166V19.5968V19.5771V19.5574V19.5377V19.5181V19.4986V19.479V19.4596V19.4401V19.4207V19.4014V19.3821V19.3629V19.3437V19.3245V19.3054V19.2863V19.2673V19.2483V19.2294V19.2105V19.1917V19.173V19.1542V19.1356V19.1169V19.0984V19.0798V19.0614V19.0429V19.0246V19.0062V18.988V18.9697V18.9516V18.9335V18.9154V18.8974V18.8794V18.8615V18.8437V18.8259V18.8082V18.7905V18.7729V18.7553V18.7378V18.7203V18.7029V18.6855V18.6682V18.651V18.6338V18.6167V18.5996V18.5826V18.5657V18.5488V18.532V18.5152V18.4985V18.4818V18.4652V18.4487V18.4322V18.4158V18.3994V18.3832V18.3669V18.3508V18.3347V18.3186V18.3026V18.2867V18.2709V18.2551V18.2393V18.2237V18.2081V18.1925V18.1771V18.1617V18.1463V18.131V18.1158V18.1007V18.0856V18.0706V18.0557V18.0408V18.026V18.0112V17.9966V17.9819V17.9674V17.9529V17.9385V17.9242V17.91V17.8958V17.8816V17.8676V17.8536V17.8397V17.8259V17.8121V17.7984V17.7848V17.7712V17.7578V17.7444V17.731V17.7178V17.7046V17.6915V17.6785V17.6655V17.6526V17.6398V17.6271V17.6144V17.6018V17.5893V17.5769V17.5645V17.5523V17.5401V17.5279V17.5159V17.5039V17.492V17.4802V17.4685V17.4568V17.4453V17.4338V17.4224V17.411V17.3998V17.3886V17.3775V17.3665V17.3556V17.3448V17.334V17.3233V17.3127V17.3022V17.2918V17.2814V17.2712V17.261V17.2509V17.2409V17.231V17.2211V17.2114V17.2017V17.1921V17.1826V17.1732V17.1639V17.1546V17.1455V17.1364V17.1275V17.1186V17.1098V17.1011V17.0925V17.0839V17.0755V17.0671V17.0589V17.0507V17.0426V17.0346V17.0267V17.0189V17.0112V17.0036V16.9961V16.9886V16.9813V16.974V16.9669V16.9598V16.9528V16.946V16.9392V16.9325V16.9259V16.9194V16.913V16.9067V16.9005V16.8944V16.8884V16.8825V16.8766V16.8709V16.8653V16.8597V16.8543V16.849V16.8438V16.8386V16.8336V16.8287V16.8238V16.8191V16.8144V16.8099V16.8055V16.8011V16.7969V16.7928V16.7888V16.7848V16.781V16.7773V16.7737V16.7702V16.7668V16.7635V16.7603V16.7572V16.7542V16.7513V16.7485V16.7458V16.7433V16.7408V16.7385V16.7362V16.7341V16.732V16.7301V16.7283V16.7266V16.725V16.7235V16.7221V16.7208V16.7197V16.7186V16.7177V16.7168V16.7161V16.7155V16.715V16.7146V16.7143V16.7141L11.1577 16.7141ZM15.1028 13.7963C14.1549 13.7963 13.3865 14.5647 13.3865 15.5126C13.3865 16.4605 14.1549 17.2289 15.1028 17.2289H18.7553C19.7032 17.2289 20.4717 16.4605 20.4717 15.5126C20.4717 14.5647 19.7032 13.7963 18.7553 13.7963H15.1028ZM14.2055 18.5574C13.7164 18.5574 13.3199 18.9539 13.3199 19.4431C13.3199 19.9322 13.7164 20.3287 14.2055 20.3287H19.586C20.0751 20.3287 20.4717 19.9322 20.4717 19.4431C20.4717 18.9539 20.0751 18.5574 19.586 18.5574H14.2055ZM14.2721 21.6572C13.783 21.6572 13.3865 22.0537 13.3865 22.5428C13.3865 23.0319 13.783 23.4285 14.2721 23.4285H17.8147C18.3039 23.4285 18.7004 23.0319 18.7004 22.5428C18.7004 22.0537 18.3039 21.6572 17.8147 21.6572H14.2721Z" fill="#65521C"/>
</svg>
