<svg width="44" height="44" viewBox="0 0 44 44" fill="none" xmlns="http://www.w3.org/2000/svg">
<path fill-rule="evenodd" clip-rule="evenodd" d="M26.8444 17.5493C27.0406 20.6419 27.6722 23.3814 28.9193 26.5H15.1037C16.3712 23.4521 17.0275 20.7458 17.217 17.6843C17.4012 14.7081 19.5536 12.5 22.0564 12.5C24.534 12.5 26.6606 14.6525 26.8444 17.5493ZM15.2208 17.5608C15.455 13.7774 18.2658 10.5 22.0564 10.5C25.7953 10.5 28.6036 13.6913 28.8404 17.4227C29.0477 20.6905 29.7726 23.5346 31.3232 27.058C31.6194 27.7309 31.1359 28.5 30.4006 28.5H13.5997C12.8572 28.5 12.3739 27.7169 12.6834 27.042C14.2653 23.5931 15.0211 20.7876 15.2208 17.5608ZM20.9555 30.7575C20.8215 30.2217 20.2786 29.8959 19.7428 30.0299C19.207 30.1638 18.8812 30.7067 19.0152 31.2425C19.3983 32.7749 20.7479 33.5 21.9853 33.5C23.2227 33.5 24.5724 32.7749 24.9555 31.2425C25.0894 30.7067 24.7637 30.1638 24.2279 30.0299C23.6921 29.8959 23.1491 30.2217 23.0152 30.7575C22.8983 31.2251 22.4979 31.5 21.9853 31.5C21.4727 31.5 21.0724 31.2251 20.9555 30.7575Z" fill="#1C1C1C"/>
</svg>
