<svg width="48" height="53" viewBox="0 0 48 53" fill="none" xmlns="http://www.w3.org/2000/svg">
<path d="M21 34H16C15.4477 34 15 33.5523 15 33V21.4891C15 21.1805 15.1425 20.8892 15.3861 20.6997L23.3861 14.4775C23.7472 14.1966 24.2528 14.1966 24.6139 14.4775L32.6139 20.6997C32.8575 20.8892 33 21.1805 33 21.4891V33C33 33.5523 32.5523 34 32 34H27M21 34V24.5C21 23.9477 21.4477 23.5 22 23.5H26C26.5523 23.5 27 23.9477 27 24.5V34M21 34H27" stroke="#1C1C1C" stroke-width="2" stroke-linecap="round"/>
</svg>
